<svg aria-hidden="true" style="position: absolute; width: 0; height: 0; overflow: hidden;" version="1.1" xmlns="http://www.w3.org/2000/svg" xmlns:xlink="http://www.w3.org/1999/xlink">
<defs>
<symbol id="icon-helm" viewBox="0 0 32 32">
<path fill="#ffd600" style="fill: var(--color1, #ffd600)" d="M31.219 14.737c-0.3 0-1.441 0.421-2.041 0.662-0.060-0.241-0.3-0.421-0.6-0.421s-0.601 0.18-0.601 0.421l-1.141-0.18c-0.18-2.466-1.141-4.632-2.642-6.376l0.66-0.962c0.18 0.12 0.54 0.12 0.72-0.12 0.24-0.241 0.3-0.541 0.12-0.722 0.601-0.241 1.741-0.722 1.921-0.962 0.24-0.301 0.060-0.902-0.36-1.383-0.48-0.421-1.081-0.601-1.381-0.361-0.24 0.18-0.721 1.323-0.961 1.925-0.18-0.12-0.54-0.060-0.72 0.12-0.24 0.241-0.3 0.541-0.12 0.722l-0.961 0.662c-1.741-1.504-3.962-2.466-6.364-2.647l-0.18-1.143c0.24-0.060 0.42-0.301 0.42-0.602s-0.18-0.541-0.42-0.602c0.24-0.602 0.66-1.744 0.66-2.045-0.060-0.421-0.6-0.722-1.261-0.722s-1.201 0.301-1.261 0.722c0 0.301 0.42 1.444 0.66 2.045-0.24 0.060-0.42 0.301-0.42 0.602s0.18 0.602 0.42 0.602l-0.18 1.143c-2.462 0.18-4.623 1.143-6.364 2.647l-0.961-0.662c0.12-0.18 0.12-0.541-0.12-0.722-0.24-0.241-0.54-0.301-0.72-0.12-0.24-0.601-0.72-1.684-0.961-1.925-0.3-0.241-0.901-0.060-1.321 0.421-0.48 0.421-0.66 1.023-0.42 1.383 0.18 0.241 1.321 0.722 1.921 0.962-0.12 0.18-0.060 0.541 0.12 0.722 0.24 0.241 0.54 0.301 0.72 0.12l0.66 0.962c-1.501 1.744-2.462 3.97-2.642 6.376l-1.141 0.18c-0.060-0.241-0.3-0.421-0.6-0.421s-0.54 0.18-0.6 0.421c-0.6-0.241-1.741-0.662-2.041-0.662-0.42 0.060-0.72 0.601-0.72 1.263s0.3 1.203 0.72 1.263c0.3 0 1.441-0.421 2.041-0.662 0.060 0.241 0.3 0.421 0.6 0.421s0.6-0.18 0.6-0.421l1.141 0.18c0.18 2.466 1.141 4.632 2.642 6.376l-0.6 0.902c-0.18-0.12-0.54-0.12-0.72 0.12-0.24 0.241-0.3 0.541-0.12 0.722-0.6 0.241-1.681 0.722-1.921 0.963-0.24 0.301-0.060 0.902 0.36 1.383 0.48 0.481 1.081 0.662 1.381 0.361 0.24-0.18 0.72-1.323 0.961-1.925 0.18 0.12 0.54 0.060 0.72-0.12 0.24-0.241 0.3-0.541 0.12-0.722l0.961-0.662c1.741 1.504 3.962 2.466 6.364 2.647l0.18 1.143c-0.24 0.060-0.42 0.301-0.42 0.602s0.18 0.541 0.42 0.601c-0.24 0.602-0.66 1.744-0.66 2.045 0.060 0.421 0.6 0.722 1.261 0.722s1.201-0.301 1.261-0.722c0-0.301-0.42-1.444-0.66-2.045 0.24-0.060 0.42-0.301 0.42-0.601s-0.18-0.602-0.42-0.602l0.18-1.143c2.462-0.18 4.623-1.143 6.364-2.647l0.961 0.662c-0.12 0.18-0.12 0.541 0.12 0.722 0.24 0.241 0.54 0.301 0.72 0.12 0.24 0.601 0.72 1.744 0.961 1.925 0.3 0.241 0.9 0.060 1.381-0.361 0.48-0.481 0.66-1.083 0.36-1.383-0.18-0.241-1.321-0.722-1.921-0.963 0.12-0.18 0.060-0.541-0.12-0.722-0.24-0.241-0.54-0.301-0.72-0.12l-0.66-0.962c1.501-1.744 2.462-3.97 2.642-6.376l1.141-0.18c0.060 0.241 0.3 0.421 0.6 0.421s0.54-0.18 0.6-0.421c0.601 0.241 1.741 0.662 2.041 0.662 0.42-0.060 0.72-0.602 0.72-1.263-0.12-0.601-0.42-1.203-0.781-1.263zM6.604 16.421c-0.24 0-0.42-0.18-0.42-0.421s0.18-0.421 0.42-0.421c0.24 0 0.42 0.18 0.42 0.421s-0.18 0.421-0.42 0.421zM22.274 9.083c0.18-0.18 0.42-0.18 0.6 0s0.18 0.421 0 0.601c-0.18 0.18-0.42 0.18-0.6 0-0.12-0.18-0.12-0.421 0-0.601zM15.97 6.256c0.24 0 0.42 0.18 0.42 0.421s-0.18 0.421-0.42 0.421c-0.24 0-0.42-0.18-0.42-0.421s0.18-0.421 0.42-0.421zM9.066 9.083c0.18-0.18 0.42-0.18 0.6 0s0.18 0.421 0 0.601c-0.18 0.18-0.42 0.18-0.6 0-0.12-0.18-0.12-0.421 0-0.601zM10.146 10.827l0.48 0.481c0.12 0.12 0.24 0.12 0.36 0.060l0.66 0.662c-0.18 0.421 0 1.083 0.54 1.624 0.6 0.601 1.441 0.782 1.801 0.421-0.48 0.481-0.78 1.143-0.78 1.865v-0.18h-2.341c-0.060 0-0.12-0.060-0.12-0.18s0.060-0.18 0.12-0.18h2.462v-0.060c0-0.18-0.18-0.361-0.36-0.361h-2.341c-0.12 0-0.42 0.361-0.6 0.662h-0.72c-0.060-0.12-0.18-0.241-0.3-0.241h-0.78c0.12-1.684 0.78-3.308 1.921-4.571zM9.666 22.917c-0.18 0.18-0.42 0.18-0.6 0s-0.18-0.421 0-0.602c0.18-0.18 0.42-0.18 0.6 0s0.18 0.421 0 0.602zM10.146 21.173c-1.141-1.263-1.861-2.947-1.981-4.752h0.78c0.12 0 0.3-0.12 0.3-0.241h0.66c0.18 0.301 0.48 0.722 0.6 0.722h2.341c0.18 0 0.36-0.12 0.36-0.301v-0.12h-2.341c-0.060 0-0.12-0.060-0.12-0.18s0.060-0.18 0.12-0.18h2.462v-0.18c0 0.722 0.3 1.383 0.78 1.865-0.36-0.361-1.201-0.18-1.801 0.421-0.54 0.541-0.72 1.203-0.54 1.624l-0.66 0.662c-0.12-0.060-0.3-0.060-0.36 0.060l-0.6 0.602zM15.97 25.805c-0.24 0-0.42-0.18-0.42-0.421s0.18-0.421 0.42-0.421c0.24 0 0.42 0.18 0.42 0.421s-0.18 0.421-0.42 0.421zM22.874 22.917c-0.18 0.18-0.42 0.18-0.6 0s-0.18-0.421 0-0.602c0.18-0.18 0.42-0.18 0.6 0s0.18 0.421 0 0.602zM21.794 21.173l-0.48-0.481c-0.12-0.12-0.24-0.12-0.36-0.060l-0.66-0.662c0.18-0.421-0-1.083-0.54-1.624-0.6-0.602-1.441-0.782-1.801-0.421s-0.18 1.203 0.42 1.805c0.54 0.541 1.201 0.722 1.621 0.541l0.66 0.662c-0.060 0.12-0.060 0.301 0.060 0.361l0.48 0.481c-1.261 1.143-2.882 1.865-4.683 1.985v-0.782c0-0.12-0.12-0.301-0.24-0.301v-0.722c0.24-0.18 0.66-0.481 0.66-0.602v-2.346c0-0.18-0.18-0.361-0.36-0.361h-0.060v2.466c0 0.060-0.060 0.12-0.18 0.12s-0.18-0.060-0.18-0.12v-2.406h-0.36v2.406c0 0.060-0.060 0.12-0.18 0.12s-0.18-0.060-0.18-0.12v-2.406h-0.12c-0.18 0-0.3 0.18-0.3 0.361v2.346c0 0.12 0.42 0.421 0.72 0.601v0.662c-0.12 0.060-0.24 0.18-0.24 0.301v0.782c-1.801-0.12-3.482-0.842-4.743-1.985l0.48-0.481c0.12-0.12 0.12-0.241 0.060-0.361l0.66-0.662c0.42 0.18 1.081 0 1.621-0.541 0.6-0.602 0.78-1.444 0.42-1.805 0.48 0.481 1.141 0.782 1.861 0.782 1.501 0 2.642-1.203 2.642-2.647 0-1.504-1.201-2.647-2.642-2.647-0.72 0-1.381 0.301-1.861 0.782 0.36-0.361 0.18-1.203-0.42-1.805-0.54-0.541-1.201-0.722-1.621-0.541l-0.66-0.662c0.060-0.12 0.060-0.301-0.060-0.361l-0.48-0.481c1.261-1.143 2.942-1.865 4.743-1.985v0.782c0 0.12 0.12 0.301 0.24 0.301v0.662c-0.3 0.18-0.72 0.481-0.72 0.601v2.346c0 0.18 0.12 0.361 0.3 0.361h0.12v-2.526c0-0.060 0.060-0.12 0.18-0.12s0.18 0.060 0.18 0.12v2.466h0.36v-2.466c0-0.060 0.060-0.12 0.18-0.12s0.18 0.060 0.18 0.12v2.466h0.060c0.18 0 0.36-0.18 0.36-0.361v-2.346c0-0.12-0.36-0.421-0.66-0.601v-0.722c0.12-0.060 0.24-0.18 0.24-0.301v-0.782c1.801 0.12 3.422 0.842 4.683 1.925l-0.48 0.481c-0.12 0.12-0.12 0.241-0.060 0.361l-0.66 0.662c-0.42-0.18-1.081 0-1.621 0.541-0.6 0.601-0.78 1.444-0.42 1.804s1.201 0.18 1.801-0.421c0.54-0.541 0.72-1.203 0.54-1.624l0.66-0.662c0.12 0.060 0.3 0.060 0.36-0.060l0.48-0.481c1.141 1.263 1.861 2.887 1.981 4.692h-0.781c-0.12 0-0.3 0.12-0.3 0.241h-0.72c-0.18-0.241-0.48-0.662-0.6-0.662h-2.342c-0.18 0-0.36 0.18-0.36 0.361v0.060h2.401c0.060 0 0.12 0.060 0.12 0.18s-0.060 0.18-0.12 0.18h-2.401v0.301h2.401c0.060 0 0.12 0.060 0.12 0.18s-0.060 0.18-0.12 0.18h-2.401v0.12c0 0.18 0.18 0.301 0.36 0.301h2.342c0.12 0 0.42-0.421 0.6-0.722h0.66c0.060 0.12 0.18 0.241 0.3 0.241h0.78c-0.060 1.865-0.78 3.489-1.921 4.752zM14.289 16c0-0.902 0.72-1.684 1.681-1.684 0.901 0 1.681 0.722 1.681 1.684 0 0.902-0.72 1.684-1.681 1.684-0.901 0-1.681-0.722-1.681-1.684zM25.336 16.421c-0.24 0-0.42-0.18-0.42-0.421s0.18-0.421 0.42-0.421c0.24 0 0.42 0.18 0.42 0.421s-0.18 0.421-0.42 0.421z"></path>
</symbol>
<symbol id="icon-map-marker" viewBox="0 0 24 32">
<path d="M10.767 31.354c-9.081-13.165-10.767-14.516-10.767-19.354 0-6.627 5.373-12 12-12s12 5.373 12 12c0 4.838-1.686 6.189-10.767 19.354-0.596 0.861-1.871 0.861-2.466 0zM12 17c2.761 0 5-2.239 5-5s-2.239-5-5-5-5 2.239-5 5 2.239 5 5 5z"></path>
</symbol>
<symbol id="icon-envelope" viewBox="0 0 32 32">
<path d="M31.394 11.925c0.244-0.194 0.606-0.012 0.606 0.294v12.781c0 1.656-1.344 3-3 3h-26c-1.656 0-3-1.344-3-3v-12.775c0-0.313 0.356-0.488 0.606-0.294 1.4 1.088 3.256 2.469 9.631 7.1 1.319 0.962 3.544 2.988 5.763 2.975 2.231 0.019 4.5-2.050 5.769-2.975 6.375-4.631 8.225-6.019 9.625-7.106zM16 20c1.45 0.025 3.538-1.825 4.587-2.587 8.294-6.019 8.925-6.544 10.837-8.044 0.363-0.281 0.575-0.719 0.575-1.181v-1.188c0-1.656-1.344-3-3-3h-26c-1.656 0-3 1.344-3 3v1.188c0 0.463 0.212 0.894 0.575 1.181 1.912 1.494 2.544 2.025 10.838 8.044 1.050 0.762 3.138 2.613 4.588 2.587z"></path>
</symbol>
<symbol id="icon-phone" viewBox="0 0 32 32">
<path d="M30.837 1.538l-6.5-1.5c-0.706-0.163-1.431 0.206-1.719 0.869l-3 7c-0.262 0.613-0.087 1.331 0.431 1.75l3.788 3.1c-2.25 4.794-6.181 8.781-11.075 11.075l-3.1-3.788c-0.425-0.519-1.137-0.694-1.75-0.431l-7 3c-0.669 0.294-1.038 1.019-0.875 1.725l1.5 6.5c0.156 0.675 0.756 1.163 1.462 1.163 16.006 0 29-12.969 29-29 0-0.7-0.481-1.306-1.163-1.462z"></path>
</symbol>
<symbol id="icon-angle-down" viewBox="0 0 20 32">
<path d="M8.938 22.019l-8.5-8.5c-0.588-0.588-0.588-1.537 0-2.119l1.413-1.412c0.587-0.588 1.538-0.588 2.119 0l6.025 6.025 6.025-6.025c0.587-0.588 1.538-0.588 2.119 0l1.413 1.412c0.587 0.588 0.587 1.537 0 2.119l-8.5 8.5c-0.575 0.587-1.525 0.587-2.113 0z"></path>
</symbol>
<symbol id="icon-twitter" viewBox="0 0 32 32">
<path d="M28.711 9.482c0.020 0.284 0.020 0.569 0.020 0.853 0 8.67-6.599 18.66-18.66 18.66-3.716 0-7.168-1.076-10.071-2.944 0.528 0.061 1.036 0.081 1.584 0.081 3.066 0 5.888-1.035 8.142-2.802-2.883-0.061-5.3-1.949-6.132-4.548 0.406 0.061 0.812 0.102 1.239 0.102 0.589 0 1.178-0.081 1.726-0.223-3.005-0.609-5.259-3.249-5.259-6.437v-0.081c0.873 0.487 1.888 0.792 2.964 0.832-1.766-1.178-2.924-3.188-2.924-5.462 0-1.218 0.325-2.335 0.893-3.31 3.228 3.98 8.081 6.579 13.523 6.863-0.101-0.487-0.162-0.995-0.162-1.502 0-3.614 2.924-6.558 6.558-6.558 1.888 0 3.594 0.792 4.792 2.071 1.482-0.284 2.904-0.832 4.162-1.584-0.487 1.523-1.523 2.802-2.883 3.614 1.32-0.142 2.599-0.508 3.777-1.015-0.893 1.299-2.010 2.457-3.289 3.391z"></path>
</symbol>
<symbol id="icon-instagram" viewBox="0 0 28 32">
<path d="M14.006 8.813c-3.975 0-7.181 3.206-7.181 7.181s3.206 7.181 7.181 7.181 7.181-3.206 7.181-7.181-3.206-7.181-7.181-7.181zM14.006 20.663c-2.569 0-4.669-2.094-4.669-4.669s2.094-4.669 4.669-4.669 4.669 2.094 4.669 4.669-2.1 4.669-4.669 4.669zM23.156 8.519c0 0.931-0.75 1.675-1.675 1.675-0.931 0-1.675-0.75-1.675-1.675s0.75-1.675 1.675-1.675 1.675 0.75 1.675 1.675zM27.913 10.219c-0.106-2.244-0.619-4.231-2.262-5.869-1.637-1.638-3.625-2.15-5.869-2.263-2.313-0.131-9.244-0.131-11.556 0-2.237 0.106-4.225 0.619-5.869 2.256s-2.15 3.625-2.263 5.869c-0.131 2.313-0.131 9.244 0 11.556 0.106 2.244 0.619 4.231 2.263 5.869s3.625 2.15 5.869 2.262c2.313 0.131 9.244 0.131 11.556 0 2.244-0.106 4.231-0.619 5.869-2.262 1.637-1.637 2.15-3.625 2.262-5.869 0.131-2.313 0.131-9.238 0-11.55zM24.925 24.25c-0.488 1.225-1.431 2.169-2.663 2.663-1.844 0.731-6.219 0.563-8.256 0.563s-6.419 0.163-8.256-0.563c-1.225-0.488-2.169-1.431-2.663-2.663-0.731-1.844-0.563-6.219-0.563-8.256s-0.163-6.419 0.563-8.256c0.487-1.225 1.431-2.169 2.663-2.662 1.844-0.731 6.219-0.563 8.256-0.563s6.419-0.162 8.256 0.563c1.225 0.487 2.169 1.431 2.663 2.662 0.731 1.844 0.563 6.219 0.563 8.256s0.169 6.419-0.563 8.256z"></path>
</symbol>
<symbol id="icon-facebook" viewBox="0 0 20 32">
<path d="M17.446 18l0.889-5.791h-5.557v-3.758c0-1.584 0.776-3.129 3.265-3.129h2.526v-4.931s-2.293-0.391-4.484-0.391c-4.576 0-7.567 2.774-7.567 7.795v4.414h-5.087v5.791h5.087v14h6.261v-14z"></path>
</symbol>
<symbol id="burger" viewBox="0 0 28 32">
<path d="M1 8.25h26c0.552 0 1-0.448 1-1v-2.5c0-0.552-0.448-1-1-1h-26c-0.552 0-1 0.448-1 1v2.5c0 0.552 0.448 1 1 1zM1 18.25h26c0.552 0 1-0.448 1-1v-2.5c0-0.552-0.448-1-1-1h-26c-0.552 0-1 0.448-1 1v2.5c0 0.552 0.448 1 1 1zM1 28.25h26c0.552 0 1-0.448 1-1v-2.5c0-0.552-0.448-1-1-1h-26c-0.552 0-1 0.448-1 1v2.5c0 0.552 0.448 1 1 1z"></path>
</symbol>
<symbol id="icon-cross" viewBox="0 0 22 32">
<path d="M15.17 16l6.254-6.254c0.767-0.768 0.767-2.012 0-2.78l-1.39-1.39c-0.767-0.768-2.012-0.768-2.78 0l-6.254 6.254-6.254-6.254c-0.768-0.768-2.012-0.768-2.78 0l-1.39 1.39c-0.767 0.768-0.767 2.012 0 2.78l6.254 6.254-6.254 6.254c-0.767 0.767-0.767 2.012 0 2.78l1.39 1.39c0.767 0.767 2.013 0.767 2.78 0l6.254-6.254 6.254 6.254c0.767 0.767 2.012 0.767 2.78 0l1.39-1.39c0.767-0.767 0.767-2.012 0-2.78l-6.254-6.254z"></path>
</symbol>
</defs>
</svg>
