<?xml version="1.0" standalone="no"?>
<!DOCTYPE svg PUBLIC "-//W3C//DTD SVG 1.1//EN" "http://www.w3.org/Graphics/SVG/1.1/DTD/svg11.dtd" >
<svg xmlns="http://www.w3.org/2000/svg" xmlns:xlink="http://www.w3.org/1999/xlink" version="1.1">
<metadata>
Created by FontForge 20190801 at Wed Apr 11 08:11:39 2018
 By www-data
Copyright (c) 2018 by Creativetacos. All rights reserved.
</metadata>
<defs>
<font id="BannyRound" horiz-adv-x="550" >
  <font-face 
    font-family="BannyRound"
    font-weight="400"
    font-stretch="normal"
    units-per-em="1024"
    panose-1="0 0 0 0 0 0 0 0 0 0"
    ascent="819"
    descent="-205"
    x-height="520"
    cap-height="750"
    bbox="-10.9231 -250 1146 999"
    underline-thickness="50"
    underline-position="-150"
    unicode-range="U+000D-F078"
  />
<missing-glyph horiz-adv-x="100" 
 />
    <glyph glyph-name=".notdef" horiz-adv-x="100" 
 />
    <glyph glyph-name=".null" horiz-adv-x="0" 
 />
    <glyph glyph-name="nonmarkingreturn" horiz-adv-x="341" 
 />
    <glyph glyph-name="NULL" horiz-adv-x="0" 
 />
    <glyph glyph-name="NULL" horiz-adv-x="0" 
 />
    <glyph glyph-name="CR" unicode="&#xd;" horiz-adv-x="256" 
 />
    <glyph glyph-name="space" unicode=" " horiz-adv-x="250" 
 />
    <glyph glyph-name="exclam" unicode="!" horiz-adv-x="197" 
d="M99 0q-21 0 -35.5 14.5t-14.5 35.5q0 20 14.5 34.5t35.5 14.5h1q20 0 34.5 -14.5t14.5 -34.5q0 -21 -14.5 -35.5t-34.5 -14.5h-1zM45 697q0 22 16 37.5t38 15.5t37.5 -15.5t15.5 -37.5v-252l-1 -10l-37 -220q-2 -13 -15 -13q-14 0 -16 13l-37 220l-1 10v252z" />
    <glyph glyph-name="quotedbl" unicode="&#x22;" horiz-adv-x="387" 
d="M228 705q0 19 13.5 32t32.5 13t32 -13t13 -32v-40q0 -1 -1 -9l-1 -8l-16 -56q-2 -8 -10.5 -14.5t-16.5 -6.5q-9 0 -17.5 6.5t-10.5 14.5l-16 56l-1 8q-1 8 -1 9v40zM79 705q0 19 13.5 32t32.5 13t32 -13t13 -32v-40q0 -1 -1 -9l-1 -8l-16 -56q-2 -8 -10.5 -14.5
t-16.5 -6.5q-9 0 -17.5 6.5t-10.5 14.5l-16 56l-1 8q-1 8 -1 9v40z" />
    <glyph glyph-name="numbersign" unicode="#" horiz-adv-x="668" 
d="M481 743q2 7 8 7q8 0 6 -7l-15 -117q-4 -28 14 -48.5t47 -20.5h70q15 0 24.5 -11t7.5 -26t-14.5 -26t-27.5 -11h-86q-22 0 -40 -15.5t-21 -38.5l-12 -93q-4 -28 14 -48.5t47 -20.5h62q15 0 24.5 -11t7.5 -26t-14.5 -26t-27.5 -11h-78q-22 0 -40 -15.5t-21 -38.5l-17 -132
q-2 -7 -8 -7q-8 0 -6 7l15 117q4 28 -14 48.5t-47 20.5h-66q-22 0 -40 -15.5t-21 -38.5l-17 -132q-2 -7 -8 -7q-8 0 -6 7l15 117q4 28 -14 48.5t-47 20.5h-81q-15 0 -24.5 11t-7.5 26t14.5 26t27.5 11h97q22 0 40 15.5t21 38.5l12 93q4 28 -14 48.5t-47 20.5h-73
q-15 0 -24.5 11t-7.5 26t14.5 26t27.5 11h89q22 0 40 15.5t21 38.5l17 132q2 7 8 7q8 0 6 -7l-15 -117q-4 -28 14 -48.5t47 -20.5h66q22 0 40 15.5t21 38.5zM311 483q-22 0 -40 -15.5t-21 -38.5l-12 -93q-4 -28 14 -48.5t47 -20.5h66q22 0 40 15.5t21 38.5l12 93
q4 28 -14 48.5t-47 20.5h-66z" />
    <glyph glyph-name="dollar" unicode="$" horiz-adv-x="598" 
d="M323 797q0 11 8.5 19.5t19.5 8.5t19.5 -8.5t8.5 -19.5v-48q0 -8 6.5 -21t13.5 -17q57 -36 115 -97q3 -5 -2 -8q-6 -6 -12 2q-51 54 -101 86q-7 5 -13 1t-6 -13v-217q0 -15 14 -34.5t28 -25.5q139 -60 139 -196q0 -79 -37.5 -133.5t-109.5 -75.5q-12 -3 -23 -16t-11 -26
v-5q0 -12 -8.5 -20.5t-20.5 -8.5q-13 0 -21.5 8.5t-8.5 20.5v26q0 10 -11 12q-22 1 -43 6q-11 2 -11 -8v-36q0 -12 -8.5 -20.5t-20.5 -8.5q-13 0 -21.5 8.5t-8.5 20.5v40q0 9 -10.5 27t-18.5 23q-68 50 -105 130q-3 3 1 8l3 2l3 2q3 1 5 -3q38 -76 96 -123q9 -6 17.5 -2.5
t8.5 14.5v244q0 13 -15 34t-28 27q-111 58 -111 170q0 68 32 119t88 75q11 5 22.5 20.5t11.5 27.5v8q0 12 8.5 20.5t21.5 8.5q12 0 20.5 -8.5t8.5 -20.5v-25q0 -12 11 -12q24 -2 44 -7q12 -2 12 10v35zM308 437q12 -2 12 10l1 274q0 13 -12 16q-25 7 -43 7q-11 0 -11 -11
v-273q0 -11 10 -13q13 -4 43 -10zM180 487q6 -5 11 -2.5t5 10.5v198q0 7 -4.5 9t-8.5 -3q-36 -52 -36 -143q0 -40 33 -69zM266 336q-4 2 -7.5 -1t-3.5 -7v-303q0 -12 11 -14q23 -7 43 -8q4 -1 7.5 2t3.5 8v302q0 9 -11 13q-7 2 -21.5 4.5t-21.5 3.5zM405 292q-10 7 -17.5 2
t-7.5 -17v-234q0 -13 6 -18t16 3q58 50 58 176q0 55 -55 88z" />
    <glyph glyph-name="percent" unicode="%" horiz-adv-x="764" 
d="M584 -2q34 0 52.5 38.5t18.5 104.5t-18.5 104.5t-52.5 38.5q-35 0 -53.5 -38.5t-18.5 -104.5t18.5 -104.5t53.5 -38.5zM584 -9q-59 0 -91 40.5t-32 109.5t32 109.5t91 40.5t91 -40.5t32 -109.5t-32 -109.5t-91 -40.5zM180 466q35 0 53.5 38.5t18.5 104.5t-18.5 104.5
t-53.5 38.5q-34 0 -52.5 -38.5t-18.5 -104.5t18.5 -104.5t52.5 -38.5zM180 459q-59 0 -91 40.5t-32 109.5t32 109.5t91 40.5t91 -40.5t32 -109.5t-32 -109.5t-91 -40.5zM176 0q-6 0 -8.5 4.5t0.5 9.5l396 722q8 14 24 14q6 0 8.5 -4.5t-0.5 -9.5l-396 -722q-8 -14 -24 -14z
" />
    <glyph glyph-name="ampersand" unicode="&#x26;" horiz-adv-x="683" 
d="M622 8q1 -4 -4 -8q-74 -28 -148 26q-8 5 -22.5 4.5t-22.5 -5.5q-55 -43 -130 -43q-115 0 -185 55t-70 145q0 41 39.5 86t106.5 82q7 4 8.5 13.5t-3.5 16.5q-51 63 -51 149q0 75 47 121t124 46q73 0 117 -40t44 -106q0 -26 -48 -65t-127 -79q-8 -5 -1 -13q6 -9 72.5 -99.5
t105.5 -144.5q7 -11 16.5 -10t14.5 13q32 84 31 194q0 6 6 6q6 -2 6 -9q1 -115 -34 -201q-4 -10 -2 -29.5t8 -28.5q51 -74 50 -80l2 -3l-1 4l2 -2q22 2 42 9q5 2 7 -4zM265 429q16 -20 36 -7q41 24 66 58t25 67q0 62 -22.5 100.5t-59.5 38.5q-39 0 -62.5 -40.5t-23.5 -107.5
q0 -58 41 -109zM222 345q-8 10 -19 4q-30 -20 -48.5 -61.5t-18.5 -91.5q0 -89 44 -144t116 -55q74 0 130 47q12 10 -1 25q-29 32 -62 79z" />
    <glyph glyph-name="quotesingle" unicode="'" horiz-adv-x="219" 
d="M79 705q0 19 13.5 32t32.5 13t32 -13t13 -32v-40q0 -1 -1 -9l-1 -8l-16 -56q-2 -8 -10.5 -14.5t-16.5 -6.5q-9 0 -17.5 6.5t-10.5 14.5l-16 56l-1 8q-1 8 -1 9v40z" />
    <glyph glyph-name="parenleft" unicode="(" horiz-adv-x="356" 
d="M285 778q19 17 35 0q14 -18 -1 -33q-155 -143 -155 -410q0 -259 155 -400q16 -14 1 -33q-16 -17 -35 0q-181 164 -181 433q0 277 181 443z" />
    <glyph glyph-name="parenright" unicode=")" horiz-adv-x="324" 
d="M71 -98q-19 -17 -35 0q-14 18 1 33q155 143 155 410q0 259 -155 400q-16 14 -1 33q16 17 35 0q181 -164 181 -433q0 -277 -181 -443z" />
    <glyph glyph-name="asterisk" unicode="*" horiz-adv-x="386" 
d="M301 667q13 8 27.5 2.5t18.5 -20.5q5 -14 -3 -26.5t-23 -13.5l-40 -3q-24 -3 -30.5 -23.5t10.5 -36.5l31 -28q11 -10 10.5 -24t-12.5 -23q-13 -10 -26.5 -6t-19.5 18l-17 37q-10 22 -32 22t-32 -22l-17 -37q-6 -14 -19.5 -18t-25.5 6q-13 9 -13.5 23t10.5 24l30 27
q18 16 11 37t-31 23l-41 4q-15 2 -22.5 13.5t-3.5 26.5q5 14 18 19t27 -2l35 -21q21 -12 38.5 1t12.5 36l-9 40q-3 15 6 26t24 11t24 -11t6 -26l-9 -39q-5 -23 12.5 -36t38.5 -1z" />
    <glyph glyph-name="plus" unicode="+" horiz-adv-x="590" 
d="M265 171q0 25 -18 43t-43 18h-151q-11 0 -19.5 8.5t-8.5 19.5t8.5 19.5t19.5 8.5h151q25 0 43 18t18 43v141q0 13 8.5 21.5t21.5 8.5t21.5 -8.5t8.5 -21.5v-141q0 -25 18 -43t43 -18h151q11 0 19.5 -8.5t8.5 -19.5t-8.5 -19.5t-19.5 -8.5h-151q-25 0 -43 -18t-18 -43
v-141q0 -13 -8.5 -21.5t-21.5 -8.5t-21.5 8.5t-8.5 21.5v141z" />
    <glyph glyph-name="comma" unicode="," horiz-adv-x="199" 
d="M50 50q0 20 14.5 34.5t35.5 14.5q20 0 34.5 -14.5t14.5 -34.5v-50q0 -51 -17 -76.5t-57 -30.5q-25 -2 -25 23v10q0 11 13 16q21 5 25 38q2 20 -18 20q-8 0 -14 6t-6 14v30z" />
    <glyph glyph-name="hyphen" unicode="-" horiz-adv-x="365" 
d="M88 225q-16 0 -27 11t-11 27t11 27t27 11h189q16 0 27 -11t11 -27t-11 -27t-27 -11h-189z" />
    <glyph glyph-name="period" unicode="." horiz-adv-x="199" 
d="M100 0q-21 0 -35.5 14.5t-14.5 35.5q0 20 14.5 34.5t35.5 14.5q20 0 34.5 -14.5t14.5 -34.5q0 -21 -14.5 -35.5t-34.5 -14.5z" />
    <glyph glyph-name="slash" unicode="/" horiz-adv-x="300" 
d="M20 0q-8 0 -12 6t-1 13l246 712q8 19 27 19q8 0 12 -6t1 -13l-246 -712q-8 -19 -27 -19z" />
    <glyph glyph-name="zero" unicode="0" horiz-adv-x="700" 
d="M164 375q0 -372 188 -372t188 372q0 175 -49.5 273.5t-138.5 98.5t-138.5 -98.5t-49.5 -273.5zM59 375q0 182 77 283t216 101t216 -101t77 -283q0 -190 -74 -287t-219 -97t-219 97t-74 287z" />
    <glyph glyph-name="one" unicode="1" horiz-adv-x="410" 
d="M310 50q0 -21 -14.5 -35.5t-35.5 -15.5q-21 0 -35.5 14.5t-14.5 35.5v536q0 33 -29 44t-50 -14l-74 -84q-1 -2 -3.5 -1t-2.5 4q0 10 6 16l156 179q5 7 21 14t25 7h12q16 0 27.5 -11.5t11.5 -27.5v-661z" />
    <glyph glyph-name="two" unicode="2" horiz-adv-x="589" 
d="M136 0q-28 0 -44.5 18.5t-13.5 46.5q9 100 53 149.5t144 90.5q77 32 124.5 82t47.5 102q0 91 -47 146t-124 55q-70 0 -112.5 -42.5t-42.5 -112.5q0 -75 37 -125q6 -6 -2 -8q-6 -4 -11 1q-39 54 -39 132q0 101 60 162.5t157 61.5t156.5 -62t59.5 -164q0 -59 -67.5 -123
t-178.5 -108q-77 -31 -119 -64.5t-62 -86.5q-10 -24 2.5 -38.5t39.5 -14.5h351q20 0 34.5 -14.5t14.5 -34.5t-14.5 -34.5t-34.5 -14.5h-369z" />
    <glyph glyph-name="three" unicode="3" horiz-adv-x="599" 
d="M58 190q-4 25 9 40t39 15q19 0 36 -16t19 -36q9 -86 47.5 -137t95.5 -51q64 0 102.5 57t38.5 151q0 67 -45.5 108t-120.5 41h-30q-13 0 -21.5 8.5t-8.5 21.5v9q0 17 11.5 28t27.5 11h41q59 0 95.5 32t36.5 85q0 86 -34.5 138t-91.5 52q-44 0 -74.5 -41.5t-39.5 -112.5
q-2 -19 -18.5 -36t-34.5 -17q-26 0 -38.5 12t-8.5 35q14 79 71.5 125.5t143.5 46.5q98 0 158 -53.5t60 -140.5q0 -44 -23 -81t-64 -60q-8 -4 -9.5 -15t6.5 -15q56 -28 88 -77t32 -108q0 -98 -68.5 -158t-181.5 -60q-98 0 -164 54t-82 145z" />
    <glyph glyph-name="four" unicode="4" horiz-adv-x="595" 
d="M25 211q0 5 3 11l338 501q6 9 23 18t28 9h7q16 0 27.5 -11.5t11.5 -27.5v-436q0 -23 16.5 -39.5t39.5 -16.5h49q7 0 7 -7t-7 -7h-49q-23 0 -39.5 -16.5t-16.5 -39.5v-98q0 -21 -15 -36t-36 -15t-36 15t-15 36v93q0 25 -18 43t-43 18h-269q-6 0 -6 6zM105 315
q-22 -33 -5.5 -64.5t55.5 -31.5h145q25 0 43 18t18 43v269v8l10 82q2 16 -13.5 22t-24.5 -8z" />
    <glyph glyph-name="five" unicode="5" horiz-adv-x="595" 
d="M116 342q-9 2 -7 10l46 345q3 22 21 37.5t40 15.5h263q20 0 33.5 -14.5t12.5 -34.5t-17 -34.5t-36 -14.5h-246q-21 0 -39 -15t-21 -37l-24 -147q-1 -5 4 -8.5t9 -0.5q60 39 150 39q113 0 181.5 -68t68.5 -180q0 -110 -69 -177t-181 -67q-98 0 -164 54t-82 145q-4 25 9 40
t39 15q19 0 36 -16t19 -36q9 -86 47.5 -137t95.5 -51q64 0 102.5 63t38.5 167q0 74 -44 119.5t-116 45.5q-46 0 -89 -15t-69 -40q-5 -5 -12 -3z" />
    <glyph glyph-name="six" unicode="6" horiz-adv-x="591" 
d="M168 418q0 -5 5.5 -9t8.5 0q24 31 67 49t93 17q107 0 172.5 -63.5t65.5 -166.5q0 -114 -69 -184t-182 -70q-266 0 -266 379q0 179 67.5 284t195.5 105q75 0 133.5 -36t79.5 -96q2 -7 -3 -10q-6 -4 -8 2q-20 58 -75.5 93t-126.5 35q-73 0 -113.5 -88t-44.5 -241zM339 464
v1q-59 0 -105 -23.5t-63 -63.5q-3 -9 -3 -27q9 -347 161 -347q64 0 103 66.5t39 175.5q0 98 -36.5 158t-95.5 60z" />
    <glyph glyph-name="seven" unicode="7" horiz-adv-x="490" 
d="M30 701q0 20 14.5 34.5t34.5 14.5h352q20 0 34.5 -14.5t14.5 -34.5v-23q0 -7 -9.5 -26t-14.5 -24q-104 -109 -151.5 -245t-52.5 -337q0 -22 -16 -34t-40 -12q-26 0 -41 14.5t-14 38.5q7 131 58.5 246t156.5 237q28 32 14 74t-55 42h-236q-20 0 -34.5 14.5t-14.5 34.5z
" />
    <glyph glyph-name="eight" unicode="8" horiz-adv-x="629" 
d="M186 556q0 -69 33 -109t100 -40q62 0 97.5 37t35.5 112q0 88 -34 139.5t-99 51.5q-61 0 -97 -49t-36 -142zM93 564v-1q0 95 60.5 144.5t165.5 49.5q109 0 167.5 -52.5t58.5 -142.5q0 -119 -123 -154q-3 -1 -5 -5t-1.5 -8.5t2.5 -4.5q78 -18 117 -67t39 -121
q0 -106 -68 -159t-187 -53q-128 0 -191.5 56.5t-63.5 155.5q0 144 144 186q5 1 6.5 10.5t-3.5 11.5q-118 36 -118 154zM173 209q0 -97 36.5 -152.5t109.5 -55.5q68 0 107 52t39 157q0 85 -36.5 133t-109.5 48q-69 0 -107.5 -45t-38.5 -137z" />
    <glyph glyph-name="nine" unicode="9" horiz-adv-x="591" 
d="M289 275h1q-107 0 -173 63.5t-66 166.5q0 114 69 184t182 70q266 0 266 -379q0 -179 -67.5 -284t-195.5 -105q-75 0 -133.5 36t-79.5 96q-2 7 4 10q1 2 3.5 1t3.5 -3q20 -58 75.5 -93t126.5 -35q73 0 113.5 88t44.5 241q0 5 -5.5 9t-8.5 0q-52 -66 -160 -66zM292 287
q60 0 105.5 23t62.5 63q3 9 3 27q-9 347 -161 347q-64 0 -103 -66.5t-39 -175.5q0 -98 36.5 -158t95.5 -60z" />
    <glyph glyph-name="colon" unicode=":" horiz-adv-x="199" 
d="M100 421q-21 0 -35.5 14.5t-14.5 35.5q0 20 14.5 34.5t35.5 14.5q20 0 34.5 -14.5t14.5 -34.5q0 -21 -14.5 -35.5t-34.5 -14.5zM100 0q-21 0 -35.5 14.5t-14.5 35.5q0 20 14.5 34.5t35.5 14.5q20 0 34.5 -14.5t14.5 -34.5q0 -21 -14.5 -35.5t-34.5 -14.5z" />
    <glyph glyph-name="semicolon" unicode=";" horiz-adv-x="199" 
d="M100 421q-21 0 -35.5 14.5t-14.5 35.5q0 20 14.5 34.5t35.5 14.5q20 0 34.5 -14.5t14.5 -34.5q0 -21 -14.5 -35.5t-34.5 -14.5zM50 50q0 20 14.5 34.5t35.5 14.5q20 0 34.5 -14.5t14.5 -34.5v-50q0 -51 -17 -76.5t-57 -30.5q-25 -2 -25 23v10q0 11 13 16q21 5 25 38
q2 20 -18 20q-8 0 -14 6t-6 14v30z" />
    <glyph glyph-name="less" unicode="&#x3c;" horiz-adv-x="555" 
d="M460 474q13 6 24 -1.5t11 -21.5t-11 -30.5t-24 -22.5l-197 -81q-40 -17 -40 -57.5t40 -56.5l197 -81q13 -6 24 -22.5t11 -30.5t-11 -21.5t-24 -1.5l-384 166q-12 5 -21.5 20t-9.5 28t9.5 28t21.5 20z" />
    <glyph glyph-name="equal" unicode="=" horiz-adv-x="604" 
d="M39 165q0 11 8.5 19.5t19.5 8.5h459q11 0 19.5 -8.5t8.5 -19.5t-8.5 -19.5t-19.5 -8.5h-459q-11 0 -19.5 8.5t-8.5 19.5zM39 365q0 11 8.5 19.5t19.5 8.5h459q11 0 19.5 -8.5t8.5 -19.5t-8.5 -19.5t-19.5 -8.5h-459q-11 0 -19.5 8.5t-8.5 19.5z" />
    <glyph glyph-name="greater" unicode="&#x3e;" horiz-adv-x="555" 
d="M292 203q40 16 40 56.5t-40 57.5l-197 81q-13 6 -24 22.5t-11 30.5t11 21.5t24 1.5l384 -166q12 -5 21.5 -20t9.5 -28t-9.5 -28t-21.5 -20l-384 -166q-13 -6 -24 1.5t-11 21.5t11 30.5t24 22.5z" />
    <glyph glyph-name="question" unicode="?" horiz-adv-x="565" 
d="M274 0q-21 0 -35.5 14.5t-14.5 35.5q0 20 14.5 34.5t35.5 14.5h1q20 0 34.5 -14.5t14.5 -34.5q0 -21 -14.5 -35.5t-34.5 -14.5h-1zM65 551q-49 8 -36 51q22 72 89 114.5t162 42.5q106 0 170.5 -56t64.5 -148q0 -66 -26.5 -108.5t-87.5 -74.5q-46 -24 -63 -49.5t-20 -77.5
q-1 -17 -14 -30t-30 -13q-19 0 -31.5 11t-11.5 29q2 84 23.5 120.5t83.5 69.5q44 23 63 51.5t19 71.5q0 60 -38.5 96.5t-101.5 36.5q-58 0 -101 -27.5t-60 -74.5q-5 -13 -22.5 -25t-30.5 -10h-1z" />
    <glyph glyph-name="at" unicode="@" horiz-adv-x="1202" 
d="M1018 -132q1 1 4.5 1.5t4.5 -0.5q3 -3 2 -3q-74 -52 -186 -83.5t-221 -31.5q-254 0 -409.5 142.5t-155.5 375.5t154 375.5t407 142.5q238 0 383 -118t145 -312q0 -161 -67 -260t-176 -99q-66 0 -110 33.5t-58 91.5q-2 5 -11.5 4.5t-11.5 -5.5q-25 -50 -68 -77.5
t-97 -27.5q-112 0 -172.5 69.5t-46.5 182.5q13 109 88.5 175t185.5 66q107 0 133 -121q0 -2 2.5 -3t4.5 -0.5t2 2.5q11 111 23 111h73l2 -1l1 -3l2 -1q-8 -16 -15.5 -87.5t-11.5 -134.5l-3 -64q-11 -91 15 -146.5t79 -55.5q77 0 123.5 96.5t46.5 254.5q0 190 -126.5 305.5
t-333.5 115.5q-222 0 -357.5 -140t-135.5 -369t137 -369t360 -140q105 0 213 29.5t182 78.5zM737 301q1 4 1 5q-3 192 -138 192q-68 0 -117.5 -63t-62.5 -166q-13 -108 22.5 -174t105.5 -66q73 0 123 49.5t60 129.5q2 42 6 93z" />
    <glyph glyph-name="A" unicode="A" horiz-adv-x="748" 
d="M313 700h1l9 25l5 13q6 12 18 12h56q16 0 33.5 -12t23.5 -27l259 -660q8 -20 -2.5 -35.5t-31.5 -15.5h-42q-12 0 -18 13l-5 12l-6 17l-66 167q-6 15 -23.5 27t-33.5 12h-295q-16 0 -33.5 -12t-23.5 -27l-66 -167l-6 -17l-7 -18q-5 -7 -11 -7q-3 0 -4.5 2.5t-0.5 4.5z
M191 344q-13 -32 4.5 -58t52.5 -26h190q35 0 52.5 26t4.5 58l-95 245q-16 41 -57 41t-57 -41z" />
    <glyph glyph-name="B" unicode="B" horiz-adv-x="693" 
d="M483 425q-3 -1 -2.5 -8.5t3.5 -8.5q81 -16 127.5 -66.5t46.5 -123.5q0 -118 -63 -168t-212 -50h-228q-25 0 -43 18t-18 43v628q0 25 18 43t43 18h190q149 0 212 -45.5t63 -152.5q0 -45 -36.5 -78t-100.5 -49zM195 480q0 -26 18.5 -44t43.5 -18l103 1q70 0 112.5 34.5
t42.5 90.5q0 105 -39 149.5t-130 44.5h-90q-25 0 -43 -18t-18 -43v-197zM195 73q0 -25 18 -43t43 -18h123q91 0 130 50t39 167q0 80 -40 129t-105 49h-147q-25 0 -43 -18t-18 -43v-273z" />
    <glyph glyph-name="C" unicode="C" horiz-adv-x="701" 
d="M666 172q5 7 10 4q5 -5 1 -13q-37 -78 -107.5 -125t-150.5 -47q-158 0 -259 112.5t-101 271.5t101 271.5t259 112.5q70 0 140.5 -47t116.5 -125q6 -8 0 -12q-5 -5 -11 3q-46 76 -113.5 122.5t-132.5 46.5q-111 0 -181 -108.5t-70 -263.5t70 -263.5t181 -108.5
q75 0 143 46.5t104 122.5z" />
    <glyph glyph-name="D" unicode="D" horiz-adv-x="765" 
d="M350 0h-195q-25 0 -43 18t-18 43v628q0 25 18 43t43 18h165q193 0 291.5 -94.5t98.5 -280.5q0 -191 -88.5 -283t-271.5 -92zM195 73q0 -25 18 -43t43 -18h93q128 0 190 89t62 274q0 363 -280 363h-65q-25 0 -43 -18t-18 -43v-604z" />
    <glyph glyph-name="E" unicode="E" horiz-adv-x="620" 
d="M564 12q6 0 6 -6t-6 -6h-409q-25 0 -43 18t-18 43v628q0 25 18 43t43 18h394q6 0 6 -6t-6 -6h-293q-25 0 -43 -18t-18 -43v-223q0 -25 18 -43t43 -18h273q6 0 6 -6t-6 -6h-273q-25 0 -43 -18t-18 -43v-247q0 -25 18 -43t43 -18h308z" />
    <glyph glyph-name="F" unicode="F" horiz-adv-x="585" 
d="M519 393q6 0 6 -6t-6 -6h-263q-25 0 -43 -18t-18 -43v-269q0 -21 -15 -36t-35 -15q-21 0 -36 15t-15 36v638q0 25 18 43t43 18h394q6 0 6 -6t-6 -6h-293q-25 0 -43 -18t-18 -43v-223q0 -25 18 -43t43 -18h263z" />
    <glyph glyph-name="G" unicode="G" horiz-adv-x="752" 
d="M468 398q-6 0 -6 6q-2 6 5 6h178q25 0 43 -18t18 -43v-216q0 -10 -8.5 -26.5t-16.5 -22.5q-122 -93 -238 -93q-173 0 -279 105.5t-106 278.5t106 278.5t279 105.5q36 0 73.5 -17.5t64.5 -42.5t49 -50.5t33 -42.5l11 -18l3 -4q4 -6 -1 -8l-1 -1q-5 -5 -11 3
q-45 76 -105.5 122.5t-114.5 46.5q-124 0 -200 -102.5t-76 -269.5t76 -269.5t200 -102.5q104 0 224 90q8 6 16 21.5t8 26.5v196q0 25 -18 43t-43 18h-163z" />
    <glyph glyph-name="H" unicode="H" horiz-adv-x="751" 
d="M666 50q0 -20 -15 -35t-35 -15q-21 0 -36 15t-15 36v277q0 25 -18 43t-43 18h-248q-25 0 -43 -18t-18 -43v-277q0 -21 -15 -36t-35 -15q-21 0 -36 15t-15 36v649q0 20 15 35t36 15q20 0 35 -15t15 -35v-238q0 -25 18 -43t43 -18h248q25 0 43 18t18 43v238q0 20 15 35
t36 15q20 0 35 -15t15 -35v-650z" />
    <glyph glyph-name="I" unicode="I" horiz-adv-x="274" 
d="M189 51q0 -21 -15 -36t-36 -15t-36 15t-15 36v648q0 21 15 36t36 15t36 -15t15 -36v-648z" />
    <glyph glyph-name="J" unicode="J" horiz-adv-x="538" 
d="M56 250q0 13 9 23.5t22 12.5l45 8q10 1 17.5 -5t7.5 -16v-26q0 -125 23.5 -183.5t74.5 -58.5q47 0 72 58t25 157v480q0 20 15 35t36 15q20 0 35 -15t15 -35v-480q0 -105 -51 -167t-147 -62q-103 0 -151 54.5t-48 172.5v32z" />
    <glyph glyph-name="K" unicode="K" horiz-adv-x="655" 
d="M640 8q2 -3 0.5 -5.5t-5.5 -2.5h-77q-12 0 -29 9.5t-24 19.5l-188 310q-13 22 -37.5 24.5t-41.5 -17.5l-29 -34q-4 -5 -9.5 -19.5t-5.5 -20.5v-221q0 -21 -15 -36t-35 -15q-21 0 -36 15t-15 36v649q0 20 15 35t36 15q20 0 35 -15t15 -35v-220q0 -44 39.5 -59t68.5 19
l226 262q21 28 41 48h10q2 0 3 -2.5t0 -4.5l-30 -34l-4 -6l-4 -6l-161 -184q-11 -14 -13 -35.5t7 -36.5l237 -391q11 -17 26 -42z" />
    <glyph glyph-name="L" unicode="L" horiz-adv-x="544" 
d="M508 12q6 0 6 -6t-6 -6h-360q-25 0 -43 18t-18 43v638q0 21 15 36t36 15t36 -15t15 -36v-626q0 -25 18 -43t43 -18h258z" />
    <glyph glyph-name="M" unicode="M" horiz-adv-x="816" 
d="M130 8q0 -8 -7 -8q-8 0 -8 8v690q0 22 15 37t37 15h5q19 0 37 -13.5t22 -31.5l129 -467q8 -29 34 -40.5t51.5 -0.5t33.5 40l131 468q5 18 23 31.5t37 13.5h7q23 0 38.5 -16t15.5 -38v-646q0 -21 -14.5 -35.5t-34.5 -14.5q-21 0 -35.5 14.5t-14.5 35.5v316
q0 26 -21.5 39.5t-46 6.5t-31.5 -32l-95 -337q-4 -17 -21.5 -30t-35.5 -13t-35.5 13t-21.5 30l-95 335q-7 25 -31.5 32t-46 -6t-21.5 -39v-357z" />
    <glyph glyph-name="N" unicode="N" horiz-adv-x="663" 
d="M130 8q0 -8 -7 -8q-8 0 -8 8v686q0 23 16.5 39.5t40.5 16.5h16q15 0 32.5 -11t23.5 -25l202 -442q13 -28 41.5 -34t52 11.5t23.5 48.5v445q0 7 8 7q7 0 7 -7v-682q0 -25 -17.5 -43t-42.5 -18h-21q-15 0 -32.5 11t-23.5 25l-194 424q-13 28 -41.5 34t-52 -11.5
t-23.5 -48.5v-426z" />
    <glyph glyph-name="O" unicode="O" horiz-adv-x="814" 
d="M173 375q0 -167 66 -269.5t173 -102.5t172.5 102.5t65.5 269.5q0 159 -68 265.5t-170 106.5t-170.5 -106.5t-68.5 -265.5zM64 375q0 164 99.5 274t248.5 110q148 0 247.5 -110t99.5 -274q0 -173 -95.5 -278.5t-251.5 -105.5q-157 0 -252.5 105.5t-95.5 278.5z" />
    <glyph glyph-name="P" unicode="P" horiz-adv-x="624" 
d="M195 51q0 -21 -15 -36t-35 -15q-21 0 -36 15t-15 36v638q0 25 18 43t43 18h198q236 0 236 -225q0 -202 -236 -202h-97q-25 0 -43 -18t-18 -43v-211zM195 396q0 -25 18 -43t43 -18h98q134 0 134 190q0 213 -136 213h-96q-25 0 -43 -18t-18 -43v-281z" />
    <glyph glyph-name="Q" unicode="Q" horiz-adv-x="814" 
d="M173 375q0 -167 66 -269.5t173 -102.5q42 0 77 16q6 2 7 7.5t-4 10.5l-52 47q-4 4 0 9q4 4 9 -1q28 -25 61 -42q17 -10 27 0q54 46 83.5 130.5t29.5 194.5q0 159 -68 265.5t-170 106.5t-170.5 -106.5t-68.5 -265.5zM64 375q0 164 99.5 274t247.5 110t247.5 -110
t99.5 -274q0 -112 -42 -198.5t-118 -134.5q-11 -7 -10 -19t12 -16q27 -11 102 -36q10 -3 -4 -12q-1 0 -3 -1q-12 -8 -17 -13l-12 -12l-21 -23q-43 32 -105 85q-4 4 -16 6.5t-18 1.5q-44 -12 -94 -12q-157 0 -252.5 105.5t-95.5 278.5z" />
    <glyph glyph-name="R" unicode="R" horiz-adv-x="624" 
d="M532 0q-14 0 -31 10.5t-23 22.5l-137 255q-10 20 0 36t32 16h21q14 0 31 -10.5t23 -22.5l142 -265q8 -14 22 -42q2 -3 -1 -4q-1 0 -7 2q-8 2 -12 2h-60zM195 51q0 -21 -15 -36t-35 -15q-21 0 -36 15t-15 36v638q0 25 18 43t43 18h198q236 0 236 -225q0 -182 -236 -182
h-97q-25 0 -43 -18t-18 -43v-231zM195 416q0 -25 18 -43t43 -18h97q135 0 135 170q0 213 -136 213h-96q-25 0 -43 -18t-18 -43v-261z" />
    <glyph glyph-name="S" unicode="S" horiz-adv-x="598" 
d="M512 617q7 -7 2 -11q-6 -6 -12 2q-62 66 -125 101.5t-114 35.5t-82.5 -51.5t-31.5 -136.5q0 -91 165 -120q249 -44 249 -227q0 -101 -59.5 -160t-171.5 -59q-82 0 -153 46t-114 132q-4 8 0 12l3 2l3 2l3 2q41 -89 109.5 -136t148.5 -47q63 0 96.5 54.5t33.5 147.5
q0 99 -176 129q-242 42 -242 211q0 96 60.5 154.5t158.5 58.5q55 0 120 -36.5t129 -105.5z" />
    <glyph glyph-name="T" unicode="T" horiz-adv-x="595" 
d="M579 750q6 0 6 -6t-6 -6h-170q-25 0 -43 -18t-18 -43v-626q0 -21 -15 -36t-35 -15q-21 0 -36 15t-15 36v626q0 25 -18 43t-43 18h-170q-6 0 -6 6t6 6h563z" />
    <glyph glyph-name="U" unicode="U" horiz-adv-x="683" 
d="M588 743q0 7 8 7q7 0 7 -7v-449q0 -150 -65 -226.5t-193 -76.5t-193 76t-65 224v409q0 20 15 35t36 15q20 0 35 -15t15 -35v-392q0 -303 157 -303q120 0 181.5 73.5t61.5 218.5v446z" />
    <glyph glyph-name="V" unicode="V" horiz-adv-x="615" 
d="M555 750l7 1q7 0 5 -7l-12 -41l-200 -658q-5 -17 -22.5 -30.5t-36.5 -13.5h-4q-18 0 -35.5 13t-22.5 30l-201 659l-7 23q-3 9 2 16.5t15 7.5l76 1q7 0 11 -8l2 -8l146 -510q13 -45 58 -45.5t59 44.5l144 476l2 4q2 10 14 46z" />
    <glyph glyph-name="W" unicode="W" horiz-adv-x="815" 
d="M774 702l1 -2q-61 -324 -120 -648q-4 -20 -21.5 -36t-37.5 -16t-37 14t-21 34l-65 345q-4 23 -22 35.5t-38 12.5t-38 -12.5t-23 -35.5l-65 -345q-4 -20 -21 -34t-37 -14t-37 14t-21 34l-120 654l-4 24q-2 10 4 17t16 7h32q21 0 39 -15t22 -36l54 -322q5 -31 32.5 -43.5
t55 -0.5t33.5 43l62 326q4 20 21 34t37 14t37 -14t21 -34l64 -338q4 -23 22 -35.5t38.5 -12.5t38 12.5t21.5 35.5l62 338l3 23l3 17q2 8 10 8q7 0 7 -8z" />
    <glyph glyph-name="X" unicode="X" horiz-adv-x="671" 
d="M103 50h1q-27 -35 -36 -47q-3 -3 -6 -3h-4q-3 0 -4.5 2.5t0.5 4.5l237 314q9 12 9 35t-8 37q-30 51 -88 153.5t-88 153.5q-10 16 -2.5 33t26.5 17h52l29 -50l108 -187q17 -31 49 -33t53 26l146 194q27 35 36 47q3 3 6 3h5q2 0 3 -2.5t0 -4.5l-220 -291q-10 -13 -12 -32
t5 -32q182 -315 200 -346q9 -16 -0.5 -29t-28.5 -13h-24q-11 0 -25 8t-18 17l-15 25l-121 210q-17 30 -49 32t-53 -26z" />
    <glyph glyph-name="Y" unicode="Y" horiz-adv-x="632" 
d="M580 743q5 7 12 7l2 -1h6q-5 -10 -14 -25q-33 -57 -98.5 -171.5t-97.5 -171.5q-2 -2 -6.5 -16.5t-4.5 -17.5v-297q0 -21 -15 -36t-36 -15t-36 15t-15 36v263q0 15 -6 27q-41 70 -116 200.5t-96 167.5q-9 16 -0.5 29t27.5 13h22q11 0 25 -8t19 -17l14 -25l185 -324
q2 -6 10 -6t10 6z" />
    <glyph glyph-name="Z" unicode="Z" horiz-adv-x="655" 
d="M604 12q6 0 6 -6t-6 -6h-553q-6 0 -6 6q0 8 3 11l391 627q20 33 3 63.5t-56 30.5h-320q-6 0 -6 6t6 6h538q6 0 6 -6q0 -8 -3 -11l-391 -627q-20 -33 -3 -63.5t56 -30.5h335z" />
    <glyph glyph-name="bracketleft" unicode="[" horiz-adv-x="349" 
d="M250 698q-25 0 -43 -18t-18 -43v-639q0 -25 18 -43t43 -18h43q11 0 18.5 -7.5t7.5 -18.5t-7.5 -18.5t-18.5 -7.5h-103q-25 0 -43 18t-18 43v743q0 25 18 43t43 18h103q11 0 18.5 -8t7.5 -18t-7.5 -18t-18.5 -8h-43z" />
    <glyph glyph-name="backslash" unicode="\" horiz-adv-x="330" 
d="M310 0q-19 0 -27 19l-276 712q-3 7 1 13t12 6q19 0 27 -19l276 -712q3 -7 -1 -13t-12 -6z" />
    <glyph glyph-name="bracketright" unicode="]" horiz-adv-x="345" 
d="M160 637q0 25 -18 43t-43 18h-43q-10 0 -18 8t-8 18t8 18t18 8h103q25 0 43 -18t18 -43v-743q0 -25 -18 -43t-43 -18h-103q-10 0 -18 7.5t-8 18.5t8 18.5t18 7.5h43q25 0 43 18t18 43v639z" />
    <glyph glyph-name="asciicircum" unicode="^" horiz-adv-x="340" 
d="M181 676q-5 2 -9 1.5t-4.5 -1t-7.5 -6.5l-59 -54q-5 -5 -20 -10.5t-22 -5.5h-17q-14 0 -19 11t3 21l80 96q5 7 21.5 14.5t25.5 7.5h34q9 0 25.5 -7.5t21.5 -14.5l80 -96q8 -10 3 -21t-18 -11h-12h-3h-4h-3h-3h-3h-4h-3h-7q-47 60 -76 76z" />
    <glyph glyph-name="underscore" unicode="_" horiz-adv-x="680" 
d="M78 -128q-11 0 -19.5 8.5t-8.5 19.5t8.5 19.5t19.5 8.5h524q11 0 19.5 -8.5t8.5 -19.5t-8.5 -19.5t-19.5 -8.5h-524z" />
    <glyph glyph-name="grave" unicode="`" horiz-adv-x="340" 
d="M162 600q-12 0 -29 9.5t-23 19.5l-43 70q-11 18 -2 34.5t30 16.5h18q16 0 33.5 -12t23.5 -28l27 -71q6 -15 -2.5 -27t-24.5 -12h-8z" />
    <glyph glyph-name="a" unicode="a" 
d="M84 381q-6 2 -4 9q22 63 76 101t121 38q198 0 198 -185v-257q0 -12 4 -15.5t20 -4.5q8 0 14.5 -6.5t6.5 -14.5v-12q0 -14 -11 -24t-25 -10q-70 1 -85 14.5t-15 72.5v20l-5 -3q-28 -113 -154 -113q-179 0 -179 103q0 67 49 107.5t129 40.5q78 0 119 31.5t41 109.5
q0 135 -107 135q-62 0 -112.5 -36.5t-72.5 -96.5q-2 -6 -8 -4zM384 287q0 4 -6 5.5t-7 -2.5q-34 -57 -139 -57q-43 0 -69 -37.5t-26 -98.5q0 -97 93 -97q70 0 109 36.5t45 125.5v125z" />
    <glyph glyph-name="b" unicode="b" horiz-adv-x="599" 
d="M167 46q0 -19 -13 -32.5t-32 -13.5q-20 0 -33 13t-13 33v659q0 19 13.5 32t32.5 13t32 -13t13 -32v-297q0 -4 6.5 -6t8.5 2q45 125 173 125q87 0 140.5 -74t53.5 -195t-53.5 -195t-140.5 -74q-128 0 -173 125q-2 4 -8.5 2t-6.5 -6v-66zM167 260q0 -123 47.5 -184
t130.5 -61q47 0 76 67.5t29 177.5q0 116 -27.5 187t-72.5 71q-86 0 -134.5 -64.5t-48.5 -193.5z" />
    <glyph glyph-name="c" unicode="c" horiz-adv-x="537" 
d="M493 134q2 5 8 3q6 -4 4 -10q-25 -62 -74 -99t-106 -37q-126 0 -197.5 67t-71.5 202t71.5 202t197.5 67q101 0 179 -153q2 -7 -3 -9q-6 -4 -9 4q-75 147 -167 147q-79 0 -124.5 -64.5t-45.5 -193.5t45.5 -193.5t124.5 -64.5q53 0 99 36t69 96z" />
    <glyph glyph-name="d" unicode="d" horiz-adv-x="616" 
d="M155 260q0 -116 29.5 -187t78.5 -71q86 0 139 71t53 187t-53 187t-139 71q-49 0 -78.5 -71t-29.5 -187zM56 260q0 121 55.5 195t146.5 74q63 0 110 -37.5t71 -104.5q1 -3 8 -2.5t7 4.5v316q0 19 13.5 32t32.5 13t32 -13t13 -32v-659q0 -19 -13 -32.5t-32 -13.5
q-20 0 -33 13t-13 33v85q0 4 -7 4.5t-8 -2.5q-24 -67 -71 -104.5t-110 -37.5q-91 0 -146.5 74t-55.5 195z" />
    <glyph glyph-name="e" unicode="e" horiz-adv-x="543" 
d="M498 133q2 6 9 4q6 -4 4 -9q-20 -62 -81.5 -99.5t-144.5 -37.5q-107 0 -168 67t-61 202t62.5 202t172.5 67q207 0 232 -219q3 -28 -13.5 -44t-44.5 -16h-248q-28 0 -44.5 -16.5t-14.5 -43.5q9 -94 42 -141t85 -47q78 0 136.5 36t76.5 95zM373 260q28 0 44.5 19t13.5 47
q-18 192 -140 192q-56 0 -90.5 -48.5t-43.5 -147.5q-2 -27 15 -44.5t44 -17.5h157z" />
    <glyph glyph-name="f" unicode="f" horiz-adv-x="392" 
d="M317 750q5 0 5 -5q0 -6 -5 -6h-86q-24 0 -24 -110v-54q0 -23 16 -39t39 -16h55q5 0 5 -5q0 -6 -5 -6h-52q-24 0 -41 -17t-17 -40v-406q0 -19 -13 -32.5t-32 -13.5q-20 0 -33 13t-13 33v420q0 18 -12.5 30.5t-30.5 12.5h-37q-6 0 -6 6q0 5 6 5h37q18 0 30.5 12.5
t12.5 30.5v66q0 65 25.5 93t85.5 28h90z" />
    <glyph glyph-name="g" unicode="g" horiz-adv-x="606" 
d="M78 -97q-2 8 7 8q6 0 8 -6q11 -54 210 -54q142 0 142 149v135q0 4 -6.5 4.5t-8.5 -2.5q-23 -64 -69 -100.5t-108 -36.5q-197 0 -197 260q0 269 197 269q62 0 108 -37.5t69 -104.5q2 -4 8.5 -3t6.5 5v86q0 19 13.5 32t32.5 13t32 -13t13 -32v-436q0 -200 -231 -200
q-216 0 -227 64zM155 260q0 -249 103 -249q84 0 135.5 68.5t51.5 180.5q0 116 -51.5 187t-135.5 71q-103 0 -103 -258z" />
    <glyph glyph-name="h" unicode="h" horiz-adv-x="549" 
d="M479 46q0 -19 -13.5 -32.5t-32.5 -14.5q-19 0 -32.5 13.5t-13.5 32.5v269q0 95 -15.5 146t-41.5 51q-74 0 -119 -50t-45 -132v-284q0 -19 -13 -32.5t-32 -13.5t-32.5 13.5t-13.5 32.5v659q0 19 13.5 32t32.5 13t32 -13t13 -32v-278q0 -4 6 -4.5t8 2.5q20 48 61 74.5
t95 26.5q66 0 104.5 -54t38.5 -156v-269z" />
    <glyph glyph-name="i" unicode="i" horiz-adv-x="243" 
d="M127 600q-21 0 -35.5 14.5t-14.5 35.5q0 20 14.5 34.5t35.5 14.5q20 0 34.5 -14.5t14.5 -34.5q0 -21 -14.5 -35.5t-34.5 -14.5zM173 46q0 -19 -13.5 -32.5t-32.5 -13.5t-32.5 13.5t-13.5 32.5v428q0 19 13.5 32.5t32.5 13.5t32.5 -13.5t13.5 -32.5v-428z" />
    <glyph glyph-name="j" unicode="j" horiz-adv-x="243" 
d="M127 600q-21 0 -35.5 14.5t-14.5 35.5q0 20 14.5 34.5t35.5 14.5q20 0 34.5 -14.5t14.5 -34.5q0 -21 -14.5 -35.5t-34.5 -14.5zM-4 -81q0 6 6 6h29q6 0 11.5 2.5t10 6.5t8 9.5t6.5 11.5t5 12l4 12t3 10t1 7l1 4v4v470q0 19 13.5 32.5t32.5 13.5t32.5 -13.5t13.5 -32.5
v-464v-9v-1q-1 -3 -4 -9t-14 -21t-25 -26t-39.5 -20.5t-55.5 -9.5h-33q-6 0 -6 5z" />
    <glyph glyph-name="k" unicode="k" horiz-adv-x="518" 
d="M439 514q6 6 14 6l1 -1h7q-9 -10 -24 -25l-110 -113q-13 -13 -16 -36t7 -39l161 -261l14 -20l8 -12q2 -5 -0.5 -9t-7.5 -4h-60q-12 0 -29 9.5t-23 19.5l-135 213q-9 14 -24 15.5t-26 -10.5l-11 -11q-5 -5 -11.5 -20.5t-6.5 -22.5v-147q0 -19 -13 -32.5t-32 -13.5
q-20 0 -33 13t-13 33v659q0 19 13.5 32t32.5 13t32 -13t13 -32v-319q0 -43 37.5 -58.5t67.5 15.5l124 127l12 12z" />
    <glyph glyph-name="l" unicode="l" horiz-adv-x="243" 
d="M173 46q0 -19 -13.5 -32.5t-32.5 -13.5t-32.5 13.5t-13.5 32.5v658q0 19 13.5 32.5t32.5 13.5t32.5 -13.5t13.5 -32.5v-658z" />
    <glyph glyph-name="m" unicode="m" horiz-adv-x="821" 
d="M756 45q0 -19 -13 -32t-32 -13t-32.5 13t-13.5 33v269q0 95 -12.5 146t-34.5 51q-68 0 -109.5 -50t-41.5 -132v-15v-269q0 -19 -13.5 -32.5t-32.5 -13.5t-32.5 13.5t-13.5 32.5v269q0 197 -51 197q-71 0 -114 -50t-43 -132v-284q0 -19 -13 -32.5t-32 -13.5q-20 0 -33 13
t-13 33v429q0 19 13.5 32t32.5 13t32 -13t13 -32v-48q0 -3 5.5 -4t7.5 3q20 47 59 73t91 26q45 0 77 -28t47 -81q2 -4 10.5 -5t10.5 3q17 52 56 81.5t93 29.5q61 0 96.5 -54t35.5 -156v-270z" />
    <glyph glyph-name="n" unicode="n" horiz-adv-x="544" 
d="M479 46q0 -19 -13.5 -32.5t-32.5 -14.5q-19 0 -32.5 13.5t-13.5 32.5v269q0 95 -15.5 146t-41.5 51q-74 0 -119 -50t-45 -132v-284q0 -19 -13 -32.5t-32 -13.5t-32.5 13.5t-13.5 32.5v429q0 19 13.5 32t32.5 13t32 -13t13 -32v-48q0 -4 6 -4.5t8 2.5q20 48 61 74.5
t95 26.5q66 0 104.5 -54t38.5 -156v-269z" />
    <glyph glyph-name="o" unicode="o" horiz-adv-x="590" 
d="M155 260q0 -121 35.5 -190t107.5 -69q67 0 105 64.5t38 194.5q0 121 -35.5 190t-107.5 69q-67 0 -105 -64.5t-38 -194.5zM56 260q0 135 64.5 202t177.5 67q121 0 181.5 -72t60.5 -197q0 -135 -64.5 -202t-177.5 -67q-121 0 -181.5 72t-60.5 197z" />
    <glyph glyph-name="p" unicode="p" horiz-adv-x="599" 
d="M167 -110q0 -19 -13 -32t-32 -13t-32.5 13t-13.5 32v585q0 19 13.5 32t32.5 13t32 -13t13 -32v-67q0 -4 6.5 -6t8.5 2q45 125 173 125q87 0 140.5 -74t53.5 -195t-53.5 -195t-140.5 -74q-128 0 -173 125q-2 4 -8.5 2t-6.5 -6v-222zM167 260q0 -129 48.5 -193.5
t134.5 -64.5q45 0 72.5 71t27.5 187t-27.5 187t-72.5 71q-86 0 -134.5 -64.5t-48.5 -193.5z" />
    <glyph glyph-name="q" unicode="q" horiz-adv-x="616" 
d="M155 260q0 -116 29.5 -187t78.5 -71q86 0 139 71t53 187t-53 187t-139 71q-49 0 -78.5 -71t-29.5 -187zM56 260q0 121 55.5 195t146.5 74q63 0 110 -37.5t71 -104.5q1 -3 8 -2.5t7 4.5v86q0 19 13.5 32t32.5 13t32 -13t13 -32v-585q0 -19 -13 -32t-32 -13t-32.5 13
t-13.5 32v241q0 4 -7 4.5t-8 -2.5q-24 -67 -71 -104.5t-110 -37.5q-91 0 -146.5 74t-55.5 195z" />
    <glyph glyph-name="r" unicode="r" horiz-adv-x="370" 
d="M350 511q0 -6 -5 -6h-6q-172 0 -172 -265v-194q0 -19 -13 -32.5t-32 -13.5q-20 0 -33 13t-13 33v429q0 19 13.5 32t32.5 13t32 -13t13 -32v-90q0 -3 5 -3.5t6 2.5q38 136 162 136h5q5 0 5 -5v-4z" />
    <glyph glyph-name="s" unicode="s" horiz-adv-x="519" 
d="M55 127l-1 1q0 2 -3 6t-3 5l3 2l6 2l3 1q24 -62 83.5 -100t132.5 -38q54 0 87 35t33 93q0 33 -35.5 55.5t-102.5 29.5q-95 10 -145.5 52.5t-50.5 106.5q0 66 54.5 106.5t143.5 40.5q57 0 109.5 -37t83.5 -99l3 -6q3 -5 -2 -7q-7 -4 -9 3q-29 61 -79 98t-104 37
q-50 0 -80.5 -35t-30.5 -93q0 -33 33.5 -55.5t96.5 -29.5q101 -10 154.5 -52.5t53.5 -106.5q0 -66 -58 -106t-153 -40q-74 0 -134.5 36t-88.5 95z" />
    <glyph glyph-name="t" unicode="t" horiz-adv-x="345" 
d="M310 520q5 0 5 -5q0 -6 -5 -6h-56q-26 0 -43.5 -17.5t-17.5 -43.5v-306q0 -80 3.5 -105.5t17.5 -25.5h96q5 0 5 -5q0 -6 -5 -6h-101q-73 0 -90 27.5t-17 114.5v321q0 19 -13.5 32.5t-32.5 13.5h-40q-6 0 -6 6q0 5 6 5h40q19 0 32.5 13.5t13.5 32.5v61q0 9 7.5 25t14.5 21
l24 21q14 12 29.5 4.5t15.5 -26.5v-91q0 -25 17.5 -43t43.5 -18h56z" />
    <glyph glyph-name="u" unicode="u" horiz-adv-x="538" 
d="M468 45q0 -19 -13 -32t-32 -13t-32 13t-13 32v26q0 3 -5 3.5t-6 -2.5q-17 -38 -51.5 -59.5t-79.5 -21.5q-93 0 -129 48t-36 151v285q0 19 13.5 32t32.5 13t32 -13t13 -32v-285q0 -97 17 -142t62 -45q61 0 98.5 40t37.5 105v327q0 19 13.5 32t32.5 13t32 -13t13 -32v-430z
" />
    <glyph glyph-name="v" unicode="v" horiz-adv-x="487" 
d="M124 520q7 0 8 -4l5 -15t6 -18.5t4 -12.5l82 -271q13 -44 57.5 -45t59.5 43l92 274l14 41q2 8 10 8q9 0 5 -8l-10 -30l-1 -2q-1 -3 -1 -4l-3 -6l-150 -431q-5 -15 -21.5 -27t-32.5 -12t-32.5 12t-21.5 27l-150 431l-3 6q0 1 -1 4l-1 2l-6 18q-3 8 1.5 14t13.5 6h76z" />
    <glyph glyph-name="w" unicode="w" horiz-adv-x="742" 
d="M579 37q-5 -15 -19 -26t-29 -11q-15 1 -29.5 12t-18.5 26l-60 231q-7 29 -33 40.5t-52 0t-33 -40.5l-61 -232q-4 -14 -17.5 -25t-28.5 -11q-16 0 -29.5 11t-17.5 25l-114 435l-6 24q-3 10 3 17.5t16 7.5h48q9 0 17.5 -6.5t10.5 -15.5l5 -23l1 -6l49 -226q5 -27 28.5 -38
t47 -1t30.5 36l62 241q4 15 19 26.5t31 11.5t30 -11.5t18 -26.5l59 -239q7 -28 32 -39t50 0t32 39l57 227l2 9l9 34q2 7 10 7q7 0 5 -7l-11 -42z" />
    <glyph glyph-name="x" unicode="x" horiz-adv-x="511" 
d="M60 6q-2 -4 -11 -7h-8q28 39 33 45l122 166q10 14 10.5 36t-9.5 36l-133 188l-3 4l-16 22q-5 8 -1.5 15.5t12.5 7.5l79 1q6 0 8 -4q4 -6 15.5 -22.5t14.5 -20.5l56 -79q19 -28 49.5 -28t50.5 27l56 77q-1 0 4 6l28 38q5 7 14 7h8q-28 -39 -33 -45l-94 -127
q-10 -15 -10 -36t10 -36l159 -226l3 -4l16 -22q5 -7 1.5 -15t-12.5 -8l-79 -1q-6 0 -8 4q-4 6 -15.5 22.5t-14.5 20.5l-84 118q-19 28 -49.5 28t-49.5 -27l-86 -116q1 0 -4 -6z" />
    <glyph glyph-name="y" unicode="y" horiz-adv-x="467" 
d="M247 -58l-2 1q-31 -84 -61 -114t-85 -30h-44q-6 0 -6 6t6 6h44q50 0 78 28t57 108l2 6v12l-203 506q-7 19 3 33.5t30 14.5h24q11 0 22 -7.5t15 -17.5l10 -25l90 -225q17 -41 58.5 -40t56.5 42l81 226l7 22l7 19q4 8 11 8q9 0 5 -8l-4 -12l-10 -31l-143 -394z" />
    <glyph glyph-name="z" unicode="z" horiz-adv-x="460" 
d="M390 129q0 3 3 3h44q3 0 3 -3t-3 -3h-44q-3 0 -3 3zM51 509q-6 0 -6 6q0 5 6 5h369q4 0 4 -4t-7 -4q-88 -3 -272 -3h-94zM30 4q0 7 2 7l266 466q6 10 22.5 20t27.5 11l22 1q19 1 27.5 -13t-0.5 -31l-249 -428q-3 -7 -14.5 -14.5t-18.5 -8.5q-2 -1 1 -2q1 -1 2 -1h313
q9 0 9 -5q0 -6 -5 -6h-401q-4 0 -4 4z" />
    <glyph glyph-name="braceleft" unicode="{" horiz-adv-x="334" 
d="M278 750q10 0 18 -8t8 -18q0 -11 -7.5 -19t-18.5 -8h-44q-20 0 -32.5 -16.5t-12.5 -44.5l-1 -229q0 -60 -34 -83q-2 -2 -2 -7t2 -7q34 -23 34 -83q1 -89 1 -229q0 -28 12.5 -44.5t32.5 -16.5h44q10 0 18 -7.5t8 -18.5t-8 -18.5t-18 -7.5h-44q-47 0 -76 31t-29 82v241
q0 47 -52 55q-8 2 -15 9.5t-7 14.5t7 14t15 9q52 8 52 55v241q0 51 29 82t76 31h44z" />
    <glyph glyph-name="bar" unicode="|" horiz-adv-x="150" 
d="M45 770q0 13 8.5 21.5t21.5 8.5t21.5 -8.5t8.5 -21.5v-990q0 -13 -8.5 -21.5t-21.5 -8.5t-21.5 8.5t-8.5 21.5v990z" />
    <glyph glyph-name="braceright" unicode="}" horiz-adv-x="334" 
d="M30 724q0 10 8 18t18 8l44 1q47 0 76 -31t29 -82v-241q0 -47 52 -55q8 -2 15 -9t7 -14t-7 -14.5t-15 -9.5q-52 -8 -52 -55v-241q0 -51 -29 -82t-76 -31h-44q-10 0 -18 8t-8 18t8 18t18 8h44q20 0 32.5 16.5t12.5 44.5l1 229q0 60 34 83q2 1 2 7t-2 7q-34 23 -34 83
q-1 -2 -1 49.5v179.5q0 28 -12.5 44.5t-32.5 16.5h-44q-10 0 -18 8t-8 18z" />
    <glyph glyph-name="asciitilde" unicode="~" horiz-adv-x="340" 
d="M91 281q-1 -8 -7.5 -14.5t-13.5 -6.5h-13q-16 0 -25 10t-7 25q11 86 63 100q17 5 20 -15v-9l1 -1q-2 28 -3 28q17 0 48 -19.5t48.5 -34.5t24.5 -22q2 -5 2.5 -2.5t3.5 4.5q13 8 16 44q1 8 7.5 14.5t13.5 6.5h14q15 0 24 -10t7 -25q-11 -79 -56 -98q-25 -11 -27 20l-2 11
l-3 35q5 -71 7 -71q-21 0 -63 38t-58 38q-19 0 -22 -46z" />
    <glyph glyph-name="nbspace" unicode="&#xa0;" horiz-adv-x="220" 
 />
    <glyph glyph-name="exclamdown" unicode="&#xa1;" horiz-adv-x="197" 
d="M49 701q0 20 14.5 34.5t35.5 14.5h1q20 0 34.5 -14.5t14.5 -34.5q0 -21 -14.5 -35.5t-34.5 -14.5h-1q-21 0 -35.5 14.5t-14.5 35.5zM99 0q-23 0 -38.5 16t-15.5 38v251l1 10l37 220q2 13 16 13q13 0 15 -13l37 -220l1 -10v-251q0 -22 -15.5 -38t-37.5 -16z" />
    <glyph glyph-name="cent" unicode="&#xa2;" horiz-adv-x="537" 
d="M295 564q0 13 9 22t22 10q12 1 21 -8t9 -22v-8q0 -9 9.5 -22.5t17.5 -18.5q65 -31 121 -141q4 -6 -3 -8q-5 -3 -9 3q-52 102 -113 134q-11 6 -17.5 0t-6.5 -20v-449q0 -15 9 -21t22 0q73 33 107 120q1 4 8 2q6 -4 4 -10q-35 -89 -116 -123q-10 -4 -22 -19t-12 -25v-5
q0 -13 -8.5 -21.5t-21.5 -8.5t-21.5 8.5t-8.5 21.5v3q0 13 -9.5 24.5t-22.5 13.5q-98 15 -152.5 81t-54.5 183t54.5 183t152.5 81q13 2 22.5 13.5t9.5 24.5v2zM254 20q20 -10 31 -1.5t11 30.5v426q0 22 -11 30.5t-31 -1.5q-98 -51 -98 -242t98 -242z" />
    <glyph glyph-name="guillemotleft" unicode="&#xab;" horiz-adv-x="535" 
d="M373 443q6 9 23 18t28 9h7q13 0 19 -11t-2 -22l-95 -143q-9 -13 -9 -34t9 -34l95 -143q8 -11 2 -22t-19 -11h-7q-11 0 -28 9t-23 18l-99 149q-9 13 -9 34t9 34zM197 443q6 9 23 18t28 9h7q14 0 19.5 -11t-1.5 -22l-95 -143q-9 -13 -9 -34t9 -34l95 -143q7 -11 1.5 -22
t-19.5 -11h-7q-11 0 -28 9t-23 18l-99 149q-9 13 -9 34t9 34z" />
    <glyph glyph-name="logicalnot" unicode="&#xac;" horiz-adv-x="414" 
d="M364 114q0 -7 -7 -7t-7 7v82q0 25 -18 43t-43 18h-233q-6 0 -6 6t6 6h247q25 0 43 -18t18 -43v-94z" />
    <glyph glyph-name="acute" unicode="&#xb4;" horiz-adv-x="340" 
d="M170 600q-16 0 -24.5 12t-2.5 27l27 71q6 16 23.5 28t33.5 12h18q21 0 30 -16.5t-2 -34.5l-43 -70q-6 -10 -23 -19.5t-29 -9.5h-8z" />
    <glyph glyph-name="periodcentered" unicode="&#xb7;" horiz-adv-x="199" 
d="M100 210q-21 0 -35.5 14.5t-14.5 35.5v1q0 20 14.5 34.5t35.5 14.5q20 0 34.5 -14.5t14.5 -34.5v-1q0 -21 -14.5 -35.5t-34.5 -14.5z" />
    <glyph glyph-name="guillemotright" unicode="&#xbb;" horiz-adv-x="517" 
d="M265 437q-7 11 -1.5 22t19.5 11h7q11 0 28 -9t23 -18l99 -149q9 -13 9 -34t-9 -34l-99 -149q-6 -9 -23 -18t-28 -9h-7q-14 0 -19.5 11t1.5 22l95 143q9 13 9 34t-9 34zM89 437q-7 11 -1.5 22t19.5 11h7q11 0 28 -9t23 -18l99 -149q9 -13 9 -34t-9 -34l-99 -149
q-6 -9 -23 -18t-28 -9h-7q-14 0 -19.5 11t1.5 22l95 143q9 13 9 34t-9 34z" />
    <glyph glyph-name="questiondown" unicode="&#xbf;" 
d="M242 750q20 0 34.5 -14.5t14.5 -34.5q0 -21 -14.5 -35.5t-34.5 -14.5h-1q-21 0 -35.5 14.5t-14.5 35.5q0 20 14.5 34.5t35.5 14.5h1zM450 199q49 -8 36 -51q-22 -72 -89 -114.5t-162 -42.5q-106 0 -170.5 56t-64.5 148q0 66 26.5 108.5t87.5 74.5q46 24 63 49.5t20 77.5
q1 17 14.5 30t30.5 13q18 0 30.5 -11t11.5 -29q-2 -84 -23.5 -120.5t-83.5 -69.5q-44 -23 -63 -51.5t-19 -71.5q0 -60 38.5 -96.5t101.5 -36.5q58 0 101 27.5t60 74.5q5 13 22.5 25t30.5 10h1z" />
    <glyph glyph-name="Agrave" unicode="&#xc0;" horiz-adv-x="748" 
d="M383 830q-12 0 -29 9.5t-23 19.5l-43 70q-11 18 -2 34.5t30 16.5h18q16 0 33.5 -12t23.5 -28l27 -71q6 -15 -2.5 -27t-24.5 -12h-8zM313 700h1l9 25l5 13q6 12 18 12h56q16 0 33.5 -12t23.5 -27l259 -660q8 -20 -2.5 -35.5t-31.5 -15.5h-42q-12 0 -18 13l-5 12l-6 17
l-66 167q-6 15 -23.5 27t-33.5 12h-295q-16 0 -33.5 -12t-23.5 -27l-66 -167l-6 -17l-7 -18q-5 -7 -11 -7q-3 0 -4.5 2.5t-0.5 4.5zM191 344q-13 -32 4.5 -58t52.5 -26h190q35 0 52.5 26t4.5 58l-95 245q-16 41 -57 41t-57 -41z" />
    <glyph glyph-name="Aacute" unicode="&#xc1;" horiz-adv-x="748" 
d="M391 830q-16 0 -24.5 12t-2.5 27l27 71q6 16 23.5 28t33.5 12h18q21 0 30 -16.5t-2 -34.5l-43 -70q-6 -10 -23 -19.5t-29 -9.5h-8zM313 700h1l9 25l5 13q6 12 18 12h56q16 0 33.5 -12t23.5 -27l259 -660q8 -20 -2.5 -35.5t-31.5 -15.5h-42q-12 0 -18 13l-5 12l-6 17
l-66 167q-6 15 -23.5 27t-33.5 12h-295q-16 0 -33.5 -12t-23.5 -27l-66 -167l-6 -17l-7 -18q-5 -7 -11 -7q-3 0 -4.5 2.5t-0.5 4.5zM191 344q-13 -32 4.5 -58t52.5 -26h190q35 0 52.5 26t4.5 58l-95 245q-16 41 -57 41t-57 -41z" />
    <glyph glyph-name="Acircumflex" unicode="&#xc2;" horiz-adv-x="748" 
d="M402 906q-5 2 -8 2t-6 -2t-7 -6l-59 -54q-5 -5 -20 -10.5t-22 -5.5h-17q-13 0 -18.5 11t2.5 21l80 96q5 7 21.5 14.5t25.5 7.5h34q9 0 25.5 -7.5t21.5 -14.5l80 -96q8 -10 3 -21t-18 -11h-12h-3h-4h-3h-3h-3h-4h-3h-7q-47 60 -76 76zM313 700h1l9 25l5 13q6 12 18 12h56
q16 0 33.5 -12t23.5 -27l259 -660q8 -20 -2.5 -35.5t-31.5 -15.5h-42q-12 0 -18 13l-5 12l-6 17l-66 167q-6 15 -23.5 27t-33.5 12h-295q-16 0 -33.5 -12t-23.5 -27l-66 -167l-6 -17l-7 -18q-5 -7 -11 -7q-3 0 -4.5 2.5t-0.5 4.5zM191 344q-13 -32 4.5 -58t52.5 -26h190
q35 0 52.5 26t4.5 58l-95 245q-16 41 -57 41t-57 -41z" />
    <glyph glyph-name="Atilde" unicode="&#xc3;" horiz-adv-x="748" 
d="M312 851q-1 -8 -7.5 -14.5t-13.5 -6.5h-13q-16 0 -25 10t-7 25q11 86 63 100q17 5 20 -15v-9l1 -1q-2 28 -3 28q17 0 48 -19.5t48.5 -34.5t24.5 -22q2 -5 2.5 -2.5t3.5 4.5q13 8 16 44q1 8 7.5 14.5t13.5 6.5h14q15 0 24 -10t7 -25q-11 -79 -56 -98q-25 -11 -27 20l-2 11
l-3 35q5 -71 7 -71q-21 0 -63 38t-58 38q-19 0 -22 -46zM313 700h1l9 25l5 13q6 12 18 12h56q16 0 33.5 -12t23.5 -27l259 -660q8 -20 -2.5 -35.5t-31.5 -15.5h-42q-12 0 -18 13l-5 12l-6 17l-66 167q-6 15 -23.5 27t-33.5 12h-295q-16 0 -33.5 -12t-23.5 -27l-66 -167
l-6 -17l-7 -18q-5 -7 -11 -7q-3 0 -4.5 2.5t-0.5 4.5zM191 344q-13 -32 4.5 -58t52.5 -26h190q35 0 52.5 26t4.5 58l-95 245q-16 41 -57 41t-57 -41z" />
    <glyph glyph-name="Adieresis" unicode="&#xc4;" horiz-adv-x="748" 
d="M467 830q-21 0 -35.5 14.5t-14.5 35.5q0 20 14.5 34.5t35.5 14.5h1q20 0 34.5 -14.5t14.5 -34.5q0 -21 -14.5 -35.5t-34.5 -14.5h-1zM315 830q-21 0 -35.5 14.5t-14.5 35.5q0 20 14.5 34.5t35.5 14.5h1q20 0 34.5 -14.5t14.5 -34.5q0 -21 -14.5 -35.5t-34.5 -14.5h-1z
M313 700h1l9 25l5 13q6 12 18 12h56q16 0 33.5 -12t23.5 -27l259 -660q8 -20 -2.5 -35.5t-31.5 -15.5h-42q-12 0 -18 13l-5 12l-6 17l-66 167q-6 15 -23.5 27t-33.5 12h-295q-16 0 -33.5 -12t-23.5 -27l-66 -167l-6 -17l-7 -18q-5 -7 -11 -7q-3 0 -4.5 2.5t-0.5 4.5z
M191 344q-13 -32 4.5 -58t52.5 -26h190q35 0 52.5 26t4.5 58l-95 245q-16 41 -57 41t-57 -41z" />
    <glyph glyph-name="Aring" unicode="&#xc5;" horiz-adv-x="748" 
d="M353 915q0 -43 38 -43t38 43q0 42 -38 42t-38 -42zM307 915q0 40 22 62t62 22t62 -22t22 -62q0 -85 -84 -85t-84 85zM313 700h1l9 25l5 13q6 12 18 12h56q16 0 33.5 -12t23.5 -27l259 -660q8 -20 -2.5 -35.5t-31.5 -15.5h-42q-12 0 -18 13l-5 12l-6 17l-66 167
q-6 15 -23.5 27t-33.5 12h-295q-16 0 -33.5 -12t-23.5 -27l-66 -167l-6 -17l-7 -18q-5 -7 -11 -7q-3 0 -4.5 2.5t-0.5 4.5zM191 344q-13 -32 4.5 -58t52.5 -26h190q35 0 52.5 26t4.5 58l-95 245q-16 41 -57 41t-57 -41z" />
    <glyph glyph-name="Ccedilla" unicode="&#xc7;" horiz-adv-x="701" 
d="M666 172q5 7 10 4q5 -5 1 -13q-37 -78 -107.5 -125t-150.5 -47q-13 0 -39 2q-10 0 -12 -6l-41 -93q-1 -3 -4 2l1 1v2l21 46q7 17 -3.5 36.5t-28.5 24.5q-116 35 -185 137t-69 232q0 159 101 271.5t259 112.5q70 0 140.5 -47t116.5 -125q6 -8 0 -12q-5 -5 -11 3
q-46 76 -113.5 122.5t-132.5 46.5q-111 0 -181 -108.5t-70 -263.5t70 -263.5t181 -108.5q75 0 143 46.5t104 122.5zM331 -102l-1 -1q11 18 37 18q40 0 64.5 -16.5t24.5 -42.5q0 -43 -24.5 -69.5t-65.5 -26.5q-25 0 -38 18t-8 47q0 1 1.5 3t2.5 2q1 1 2 0t1 -2
q-1 -11 9.5 -17.5t27.5 -6.5q18 0 29 14.5t11 37.5t-10.5 37.5t-27.5 14.5q-23 0 -35 -10z" />
    <glyph glyph-name="Egrave" unicode="&#xc8;" horiz-adv-x="620" 
d="M317 830q-12 0 -29 9.5t-23 19.5l-44 70q-11 18 -1.5 34.5t30.5 16.5h17q16 0 33.5 -12t23.5 -28l27 -71q6 -15 -2 -27t-24 -12h-8zM564 12q6 0 6 -6t-6 -6h-409q-25 0 -43 18t-18 43v628q0 25 18 43t43 18h394q6 0 6 -6t-6 -6h-293q-25 0 -43 -18t-18 -43v-223
q0 -25 18 -43t43 -18h273q6 0 6 -6t-6 -6h-273q-25 0 -43 -18t-18 -43v-247q0 -25 18 -43t43 -18h308z" />
    <glyph glyph-name="Eacute" unicode="&#xc9;" horiz-adv-x="620" 
d="M325 830q-16 0 -24.5 12t-2.5 27l27 71q6 16 23.5 28t33.5 12h18q20 0 29 -16.5t-1 -34.5l-44 -70q-6 -10 -23 -19.5t-29 -9.5h-7zM564 12q6 0 6 -6t-6 -6h-409q-25 0 -43 18t-18 43v628q0 25 18 43t43 18h394q6 0 6 -6t-6 -6h-293q-25 0 -43 -18t-18 -43v-223
q0 -25 18 -43t43 -18h273q6 0 6 -6t-6 -6h-273q-25 0 -43 -18t-18 -43v-247q0 -25 18 -43t43 -18h308z" />
    <glyph glyph-name="Ecircumflex" unicode="&#xca;" horiz-adv-x="620" 
d="M336 906q-5 2 -8 2t-6 -2t-7 -6l-59 -54q-5 -5 -20 -10.5t-22 -5.5h-17q-13 0 -18.5 11t2.5 21l79 96q5 7 21.5 14.5t25.5 7.5h35q9 0 25.5 -7.5t21.5 -14.5l79 -96q9 -10 4 -21t-19 -11h-12h-3h-3h-4h-3h-3h-3h-3h-8q-46 60 -75 76zM564 12q6 0 6 -6t-6 -6h-409
q-25 0 -43 18t-18 43v628q0 25 18 43t43 18h394q6 0 6 -6t-6 -6h-293q-25 0 -43 -18t-18 -43v-223q0 -25 18 -43t43 -18h273q6 0 6 -6t-6 -6h-273q-25 0 -43 -18t-18 -43v-247q0 -25 18 -43t43 -18h308z" />
    <glyph glyph-name="Edieresis" unicode="&#xcb;" horiz-adv-x="620" 
d="M401 830q-21 0 -35.5 14.5t-14.5 35.5q0 20 14.5 34.5t35.5 14.5q20 0 34.5 -14.5t14.5 -34.5q0 -21 -14.5 -35.5t-34.5 -14.5zM249 830q-21 0 -35.5 14.5t-14.5 35.5q0 20 14.5 34.5t35.5 14.5q20 0 34.5 -14.5t14.5 -34.5q0 -21 -14.5 -35.5t-34.5 -14.5zM564 12
q6 0 6 -6t-6 -6h-409q-25 0 -43 18t-18 43v628q0 25 18 43t43 18h394q6 0 6 -6t-6 -6h-293q-25 0 -43 -18t-18 -43v-223q0 -25 18 -43t43 -18h273q6 0 6 -6t-6 -6h-273q-25 0 -43 -18t-18 -43v-247q0 -25 18 -43t43 -18h308z" />
    <glyph glyph-name="Igrave" unicode="&#xcc;" horiz-adv-x="274" 
d="M130 830q-12 0 -29 9.5t-23 19.5l-43 70q-11 18 -2 34.5t30 16.5h18q16 0 33.5 -12t23.5 -28l27 -71q6 -15 -2.5 -27t-24.5 -12h-8zM189 51q0 -21 -15 -36t-36 -15t-36 15t-15 36v648q0 21 15 36t36 15t36 -15t15 -36v-648z" />
    <glyph glyph-name="Iacute" unicode="&#xcd;" horiz-adv-x="274" 
d="M138 830q-16 0 -24.5 12t-2.5 27l27 71q6 16 23.5 28t33.5 12h18q21 0 30 -16.5t-2 -34.5l-43 -70q-6 -10 -23 -19.5t-29 -9.5h-8zM189 51q0 -21 -15 -36t-36 -15t-36 15t-15 36v648q0 21 15 36t36 15t36 -15t15 -36v-648z" />
    <glyph glyph-name="Icircumflex" unicode="&#xce;" horiz-adv-x="274" 
d="M149 906q-10 4 -18 -3l-3 -3l-59 -54q-5 -5 -20 -10.5t-22 -5.5h-17q-14 0 -19 11t3 21l80 96q5 7 21.5 14.5t25.5 7.5h34q9 0 25.5 -7.5t21.5 -14.5l80 -96q8 -10 3 -21t-18 -11h-12h-3h-4h-3h-3h-3h-4h-3h-7q-47 60 -76 76zM189 51q0 -21 -15 -36t-36 -15t-36 15
t-15 36v648q0 21 15 36t36 15t36 -15t15 -36v-648z" />
    <glyph glyph-name="Idieresis" unicode="&#xcf;" horiz-adv-x="274" 
d="M214 830q-21 0 -35.5 14.5t-14.5 35.5q0 20 14.5 34.5t35.5 14.5h1q20 0 34.5 -14.5t14.5 -34.5q0 -21 -14.5 -35.5t-34.5 -14.5h-1zM62 830q-21 0 -35.5 14.5t-14.5 35.5q0 20 14.5 34.5t35.5 14.5h1q20 0 34.5 -14.5t14.5 -34.5q0 -21 -14.5 -35.5t-34.5 -14.5h-1z
M189 51q0 -21 -15 -36t-36 -15t-36 15t-15 36v648q0 21 15 36t36 15t36 -15t15 -36v-648z" />
    <glyph glyph-name="Ntilde" unicode="&#xd1;" horiz-adv-x="663" 
d="M268 851q-1 -8 -7.5 -14.5t-13.5 -6.5h-14q-16 0 -25 9.5t-7 25.5q5 40 22 66.5t42 33.5q17 5 20 -15v-9l1 -1q-2 28 -3 28q17 0 48 -19.5t48.5 -34.5t24.5 -22q2 -5 2.5 -2.5t3.5 4.5q13 8 16 44q1 8 7.5 14.5t13.5 6.5h14q15 0 24 -10t7 -25q-11 -79 -56 -98
q-25 -11 -27 20l-2 11l-3 35q5 -71 7 -71q-21 0 -64 38t-58 38q-18 0 -21 -46zM130 8q0 -8 -7 -8q-8 0 -8 8v686q0 23 16.5 39.5t40.5 16.5h16q15 0 32.5 -11t23.5 -25l202 -442q13 -28 41.5 -34t52 11.5t23.5 48.5v445q0 7 8 7q7 0 7 -7v-682q0 -25 -17.5 -43t-42.5 -18
h-21q-15 0 -32.5 11t-23.5 25l-194 424q-13 28 -41.5 34t-52 -11.5t-23.5 -48.5v-426z" />
    <glyph glyph-name="Ograve" unicode="&#xd2;" horiz-adv-x="814" 
d="M404 830q-12 0 -29 9.5t-23 19.5l-43 70q-11 18 -2 34.5t30 16.5h18q16 0 33.5 -12t23.5 -28l27 -71q6 -15 -2.5 -27t-24.5 -12h-8zM173 375q0 -167 66 -269.5t173 -102.5t172.5 102.5t65.5 269.5q0 159 -68 265.5t-170 106.5t-170.5 -106.5t-68.5 -265.5zM64 375
q0 164 99.5 274t248.5 110q148 0 247.5 -110t99.5 -274q0 -173 -95.5 -278.5t-251.5 -105.5q-157 0 -252.5 105.5t-95.5 278.5z" />
    <glyph glyph-name="Oacute" unicode="&#xd3;" horiz-adv-x="814" 
d="M412 830q-16 0 -24.5 12t-2.5 27l27 71q6 16 23.5 28t33.5 12h18q21 0 30 -16.5t-2 -34.5l-43 -70q-6 -10 -23 -19.5t-29 -9.5h-8zM173 375q0 -167 66 -269.5t173 -102.5t172.5 102.5t65.5 269.5q0 159 -68 265.5t-170 106.5t-170.5 -106.5t-68.5 -265.5zM64 375
q0 164 99.5 274t248.5 110q148 0 247.5 -110t99.5 -274q0 -173 -95.5 -278.5t-251.5 -105.5q-157 0 -252.5 105.5t-95.5 278.5z" />
    <glyph glyph-name="Ocircumflex" unicode="&#xd4;" horiz-adv-x="814" 
d="M423 906q-5 2 -8 2t-6 -2t-7 -6l-59 -54q-5 -5 -20 -10.5t-22 -5.5h-17q-14 0 -19 11t3 21l80 96q5 7 21.5 14.5t25.5 7.5h34q9 0 25.5 -7.5t21.5 -14.5l80 -96q8 -10 3 -21t-18 -11h-12h-3h-4h-3h-3h-3h-4h-3h-7q-47 60 -76 76zM173 375q0 -167 66 -269.5t173 -102.5
t172.5 102.5t65.5 269.5q0 159 -68 265.5t-170 106.5t-170.5 -106.5t-68.5 -265.5zM64 375q0 164 99.5 274t248.5 110q148 0 247.5 -110t99.5 -274q0 -173 -95.5 -278.5t-251.5 -105.5q-157 0 -252.5 105.5t-95.5 278.5z" />
    <glyph glyph-name="Otilde" unicode="&#xd5;" horiz-adv-x="814" 
d="M333 851q-1 -8 -7.5 -14.5t-13.5 -6.5h-13q-16 0 -25 10t-7 25q11 86 63 100q17 5 20 -15v-9l1 -1q-2 28 -3 28q17 0 48 -19.5t48.5 -34.5t24.5 -22q2 -5 2.5 -2.5t3.5 4.5q13 8 16 44q1 8 7.5 14.5t13.5 6.5h14q15 0 24 -10t7 -25q-11 -79 -56 -98q-25 -11 -27 20l-2 11
l-3 35q5 -71 7 -71q-21 0 -63 38t-58 38q-19 0 -22 -46zM173 375q0 -167 66 -269.5t173 -102.5t172.5 102.5t65.5 269.5q0 159 -68 265.5t-170 106.5t-170.5 -106.5t-68.5 -265.5zM64 375q0 164 99.5 274t248.5 110q148 0 247.5 -110t99.5 -274q0 -173 -95.5 -278.5
t-251.5 -105.5q-157 0 -252.5 105.5t-95.5 278.5z" />
    <glyph glyph-name="Odieresis" unicode="&#xd6;" horiz-adv-x="814" 
d="M488 830q-21 0 -35.5 14.5t-14.5 35.5q0 20 14.5 34.5t35.5 14.5h1q20 0 34.5 -14.5t14.5 -34.5q0 -21 -14.5 -35.5t-34.5 -14.5h-1zM336 830q-21 0 -35.5 14.5t-14.5 35.5q0 20 14.5 34.5t35.5 14.5h1q20 0 34.5 -14.5t14.5 -34.5q0 -21 -14.5 -35.5t-34.5 -14.5h-1z
M173 375q0 -167 66 -269.5t173 -102.5t172.5 102.5t65.5 269.5q0 159 -68 265.5t-170 106.5t-170.5 -106.5t-68.5 -265.5zM64 375q0 164 99.5 274t248.5 110q148 0 247.5 -110t99.5 -274q0 -173 -95.5 -278.5t-251.5 -105.5q-157 0 -252.5 105.5t-95.5 278.5z" />
    <glyph glyph-name="Oslash" unicode="&#xd8;" horiz-adv-x="814" 
d="M64 375v1q0 164 99.5 274.5t247.5 110.5q103 0 188 -58q11 -8 29.5 -7t27.5 11l26 31q6 7 22 14.5t25 7.5t12.5 -7.5t-2.5 -14.5l-48 -58q-9 -13 -9 -36.5t9 -36.5q67 -101 67 -231q0 -173 -95.5 -278.5t-251.5 -105.5q-111 0 -193 54q-11 9 -29.5 7.5t-27.5 -12.5
l-23 -27q-5 -7 -21 -14.5t-25 -7.5q-10 0 -13 7.5t2 14.5l46 54q9 12 9 35.5t-9 36.5q-63 95 -63 235zM563 594q29 36 3 70q-66 85 -155 85q-102 0 -170.5 -106.5t-68.5 -265.5q0 -98 25 -178q4 -11 13.5 -14t17.5 6zM623 553q-4 12 -14.5 14.5t-17.5 -6.5l-335 -405
q-29 -34 -3 -68q62 -82 158 -82q107 0 172.5 102.5t65.5 269.5q0 92 -26 175z" />
    <glyph glyph-name="Ugrave" unicode="&#xd9;" horiz-adv-x="683" 
d="M337 821q-12 0 -29 9.5t-23 19.5l-43 70q-11 18 -2 34.5t30 16.5h18q16 0 33.5 -12t23.5 -28l27 -71q6 -15 -2.5 -27t-24.5 -12h-8zM588 743q0 7 8 7q7 0 7 -7v-449q0 -150 -65 -226.5t-193 -76.5t-193 76t-65 224v409q0 20 15 35t36 15q20 0 35 -15t15 -35v-392
q0 -303 157 -303q120 0 181.5 73.5t61.5 218.5v446z" />
    <glyph glyph-name="Uacute" unicode="&#xda;" horiz-adv-x="683" 
d="M345 821q-16 0 -24.5 12t-2.5 27l27 71q6 16 23.5 28t33.5 12h18q21 0 30 -16.5t-2 -34.5l-43 -70q-6 -10 -23 -19.5t-29 -9.5h-8zM588 743q0 7 8 7q7 0 7 -7v-449q0 -150 -65 -226.5t-193 -76.5t-193 76t-65 224v409q0 20 15 35t36 15q20 0 35 -15t15 -35v-392
q0 -303 157 -303q120 0 181.5 73.5t61.5 218.5v446z" />
    <glyph glyph-name="Ucircumflex" unicode="&#xdb;" horiz-adv-x="683" 
d="M356 897q-5 2 -8 2t-6 -2t-7 -6l-59 -54q-5 -5 -20 -10.5t-22 -5.5h-17q-13 0 -18.5 10.5t2.5 21.5l80 96q5 7 21.5 14.5t25.5 7.5h34q9 0 25.5 -7.5t21.5 -14.5l80 -96q8 -11 3 -21.5t-18 -10.5h-12h-3h-4h-3h-3h-3h-4h-3h-7q-47 60 -76 76zM588 743q0 7 8 7q7 0 7 -7
v-449q0 -150 -65 -226.5t-193 -76.5t-193 76t-65 224v409q0 20 15 35t36 15q20 0 35 -15t15 -35v-392q0 -303 157 -303q120 0 181.5 73.5t61.5 218.5v446z" />
    <glyph glyph-name="Udieresis" unicode="&#xdc;" horiz-adv-x="683" 
d="M421 821q-21 0 -35.5 14.5t-14.5 35.5q0 20 14.5 34.5t35.5 14.5h1q20 0 34.5 -14.5t14.5 -34.5q0 -21 -14.5 -35.5t-34.5 -14.5h-1zM269 821q-21 0 -35.5 14.5t-14.5 35.5q0 20 14.5 34.5t35.5 14.5h1q20 0 34.5 -14.5t14.5 -34.5q0 -21 -14.5 -35.5t-34.5 -14.5h-1z
M588 743q0 7 8 7q7 0 7 -7v-449q0 -150 -65 -226.5t-193 -76.5t-193 76t-65 224v409q0 20 15 35t36 15q20 0 35 -15t15 -35v-392q0 -303 157 -303q120 0 181.5 73.5t61.5 218.5v446z" />
    <glyph glyph-name="Yacute" unicode="&#xdd;" horiz-adv-x="599" 
d="M306 830q-16 0 -24.5 12t-2.5 27l27 71q6 16 23.5 28t33.5 12h18q21 0 30 -16.5t-2 -34.5l-43 -70q-6 -10 -23 -19.5t-29 -9.5h-8zM569 743q5 7 12 7l2 -1h6q-5 -10 -14 -25q-33 -57 -98 -171.5t-98 -171.5q-2 -2 -6.5 -16.5t-4.5 -17.5v-297q0 -21 -15 -36t-36 -15
t-36 15t-15 36v263q0 15 -6 27q-41 70 -116 200.5t-96 167.5q-10 16 -1 29t28 13h22q11 0 25 -8t19 -17l14 -25l185 -324q2 -6 10 -6t10 6z" />
    <glyph glyph-name="Thorn" unicode="&#xde;" horiz-adv-x="624" 
d="M195 51q0 -21 -15 -36t-35 -15q-21 0 -36 15t-15 36v649q0 20 15 35t36 15q20 0 35 -15t15 -35v-39q0 -25 18 -43t43 -18h97q236 0 236 -225t-236 -225h-97q-25 0 -43 -18t-18 -43v-38zM195 223q0 -25 18 -43t43 -18h98q134 0 134 213t-136 213h-96q-25 0 -43 -18
t-18 -43v-304z" />
    <glyph glyph-name="agrave" unicode="&#xe0;" 
d="M269 600q-12 0 -29 9.5t-23 19.5l-43 70q-11 18 -2 34.5t30 16.5h18q16 0 33.5 -12t23.5 -28l27 -71q6 -15 -2.5 -27t-24.5 -12h-8zM84 381q-6 2 -4 9q22 63 76 101t121 38q198 0 198 -185v-257q0 -12 4 -15.5t20 -4.5q8 0 14.5 -6.5t6.5 -14.5v-12q0 -14 -11 -24
t-25 -10q-70 1 -85 14.5t-15 72.5v20l-5 -3q-28 -113 -154 -113q-179 0 -179 103q0 67 49 107.5t129 40.5q78 0 119 31.5t41 109.5q0 135 -107 135q-62 0 -112.5 -36.5t-72.5 -96.5q-2 -6 -8 -4zM384 287q0 4 -6 5.5t-7 -2.5q-34 -57 -139 -57q-43 0 -69 -37.5t-26 -98.5
q0 -97 93 -97q70 0 109 36.5t45 125.5v125z" />
    <glyph glyph-name="aacute" unicode="&#xe1;" 
d="M277 600q-16 0 -24.5 12t-2.5 27l27 71q6 16 23.5 28t33.5 12h18q21 0 30 -16.5t-2 -34.5l-43 -70q-6 -10 -23 -19.5t-29 -9.5h-8zM84 381q-6 2 -4 9q22 63 76 101t121 38q198 0 198 -185v-257q0 -12 4 -15.5t20 -4.5q8 0 14.5 -6.5t6.5 -14.5v-12q0 -14 -11 -24t-25 -10
q-70 1 -85 14.5t-15 72.5v20l-5 -3q-28 -113 -154 -113q-179 0 -179 103q0 67 49 107.5t129 40.5q78 0 119 31.5t41 109.5q0 135 -107 135q-62 0 -112.5 -36.5t-72.5 -96.5q-2 -6 -8 -4zM384 287q0 4 -6 5.5t-7 -2.5q-34 -57 -139 -57q-43 0 -69 -37.5t-26 -98.5
q0 -97 93 -97q70 0 109 36.5t45 125.5v125z" />
    <glyph glyph-name="acircumflex" unicode="&#xe2;" 
d="M288 676q-5 2 -9 1.5t-4.5 -1t-7.5 -6.5l-59 -54q-5 -5 -20 -10.5t-22 -5.5h-17q-13 0 -18.5 11t2.5 21l80 96q5 7 21.5 14.5t25.5 7.5h34q9 0 25.5 -7.5t21.5 -14.5l80 -96q8 -10 3 -21t-18 -11h-12h-3h-4h-3h-3h-3h-4h-3h-7q-47 60 -76 76zM84 381q-6 2 -4 9
q22 63 76 101t121 38q198 0 198 -185v-257q0 -12 4 -15.5t20 -4.5q8 0 14.5 -6.5t6.5 -14.5v-12q0 -14 -11 -24t-25 -10q-70 1 -85 14.5t-15 72.5v20l-5 -3q-28 -113 -154 -113q-179 0 -179 103q0 67 49 107.5t129 40.5q78 0 119 31.5t41 109.5q0 135 -107 135
q-62 0 -112.5 -36.5t-72.5 -96.5q-2 -6 -8 -4zM384 287q0 4 -6 5.5t-7 -2.5q-34 -57 -139 -57q-43 0 -69 -37.5t-26 -98.5q0 -97 93 -97q70 0 109 36.5t45 125.5v125z" />
    <glyph glyph-name="atilde" unicode="&#xe3;" 
d="M198 621q-1 -8 -7.5 -14.5t-13.5 -6.5h-13q-16 0 -25 10t-7 25q11 86 63 100q17 5 20 -15v-9l1 -1q-2 28 -3 28q17 0 48 -19.5t48.5 -34.5t24.5 -22q2 -5 2.5 -2.5t3.5 4.5q13 8 16 44q1 8 7.5 14.5t13.5 6.5h14q15 0 24 -10t7 -25q-11 -79 -56 -98q-25 -11 -27 20l-2 11
l-3 35q5 -71 7 -71q-21 0 -63 38t-58 38q-19 0 -22 -46zM84 381q-6 2 -4 9q22 63 76 101t121 38q198 0 198 -185v-257q0 -12 4 -15.5t20 -4.5q8 0 14.5 -6.5t6.5 -14.5v-12q0 -14 -11 -24t-25 -10q-70 1 -85 14.5t-15 72.5v20l-5 -3q-28 -113 -154 -113q-179 0 -179 103
q0 67 49 107.5t129 40.5q78 0 119 31.5t41 109.5q0 135 -107 135q-62 0 -112.5 -36.5t-72.5 -96.5q-2 -6 -8 -4zM384 287q0 4 -6 5.5t-7 -2.5q-34 -57 -139 -57q-43 0 -69 -37.5t-26 -98.5q0 -97 93 -97q70 0 109 36.5t45 125.5v125z" />
    <glyph glyph-name="adieresis" unicode="&#xe4;" 
d="M375 600q-21 0 -35.5 14.5t-14.5 35.5q0 20 14.5 34.5t35.5 14.5q20 0 34.5 -14.5t14.5 -34.5q0 -21 -14.5 -35.5t-34.5 -14.5zM180 600q-21 0 -35.5 14.5t-14.5 35.5q0 20 14.5 34.5t35.5 14.5h1q20 0 34.5 -14.5t14.5 -34.5q0 -21 -14.5 -35.5t-34.5 -14.5h-1zM84 381
q-6 2 -4 9q22 63 76 101t121 38q198 0 198 -185v-257q0 -12 4 -15.5t20 -4.5q8 0 14.5 -6.5t6.5 -14.5v-12q0 -14 -11 -24t-25 -10q-70 1 -85 14.5t-15 72.5v20l-5 -3q-28 -113 -154 -113q-179 0 -179 103q0 67 49 107.5t129 40.5q78 0 119 31.5t41 109.5q0 135 -107 135
q-62 0 -112.5 -36.5t-72.5 -96.5q-2 -6 -8 -4zM384 287q0 4 -6 5.5t-7 -2.5q-34 -57 -139 -57q-43 0 -69 -37.5t-26 -98.5q0 -97 93 -97q70 0 109 36.5t45 125.5v125z" />
    <glyph glyph-name="aring" unicode="&#xe5;" 
d="M239 685q0 -43 38 -43t38 43q0 42 -38 42t-38 -42zM193 685q0 40 22 62t62 22t62 -22t22 -62q0 -85 -84 -85t-84 85zM84 381q-6 2 -4 9q22 63 76 101t121 38q198 0 198 -185v-257q0 -12 4 -15.5t20 -4.5q8 0 14.5 -6.5t6.5 -14.5v-12q0 -14 -11 -24t-25 -10
q-70 1 -85 14.5t-15 72.5v20l-5 -3q-28 -113 -154 -113q-179 0 -179 103q0 67 49 107.5t129 40.5q78 0 119 31.5t41 109.5q0 135 -107 135q-62 0 -112.5 -36.5t-72.5 -96.5q-2 -6 -8 -4zM384 287q0 4 -6 5.5t-7 -2.5q-34 -57 -139 -57q-43 0 -69 -37.5t-26 -98.5
q0 -97 93 -97q70 0 109 36.5t45 125.5v125z" />
    <glyph glyph-name="ccedilla" unicode="&#xe7;" horiz-adv-x="537" 
d="M493 134q2 5 8 3q6 -4 4 -10q-25 -62 -74 -99t-106 -37q-11 0 -35 2q-6 0 -10 -6l-41 -93q-1 -3 -4 2l1 1v2l21 46q8 17 -0.5 35t-26.5 23q-174 46 -174 257q0 135 71.5 202t197.5 67q101 0 179 -153q2 -7 -3 -9q-6 -4 -9 4q-75 147 -167 147q-79 0 -124.5 -64.5
t-45.5 -193.5t45.5 -193.5t124.5 -64.5q53 0 99 36t69 96zM243 -102l-1 -1q11 18 37 18q40 0 64.5 -16.5t24.5 -42.5q0 -43 -24.5 -69.5t-65.5 -26.5q-25 0 -38 18t-8 47q1 1 2.5 3l1.5 2q1 1 2 0t1 -2q-1 -11 9.5 -17.5t27.5 -6.5q18 0 29 14.5t11 37.5t-10.5 37.5
t-27.5 14.5q-23 0 -35 -10z" />
    <glyph glyph-name="egrave" unicode="&#xe8;" horiz-adv-x="543" 
d="M283 600q-12 0 -29 9.5t-23 19.5l-43 70q-11 18 -2 34.5t30 16.5h18q16 0 33.5 -12t23.5 -28l27 -71q6 -15 -2.5 -27t-24.5 -12h-8zM498 133q2 6 9 4q6 -4 4 -9q-20 -62 -81.5 -99.5t-144.5 -37.5q-107 0 -168 67t-61 202t62.5 202t172.5 67q207 0 232 -219
q3 -28 -13.5 -44t-44.5 -16h-248q-28 0 -44.5 -16.5t-14.5 -43.5q9 -94 42 -141t85 -47q78 0 136.5 36t76.5 95zM373 260q28 0 44.5 19t13.5 47q-18 192 -140 192q-56 0 -90.5 -48.5t-43.5 -147.5q-2 -27 15 -44.5t44 -17.5h157z" />
    <glyph glyph-name="eacute" unicode="&#xe9;" horiz-adv-x="543" 
d="M291 600q-16 0 -24.5 12t-2.5 27l27 71q6 16 23.5 28t33.5 12h18q21 0 30 -16.5t-2 -34.5l-43 -70q-6 -10 -23 -19.5t-29 -9.5h-8zM498 133q2 6 9 4q6 -4 4 -9q-20 -62 -81.5 -99.5t-144.5 -37.5q-107 0 -168 67t-61 202t62.5 202t172.5 67q207 0 232 -219
q3 -28 -13.5 -44t-44.5 -16h-248q-28 0 -44.5 -16.5t-14.5 -43.5q9 -94 42 -141t85 -47q78 0 136.5 36t76.5 95zM373 260q28 0 44.5 19t13.5 47q-18 192 -140 192q-56 0 -90.5 -48.5t-43.5 -147.5q-2 -27 15 -44.5t44 -17.5h157z" />
    <glyph glyph-name="ecircumflex" unicode="&#xea;" horiz-adv-x="543" 
d="M302 676q-5 2 -9 1.5t-4.5 -1t-7.5 -6.5l-59 -54q-5 -5 -20 -10.5t-22 -5.5h-17q-13 0 -18.5 11t2.5 21l80 96q5 7 21.5 14.5t25.5 7.5h34q9 0 25.5 -7.5t21.5 -14.5l80 -96q8 -10 3 -21t-18 -11h-12h-3h-4h-3h-3h-3h-4h-3h-7q-47 60 -76 76zM498 133q2 6 9 4q6 -4 4 -9
q-20 -62 -81.5 -99.5t-144.5 -37.5q-107 0 -168 67t-61 202t62.5 202t172.5 67q207 0 232 -219q3 -28 -13.5 -44t-44.5 -16h-248q-28 0 -44.5 -16.5t-14.5 -43.5q9 -94 42 -141t85 -47q78 0 136.5 36t76.5 95zM373 260q28 0 44.5 19t13.5 47q-18 192 -140 192
q-56 0 -90.5 -48.5t-43.5 -147.5q-2 -27 15 -44.5t44 -17.5h157z" />
    <glyph glyph-name="edieresis" unicode="&#xeb;" horiz-adv-x="543" 
d="M367 600q-21 0 -35.5 14.5t-14.5 35.5q0 20 14.5 34.5t35.5 14.5h1q20 0 34.5 -14.5t14.5 -34.5q0 -21 -14.5 -35.5t-34.5 -14.5h-1zM215 600q-21 0 -35.5 14.5t-14.5 35.5q0 20 14.5 34.5t35.5 14.5h1q20 0 34.5 -14.5t14.5 -34.5q0 -21 -14.5 -35.5t-34.5 -14.5h-1z
M498 133q2 6 9 4q6 -4 4 -9q-20 -62 -81.5 -99.5t-144.5 -37.5q-107 0 -168 67t-61 202t62.5 202t172.5 67q207 0 232 -219q3 -28 -13.5 -44t-44.5 -16h-248q-28 0 -44.5 -16.5t-14.5 -43.5q9 -94 42 -141t85 -47q78 0 136.5 36t76.5 95zM373 260q28 0 44.5 19t13.5 47
q-18 192 -140 192q-56 0 -90.5 -48.5t-43.5 -147.5q-2 -27 15 -44.5t44 -17.5h157z" />
    <glyph glyph-name="igrave" unicode="&#xec;" horiz-adv-x="283" 
d="M159 600q-12 0 -29 9.5t-23 19.5l-43 70q-11 18 -2 34.5t30 16.5h18q16 0 33.5 -12t23.5 -28l27 -71q6 -15 -2.5 -27t-24.5 -12h-8zM167 0q-19 0 -32.5 13.5t-13.5 32.5v428q0 19 13.5 32.5t32.5 13.5t32.5 -13.5t13.5 -32.5v-428q0 -19 -13.5 -32.5t-32.5 -13.5z" />
    <glyph glyph-name="iacute" unicode="&#xed;" horiz-adv-x="283" 
d="M167 600q-16 0 -24.5 12t-2.5 27l27 71q6 16 23.5 28t33.5 12h18q21 0 30 -16.5t-2 -34.5l-43 -70q-6 -10 -23 -19.5t-29 -9.5h-8zM167 0q-19 0 -32.5 13.5t-13.5 32.5v428q0 19 13.5 32.5t32.5 13.5t32.5 -13.5t13.5 -32.5v-428q0 -19 -13.5 -32.5t-32.5 -13.5z" />
    <glyph glyph-name="icircumflex" unicode="&#xee;" horiz-adv-x="283" 
d="M178 676q-5 2 -9 1.5t-4.5 -1t-7.5 -6.5l-59 -54q-5 -5 -20 -10.5t-22 -5.5h-17q-13 0 -18.5 11t2.5 21l80 96q5 7 21.5 14.5t25.5 7.5h34q9 0 25.5 -7.5t21.5 -14.5l80 -96q8 -10 3 -21t-18 -11h-12h-3h-4h-3h-3h-3h-4h-3h-7q-47 60 -76 76zM167 0q-19 0 -32.5 13.5
t-13.5 32.5v428q0 19 13.5 32.5t32.5 13.5t32.5 -13.5t13.5 -32.5v-428q0 -19 -13.5 -32.5t-32.5 -13.5z" />
    <glyph glyph-name="idieresis" unicode="&#xef;" horiz-adv-x="283" 
d="M265 600q-21 0 -35.5 14.5t-14.5 35.5q0 20 14.5 34.5t35.5 14.5q20 0 34.5 -14.5t14.5 -34.5q0 -21 -14.5 -35.5t-34.5 -14.5zM70 600q-21 0 -35.5 14.5t-14.5 35.5q0 20 14.5 34.5t35.5 14.5h1q20 0 34.5 -14.5t14.5 -34.5q0 -21 -14.5 -35.5t-34.5 -14.5h-1zM167 0
q-19 0 -32.5 13.5t-13.5 32.5v428q0 19 13.5 32.5t32.5 13.5t32.5 -13.5t13.5 -32.5v-428q0 -19 -13.5 -32.5t-32.5 -13.5z" />
    <glyph glyph-name="ntilde" unicode="&#xf1;" horiz-adv-x="544" 
d="M199 621q-1 -8 -7.5 -14.5t-13.5 -6.5h-14q-16 0 -25 9.5t-7 25.5q5 40 22 66.5t42 33.5q17 5 20 -15v-9l1 -1q-2 28 -3 28q17 0 48 -19.5t48.5 -34.5t24.5 -22q2 -5 2.5 -2.5t3.5 4.5q13 8 16 44q1 8 7.5 14.5t13.5 6.5h14q15 0 24 -10t7 -25q-11 -79 -56 -98
q-25 -11 -27 20l-2 11l-3 35q5 -71 7 -71q-22 0 -64 38t-58 38q-18 0 -21 -46zM479 46q0 -19 -13.5 -32.5t-32.5 -14.5q-19 0 -32.5 13.5t-13.5 32.5v269q0 95 -15.5 146t-41.5 51q-74 0 -119 -50t-45 -132v-284q0 -19 -13 -32.5t-32 -13.5t-32.5 13.5t-13.5 32.5v429
q0 19 13.5 32t32.5 13t32 -13t13 -32v-48q0 -4 6 -4.5t8 2.5q20 48 61 74.5t95 26.5q66 0 104.5 -54t38.5 -156v-269z" />
    <glyph glyph-name="ograve" unicode="&#xf2;" horiz-adv-x="590" 
d="M290 600q-12 0 -29 9.5t-23 19.5l-43 70q-11 18 -2 34.5t30 16.5h18q16 0 33.5 -12t23.5 -28l27 -71q6 -15 -2.5 -27t-24.5 -12h-8zM155 260q0 -121 35.5 -190t107.5 -69q67 0 105 64.5t38 194.5q0 121 -35.5 190t-107.5 69q-67 0 -105 -64.5t-38 -194.5zM56 260
q0 135 64.5 202t177.5 67q121 0 181.5 -72t60.5 -197q0 -135 -64.5 -202t-177.5 -67q-121 0 -181.5 72t-60.5 197z" />
    <glyph glyph-name="oacute" unicode="&#xf3;" horiz-adv-x="590" 
d="M298 600q-16 0 -24.5 12t-2.5 27l27 71q6 16 23.5 28t33.5 12h18q21 0 30 -16.5t-2 -34.5l-43 -70q-6 -10 -23 -19.5t-29 -9.5h-8zM155 260q0 -121 35.5 -190t107.5 -69q67 0 105 64.5t38 194.5q0 121 -35.5 190t-107.5 69q-67 0 -105 -64.5t-38 -194.5zM56 260
q0 135 64.5 202t177.5 67q121 0 181.5 -72t60.5 -197q0 -135 -64.5 -202t-177.5 -67q-121 0 -181.5 72t-60.5 197z" />
    <glyph glyph-name="ocircumflex" unicode="&#xf4;" horiz-adv-x="590" 
d="M309 676q-5 2 -9 1.5t-4.5 -1t-7.5 -6.5l-59 -54q-5 -5 -20 -10.5t-22 -5.5h-17q-14 0 -19 11t3 21l80 96q5 7 21.5 14.5t25.5 7.5h34q9 0 25.5 -7.5t21.5 -14.5l80 -96q8 -10 3 -21t-18 -11h-12h-3h-4h-3h-3h-3h-4h-3h-7q-47 60 -76 76zM155 260q0 -121 35.5 -190
t107.5 -69q67 0 105 64.5t38 194.5q0 121 -35.5 190t-107.5 69q-67 0 -105 -64.5t-38 -194.5zM56 260q0 135 64.5 202t177.5 67q121 0 181.5 -72t60.5 -197q0 -135 -64.5 -202t-177.5 -67q-121 0 -181.5 72t-60.5 197z" />
    <glyph glyph-name="otilde" unicode="&#xf5;" horiz-adv-x="590" 
d="M219 621q-1 -8 -7.5 -14.5t-13.5 -6.5h-13q-16 0 -25 10t-7 25q11 86 63 100q17 5 20 -15v-9l1 -1q-2 28 -3 28q17 0 48 -19.5t48.5 -34.5t24.5 -22q2 -5 2.5 -2.5t3.5 4.5q13 8 16 44q1 8 7.5 14.5t13.5 6.5h14q15 0 24 -10t7 -25q-11 -79 -56 -98q-25 -11 -27 20l-2 11
l-3 35q5 -71 7 -71q-21 0 -63 38t-58 38q-19 0 -22 -46zM155 260q0 -121 35.5 -190t107.5 -69q67 0 105 64.5t38 194.5q0 121 -35.5 190t-107.5 69q-67 0 -105 -64.5t-38 -194.5zM56 260q0 135 64.5 202t177.5 67q121 0 181.5 -72t60.5 -197q0 -135 -64.5 -202t-177.5 -67
q-121 0 -181.5 72t-60.5 197z" />
    <glyph glyph-name="odieresis" unicode="&#xf6;" horiz-adv-x="590" 
d="M374 600q-21 0 -35.5 14.5t-14.5 35.5q0 20 14.5 34.5t35.5 14.5h1q20 0 34.5 -14.5t14.5 -34.5q0 -21 -14.5 -35.5t-34.5 -14.5h-1zM222 600q-21 0 -35.5 14.5t-14.5 35.5q0 20 14.5 34.5t35.5 14.5h1q20 0 34.5 -14.5t14.5 -34.5q0 -21 -14.5 -35.5t-34.5 -14.5h-1z
M155 260q0 -121 35.5 -190t107.5 -69q67 0 105 64.5t38 194.5q0 121 -35.5 190t-107.5 69q-67 0 -105 -64.5t-38 -194.5zM56 260q0 135 64.5 202t177.5 67q121 0 181.5 -72t60.5 -197q0 -135 -64.5 -202t-177.5 -67q-121 0 -181.5 72t-60.5 197z" />
    <glyph glyph-name="oslash" unicode="&#xf8;" horiz-adv-x="590" 
d="M56 260q0 135 64.5 202t177.5 67q83 0 138 -35q8 -5 20.5 -4t17.5 8l13 16q15 15 33 15q6 0 8.5 -5.5t-1.5 -9.5l-27 -33q-7 -8 -6.5 -25t6.5 -26q40 -65 40 -169q0 -135 -64.5 -202t-177.5 -67q-83 0 -138 35q-8 5 -20.5 4t-17.5 -8l-13 -16q-15 -15 -33 -15
q-6 0 -8.5 5t1.5 10l27 33q7 8 6.5 25t-6.5 26q-40 65 -40 169zM396 403q21 26 7 53q-37 64 -105 64q-67 0 -105 -64.5t-38 -194.5q0 -65 10 -112q1 -7 6.5 -9t9.5 3zM432 372q-1 7 -6.5 9t-9.5 -3l-216 -261q-22 -27 -6 -52q36 -64 105 -64q67 0 105 64.5t38 194.5
q0 65 -10 112z" />
    <glyph glyph-name="ugrave" unicode="&#xf9;" horiz-adv-x="538" 
d="M262 600q-12 0 -29 9.5t-23 19.5l-44 70q-11 18 -1.5 34.5t30.5 16.5h17q16 0 33.5 -12t23.5 -28l27 -71q6 -15 -2 -27t-24 -12h-8zM468 45q0 -19 -13 -32t-32 -13t-32 13t-13 32v26q0 3 -5 3.5t-6 -2.5q-17 -38 -51.5 -59.5t-79.5 -21.5q-93 0 -129 48t-36 151v285
q0 19 13.5 32t32.5 13t32 -13t13 -32v-285q0 -97 17 -142t62 -45q61 0 98.5 40t37.5 105v327q0 19 13.5 32t32.5 13t32 -13t13 -32v-430z" />
    <glyph glyph-name="uacute" unicode="&#xfa;" horiz-adv-x="538" 
d="M270 600q-16 0 -24.5 12t-2.5 27l27 71q6 16 23.5 28t33.5 12h18q20 0 29 -16.5t-1 -34.5l-44 -70q-6 -10 -23 -19.5t-29 -9.5h-7zM468 45q0 -19 -13 -32t-32 -13t-32 13t-13 32v26q0 3 -5 3.5t-6 -2.5q-17 -38 -51.5 -59.5t-79.5 -21.5q-93 0 -129 48t-36 151v285
q0 19 13.5 32t32.5 13t32 -13t13 -32v-285q0 -97 17 -142t62 -45q61 0 98.5 40t37.5 105v327q0 19 13.5 32t32.5 13t32 -13t13 -32v-430z" />
    <glyph glyph-name="ucircumflex" unicode="&#xfb;" horiz-adv-x="538" 
d="M281 676q-5 2 -9 1.5t-4.5 -1t-7.5 -6.5l-59 -54q-5 -5 -20 -10.5t-22 -5.5h-17q-14 0 -19 11t3 21l79 96q5 7 21.5 14.5t25.5 7.5h35q9 0 25.5 -7.5t21.5 -14.5l79 -96q9 -10 4 -21t-19 -11h-12h-3h-3h-4h-3h-3h-3h-3h-8q-46 60 -75 76zM468 45q0 -19 -13 -32t-32 -13
t-32 13t-13 32v26q0 3 -5 3.5t-6 -2.5q-17 -38 -51.5 -59.5t-79.5 -21.5q-93 0 -129 48t-36 151v285q0 19 13.5 32t32.5 13t32 -13t13 -32v-285q0 -97 17 -142t62 -45q61 0 98.5 40t37.5 105v327q0 19 13.5 32t32.5 13t32 -13t13 -32v-430z" />
    <glyph glyph-name="udieresis" unicode="&#xfc;" horiz-adv-x="538" 
d="M346 600q-21 0 -35.5 14.5t-14.5 35.5q0 20 14.5 34.5t35.5 14.5q20 0 34.5 -14.5t14.5 -34.5q0 -21 -14.5 -35.5t-34.5 -14.5zM194 600q-21 0 -35.5 14.5t-14.5 35.5q0 20 14.5 34.5t35.5 14.5q20 0 34.5 -14.5t14.5 -34.5q0 -21 -14.5 -35.5t-34.5 -14.5zM468 45
q0 -19 -13 -32t-32 -13t-32 13t-13 32v26q0 3 -5 3.5t-6 -2.5q-17 -38 -51.5 -59.5t-79.5 -21.5q-93 0 -129 48t-36 151v285q0 19 13.5 32t32.5 13t32 -13t13 -32v-285q0 -97 17 -142t62 -45q61 0 98.5 40t37.5 105v327q0 19 13.5 32t32.5 13t32 -13t13 -32v-430z" />
    <glyph glyph-name="yacute" unicode="&#xfd;" horiz-adv-x="467" 
d="M237 600q-16 0 -24.5 12t-2.5 27l27 71q6 16 23.5 28t33.5 12h18q20 0 29 -16.5t-1 -34.5l-44 -70q-6 -10 -23 -19.5t-29 -9.5h-7zM247 -58l-2 1q-31 -84 -61 -114t-85 -30h-44q-6 0 -6 6t6 6h44q50 0 78 28t57 108l2 6v12l-203 506q-7 19 3 33.5t30 14.5h24
q11 0 22 -7.5t15 -17.5l10 -25l90 -225q17 -41 58.5 -40t56.5 42l81 226l7 22l7 19q4 8 11 8q9 0 5 -8l-4 -12l-10 -31l-143 -394z" />
    <glyph glyph-name="thorn" unicode="&#xfe;" horiz-adv-x="599" 
d="M122 750h23q9 0 15.5 -6.5t6.5 -15.5v-320q0 -4 6.5 -6t8.5 2q45 125 173 125q87 0 140.5 -74t53.5 -195t-53.5 -195t-140.5 -74q-128 0 -173 125q-2 4 -8.5 2t-6.5 -6v-317q0 -19 -13 -32t-32 -13t-32.5 13t-13.5 32v932q0 10 6.5 16.5t16.5 6.5h23zM167 260
q0 -123 47.5 -184t130.5 -61q47 0 76 67.5t29 177.5q0 116 -27.5 187t-72.5 71q-86 0 -134.5 -64.5t-48.5 -193.5z" />
    <glyph glyph-name="ydieresis" unicode="&#xff;" horiz-adv-x="467" 
d="M313 600q-21 0 -35.5 14.5t-14.5 35.5q0 20 14.5 34.5t35.5 14.5q20 0 34.5 -14.5t14.5 -34.5q0 -21 -14.5 -35.5t-34.5 -14.5zM161 600q-21 0 -35.5 14.5t-14.5 35.5q0 20 14.5 34.5t35.5 14.5q20 0 34.5 -14.5t14.5 -34.5q0 -21 -14.5 -35.5t-34.5 -14.5zM247 -58l-2 1
q-31 -84 -61 -114t-85 -30h-44q-6 0 -6 6t6 6h44q50 0 78 28t57 108l2 6v12l-203 506q-7 19 3 33.5t30 14.5h24q11 0 22 -7.5t15 -17.5l10 -25l90 -225q17 -41 58.5 -40t56.5 42l81 226l7 22l7 19q4 8 11 8q9 0 5 -8l-4 -12l-10 -31l-143 -394z" />
    <glyph glyph-name="Amacron" unicode="&#x100;" horiz-adv-x="748" 
d="M283 830q-13 0 -22.5 9t-9.5 23t9.5 23t22.5 9h216q13 0 22.5 -9t9.5 -23t-9.5 -23t-22.5 -9h-216zM313 700h1l9 25l5 13q6 12 18 12h56q16 0 33.5 -12t23.5 -27l259 -660q8 -20 -2.5 -35.5t-31.5 -15.5h-42q-12 0 -18 13l-5 12l-6 17l-66 167q-6 15 -23.5 27t-33.5 12
h-295q-16 0 -33.5 -12t-23.5 -27l-66 -167l-6 -17l-7 -18q-5 -7 -11 -7q-3 0 -4.5 2.5t-0.5 4.5zM191 344q-13 -32 4.5 -58t52.5 -26h190q35 0 52.5 26t4.5 58l-95 245q-16 41 -57 41t-57 -41z" />
    <glyph glyph-name="amacron" unicode="&#x101;" 
d="M169 600q-13 0 -22.5 9t-9.5 23t9.5 23t22.5 9h216q13 0 22.5 -9t9.5 -23t-9.5 -23t-22.5 -9h-216zM84 381q-6 2 -4 9q22 63 76 101t121 38q198 0 198 -185v-257q0 -12 4 -15.5t20 -4.5q8 0 14.5 -6.5t6.5 -14.5v-12q0 -14 -11 -24t-25 -10q-70 1 -85 14.5t-15 72.5v20
l-5 -3q-28 -113 -154 -113q-179 0 -179 103q0 67 49 107.5t129 40.5q78 0 119 31.5t41 109.5q0 135 -107 135q-62 0 -112.5 -36.5t-72.5 -96.5q-2 -6 -8 -4zM384 287q0 4 -6 5.5t-7 -2.5q-34 -57 -139 -57q-43 0 -69 -37.5t-26 -98.5q0 -97 93 -97q70 0 109 36.5t45 125.5
v125z" />
    <glyph glyph-name="Abreve" unicode="&#x102;" horiz-adv-x="748" 
d="M248 923q-4 16 4.5 25.5t25.5 9.5h12q6 0 14.5 -7.5t10.5 -14.5q15 -51 76 -51t76 51q2 7 10.5 14.5t14.5 7.5h12q17 0 25 -9.5t4 -25.5q-11 -47 -48.5 -74.5t-93.5 -27.5t-94 27.5t-49 74.5zM313 700h1l9 25l5 13q6 12 18 12h56q16 0 33.5 -12t23.5 -27l259 -660
q8 -20 -2.5 -35.5t-31.5 -15.5h-42q-12 0 -18 13l-5 12l-6 17l-66 167q-6 15 -23.5 27t-33.5 12h-295q-16 0 -33.5 -12t-23.5 -27l-66 -167l-6 -17l-7 -18q-5 -7 -11 -7q-3 0 -4.5 2.5t-0.5 4.5zM191 344q-13 -32 4.5 -58t52.5 -26h190q35 0 52.5 26t4.5 58l-95 245
q-16 41 -57 41t-57 -41z" />
    <glyph glyph-name="abreve" unicode="&#x103;" 
d="M134 693q-4 16 4.5 25.5t25.5 9.5h12q6 0 14.5 -7.5t10.5 -14.5q15 -51 76 -51t76 51q2 7 10.5 14.5t14.5 7.5h12q17 0 25 -9.5t4 -25.5q-11 -47 -48.5 -74.5t-93.5 -27.5t-94 27.5t-49 74.5zM84 381q-6 2 -4 9q22 63 76 101t121 38q198 0 198 -185v-257q0 -12 4 -15.5
t20 -4.5q8 0 14.5 -6.5t6.5 -14.5v-12q0 -14 -11 -24t-25 -10q-70 1 -85 14.5t-15 72.5v20l-5 -3q-28 -113 -154 -113q-179 0 -179 103q0 67 49 107.5t129 40.5q78 0 119 31.5t41 109.5q0 135 -107 135q-62 0 -112.5 -36.5t-72.5 -96.5q-2 -6 -8 -4zM384 287q0 4 -6 5.5
t-7 -2.5q-34 -57 -139 -57q-43 0 -69 -37.5t-26 -98.5q0 -97 93 -97q70 0 109 36.5t45 125.5v125z" />
    <glyph glyph-name="Aogonek" unicode="&#x104;" horiz-adv-x="748" 
d="M313 700l9 25l5 13q6 12 18 12h56q16 0 33.5 -12t23.5 -27l275 -702q5 -9 -3 -14q-17 -15 -33.5 -42.5t-16.5 -49.5q0 -44 21 -70t55 -26q45 0 72 29q2 2 4 -1q0 -5 -3 -7q-28 -30 -74 -30q-57 0 -91.5 26.5t-34.5 69.5q0 16 26 44t57 50q3 2 1.5 7t-5.5 5h-66
q-12 0 -18 13l-5 12l-6 17l-66 167q-6 15 -23.5 27t-33.5 12h-295q-16 0 -33.5 -12t-23.5 -27l-66 -167l-6 -17l-7 -18q-5 -7 -11 -7q-3 0 -4.5 2.5t-0.5 4.5zM190 344q-13 -32 4.5 -58t52.5 -26h190q35 0 52.5 26t4.5 58l-95 245q-16 41 -57 41t-57 -41z" />
    <glyph glyph-name="aogonek" unicode="&#x105;" 
d="M84 381q-6 2 -4 9q22 63 76 101t121 38q198 0 198 -185v-257q0 -12 4 -15.5t20 -4.5q8 0 14.5 -6.5t6.5 -14.5v-36q0 -8 -7 -15q-17 -16 -33.5 -42.5t-16.5 -48.5q0 -44 21 -70.5t55 -26.5q45 0 72 29q2 2 4 -1q0 -5 -3 -7q-28 -30 -74 -30q-57 0 -91.5 26.5t-34.5 70.5
q0 31 83 93q4 2 4 7t-5 5q-78 1 -94 14.5t-16 72.5v20l-5 -3q-28 -113 -154 -113q-179 0 -179 103q0 67 49 107.5t129 40.5q78 0 119 31.5t41 109.5q0 135 -107 135q-62 0 -112.5 -36.5t-72.5 -96.5q-2 -6 -8 -4zM384 287q0 4 -6 5.5t-7 -2.5q-34 -57 -139 -57
q-43 0 -69 -37.5t-26 -98.5q0 -97 93 -97q70 0 109 36.5t45 125.5v125z" />
    <glyph glyph-name="Cacute" unicode="&#x106;" horiz-adv-x="701" 
d="M370 830q-16 0 -24.5 12t-2.5 27l27 71q6 16 23.5 28t33.5 12h18q21 0 30 -16.5t-2 -34.5l-43 -70q-6 -10 -23 -19.5t-29 -9.5h-8zM666 172q5 7 10 4q5 -5 1 -13q-37 -78 -107.5 -125t-150.5 -47q-158 0 -259 112.5t-101 271.5t101 271.5t259 112.5q70 0 140.5 -47
t116.5 -125q6 -8 0 -12q-5 -5 -11 3q-46 76 -113.5 122.5t-132.5 46.5q-111 0 -181 -108.5t-70 -263.5t70 -263.5t181 -108.5q75 0 143 46.5t104 122.5z" />
    <glyph glyph-name="cacute" unicode="&#x107;" horiz-adv-x="537" 
d="M325 600q-16 0 -24.5 12t-2.5 27l27 71q6 16 23.5 28t33.5 12h18q21 0 30 -16.5t-2 -34.5l-43 -70q-6 -10 -23 -19.5t-29 -9.5h-8zM493 134q2 5 8 3q6 -4 4 -10q-25 -62 -74 -99t-106 -37q-126 0 -197.5 67t-71.5 202t71.5 202t197.5 67q101 0 179 -153q2 -7 -3 -9
q-6 -4 -9 4q-75 147 -167 147q-79 0 -124.5 -64.5t-45.5 -193.5t45.5 -193.5t124.5 -64.5q53 0 99 36t69 96z" />
    <glyph glyph-name="Ccircumflex" unicode="&#x108;" horiz-adv-x="701" 
d="M381 906q-5 2 -8 2t-6 -2t-7 -6l-59 -54q-5 -5 -20 -10.5t-22 -5.5h-17q-14 0 -19 11t3 21l80 96q5 7 21.5 14.5t25.5 7.5h34q9 0 25.5 -7.5t21.5 -14.5l80 -96q8 -10 3 -21t-18 -11h-12h-3h-4h-3h-3h-3h-4h-3h-7q-47 60 -76 76zM666 172q5 7 10 4q5 -5 1 -13
q-37 -78 -107.5 -125t-150.5 -47q-158 0 -259 112.5t-101 271.5t101 271.5t259 112.5q70 0 140.5 -47t116.5 -125q6 -8 0 -12q-5 -5 -11 3q-46 76 -113.5 122.5t-132.5 46.5q-111 0 -181 -108.5t-70 -263.5t70 -263.5t181 -108.5q75 0 143 46.5t104 122.5z" />
    <glyph glyph-name="Cdot" unicode="&#x10a;" horiz-adv-x="701" 
d="M370 830q-21 0 -35.5 14.5t-14.5 35.5q0 20 14.5 34.5t35.5 14.5h1q20 0 34.5 -14.5t14.5 -34.5q0 -21 -14.5 -35.5t-34.5 -14.5h-1zM666 172q5 7 10 4q5 -5 1 -13q-37 -78 -107.5 -125t-150.5 -47q-158 0 -259 112.5t-101 271.5t101 271.5t259 112.5q70 0 140.5 -47
t116.5 -125q6 -8 0 -12q-5 -5 -11 3q-46 76 -113.5 122.5t-132.5 46.5q-111 0 -181 -108.5t-70 -263.5t70 -263.5t181 -108.5q75 0 143 46.5t104 122.5z" />
    <glyph glyph-name="cdot" unicode="&#x10b;" horiz-adv-x="537" 
d="M325 600q-21 0 -35.5 14.5t-14.5 35.5q0 20 14.5 34.5t35.5 14.5h1q20 0 34.5 -14.5t14.5 -34.5q0 -21 -14.5 -35.5t-34.5 -14.5h-1zM493 134q2 5 8 3q6 -4 4 -10q-25 -62 -74 -99t-106 -37q-126 0 -197.5 67t-71.5 202t71.5 202t197.5 67q101 0 179 -153q2 -7 -3 -9
q-6 -4 -9 4q-75 147 -167 147q-79 0 -124.5 -64.5t-45.5 -193.5t45.5 -193.5t124.5 -64.5q53 0 99 36t69 96z" />
    <glyph glyph-name="Ccaron" unicode="&#x10c;" horiz-adv-x="701" 
d="M360 910q8 -7 9.5 -8t11.5 2q10 5 23.5 18t24 24.5t19.5 22.5l9 11q4 4 8 4t10.5 -2t11.5 -2h12q13 0 18 -11t-3 -21l-80 -96q-5 -7 -21.5 -14.5t-25.5 -7.5h-34q-9 0 -25.5 7.5t-21.5 14.5l-80 96q-8 10 -3 21t19 11h17q7 0 22 -5.5t20 -10.5zM666 172q5 7 10 4
q5 -5 1 -13q-37 -78 -107.5 -125t-150.5 -47q-158 0 -259 112.5t-101 271.5t101 271.5t259 112.5q70 0 140.5 -47t116.5 -125q6 -8 0 -12q-5 -5 -11 3q-46 76 -113.5 122.5t-132.5 46.5q-111 0 -181 -108.5t-70 -263.5t70 -263.5t181 -108.5q75 0 143 46.5t104 122.5z" />
    <glyph glyph-name="ccaron" unicode="&#x10d;" horiz-adv-x="537" 
d="M315 680q8 -7 9.5 -8t11.5 2q10 5 23.5 18t24 24.5t19.5 22.5l9 11q4 4 8 4t10.5 -2t11.5 -2h12q13 0 18 -11t-3 -21l-80 -96q-5 -7 -21.5 -14.5t-25.5 -7.5h-34q-9 0 -25.5 7.5t-21.5 14.5l-80 96q-8 10 -2.5 21t18.5 11h17q7 0 22 -5.5t20 -10.5zM493 134q2 5 8 3
q6 -4 4 -10q-25 -62 -74 -99t-106 -37q-126 0 -197.5 67t-71.5 202t71.5 202t197.5 67q101 0 179 -153q2 -7 -3 -9q-6 -4 -9 4q-75 147 -167 147q-79 0 -124.5 -64.5t-45.5 -193.5t45.5 -193.5t124.5 -64.5q53 0 99 36t69 96z" />
    <glyph glyph-name="Dcaron" unicode="&#x10e;" horiz-adv-x="765" 
d="M338 910q8 -7 9.5 -8t11.5 2q10 5 23.5 18t23.5 24.5t19 22.5l9 11q4 4 8 4t10.5 -2t11.5 -2h12q14 0 19 -11t-4 -21l-79 -96q-5 -7 -21.5 -14.5t-25.5 -7.5h-35q-9 0 -25.5 7.5t-21.5 14.5l-79 96q-8 10 -3 21t19 11h17q7 0 22 -5.5t20 -10.5zM350 0h-195q-25 0 -43 18
t-18 43v628q0 25 18 43t43 18h165q193 0 291.5 -94.5t98.5 -280.5q0 -191 -88.5 -283t-271.5 -92zM195 73q0 -25 18 -43t43 -18h93q128 0 190 89t62 274q0 363 -280 363h-65q-25 0 -43 -18t-18 -43v-604z" />
    <glyph glyph-name="dcaron" unicode="&#x10f;" horiz-adv-x="616" 
d="M595 710q0 20 15 34.5t36 14.5q20 0 31 -14.5t6 -33.5l-16 -69q-3 -13 -15.5 -23t-25.5 -10q-14 0 -24 9.5t-9 23.5zM155 260q0 -116 29.5 -187t78.5 -71q86 0 139 71t53 187t-53 187t-139 71q-49 0 -78.5 -71t-29.5 -187zM56 260q0 121 55.5 195t146.5 74
q63 0 110 -37.5t71 -104.5q1 -3 8 -2.5t7 4.5v316q0 19 13.5 32t32.5 13t32 -13t13 -32v-659q0 -19 -13 -32.5t-32 -13.5q-20 0 -33 13t-13 33v85q0 4 -7 4.5t-8 -2.5q-24 -67 -71 -104.5t-110 -37.5q-91 0 -146.5 74t-55.5 195z" />
    <glyph glyph-name="Dcroat" unicode="&#x110;" horiz-adv-x="765" 
d="M19 370q-5 0 -5 5t5 5h35q16 0 28 12t12 28v269q0 25 18 43t43 18h165q193 0 291.5 -94.5t98.5 -280.5q0 -191 -88.5 -283t-271.5 -92h-195q-25 0 -43 18t-18 43v269q0 16 -12 28t-28 12h-35zM195 73q0 -25 18 -43t43 -18h93q128 0 190 89t62 274q0 363 -280 363h-65
q-25 0 -43 -18t-18 -43v-236q0 -25 18 -43t43 -18h87q5 0 5 -5t-5 -5h-87q-25 0 -43 -18t-18 -43v-236z" />
    <glyph glyph-name="dcroat" unicode="&#x111;" horiz-adv-x="616" 
d="M263 635q-5 0 -5 5q0 4 5 4h139q22 0 37.5 15.5t15.5 37.5v8q0 19 13.5 32t32.5 13t32 -13t13 -32v-11q0 -21 14.5 -35.5t35.5 -14.5h46q4 0 4 -4q0 -5 -4 -5h-46q-21 0 -35.5 -14.5t-14.5 -35.5v-539q0 -19 -13 -32.5t-32 -13.5t-32.5 13t-13.5 33v85q0 4 -6.5 4.5
t-8.5 -2.5q-24 -67 -71 -104.5t-110 -37.5q-91 0 -146.5 74t-55.5 195t55.5 195t146.5 74q63 0 110 -37.5t71 -104.5q2 -3 8.5 -2.5t6.5 4.5v185q0 25 -18 43t-43 18h-131zM155 260q0 -116 29.5 -187t78.5 -71q86 0 139 71t53 187t-53 187t-139 71q-49 0 -78.5 -71
t-29.5 -187z" />
    <glyph glyph-name="Emacron" unicode="&#x112;" horiz-adv-x="620" 
d="M217 830q-13 0 -22.5 9t-9.5 23t9.5 23t22.5 9h216q13 0 22.5 -9t9.5 -23t-9.5 -23t-22.5 -9h-216zM564 12q6 0 6 -6t-6 -6h-409q-25 0 -43 18t-18 43v628q0 25 18 43t43 18h394q6 0 6 -6t-6 -6h-293q-25 0 -43 -18t-18 -43v-223q0 -25 18 -43t43 -18h273q6 0 6 -6t-6 -6
h-273q-25 0 -43 -18t-18 -43v-247q0 -25 18 -43t43 -18h308z" />
    <glyph glyph-name="emacron" unicode="&#x113;" horiz-adv-x="543" 
d="M183 600q-13 0 -22.5 9t-9.5 23t9.5 23t22.5 9h216q13 0 22.5 -9t9.5 -23t-9.5 -23t-22.5 -9h-216zM498 133q2 6 9 4q6 -4 4 -9q-20 -62 -81.5 -99.5t-144.5 -37.5q-107 0 -168 67t-61 202t62.5 202t172.5 67q207 0 232 -219q3 -28 -13.5 -44t-44.5 -16h-248
q-28 0 -44.5 -16.5t-14.5 -43.5q9 -94 42 -141t85 -47q78 0 136.5 36t76.5 95zM373 260q28 0 44.5 19t13.5 47q-18 192 -140 192q-56 0 -90.5 -48.5t-43.5 -147.5q-2 -27 15 -44.5t44 -17.5h157z" />
    <glyph glyph-name="Ebreve" unicode="&#x114;" horiz-adv-x="620" 
d="M182 923q-4 16 4.5 25.5t25.5 9.5h11q6 0 14.5 -7.5t10.5 -14.5q15 -51 77 -51q61 0 76 51q2 7 10.5 14.5t14.5 7.5h12q17 0 25 -9.5t4 -25.5q-11 -47 -48.5 -74.5t-93.5 -27.5t-94 27.5t-49 74.5zM564 12q6 0 6 -6t-6 -6h-409q-25 0 -43 18t-18 43v628q0 25 18 43t43 18
h394q6 0 6 -6t-6 -6h-293q-25 0 -43 -18t-18 -43v-223q0 -25 18 -43t43 -18h273q6 0 6 -6t-6 -6h-273q-25 0 -43 -18t-18 -43v-247q0 -25 18 -43t43 -18h308z" />
    <glyph glyph-name="ebreve" unicode="&#x115;" horiz-adv-x="543" 
d="M148 693q-4 16 4.5 25.5t25.5 9.5h12q6 0 14.5 -7.5t10.5 -14.5q15 -51 76 -51t76 51q2 7 10.5 14.5t14.5 7.5h12q17 0 25 -9.5t4 -25.5q-11 -47 -48.5 -74.5t-93.5 -27.5t-94 27.5t-49 74.5zM498 133q2 6 9 4q6 -4 4 -9q-20 -62 -81.5 -99.5t-144.5 -37.5
q-107 0 -168 67t-61 202t62.5 202t172.5 67q207 0 232 -219q3 -28 -13.5 -44t-44.5 -16h-248q-28 0 -44.5 -16.5t-14.5 -43.5q9 -94 42 -141t85 -47q78 0 136.5 36t76.5 95zM373 260q28 0 44.5 19t13.5 47q-18 192 -140 192q-56 0 -90.5 -48.5t-43.5 -147.5q-2 -27 15 -44.5
t44 -17.5h157z" />
    <glyph glyph-name="Edot" unicode="&#x116;" horiz-adv-x="620" 
d="M325 830q-21 0 -35.5 14.5t-14.5 35.5q0 20 14.5 34.5t35.5 14.5q20 0 34.5 -14.5t14.5 -34.5q0 -21 -14.5 -35.5t-34.5 -14.5zM564 12q6 0 6 -6t-6 -6h-409q-25 0 -43 18t-18 43v628q0 25 18 43t43 18h394q6 0 6 -6t-6 -6h-293q-25 0 -43 -18t-18 -43v-223q0 -25 18 -43
t43 -18h273q6 0 6 -6t-6 -6h-273q-25 0 -43 -18t-18 -43v-247q0 -25 18 -43t43 -18h308z" />
    <glyph glyph-name="edot" unicode="&#x117;" horiz-adv-x="543" 
d="M291 600q-21 0 -35.5 14.5t-14.5 35.5q0 20 14.5 34.5t35.5 14.5h1q20 0 34.5 -14.5t14.5 -34.5q0 -21 -14.5 -35.5t-34.5 -14.5h-1zM498 133q2 6 9 4q6 -4 4 -9q-20 -62 -81.5 -99.5t-144.5 -37.5q-107 0 -168 67t-61 202t62.5 202t172.5 67q207 0 232 -219
q3 -28 -13.5 -44t-44.5 -16h-248q-28 0 -44.5 -16.5t-14.5 -43.5q9 -94 42 -141t85 -47q78 0 136.5 36t76.5 95zM373 260q28 0 44.5 19t13.5 47q-18 192 -140 192q-56 0 -90.5 -48.5t-43.5 -147.5q-2 -27 15 -44.5t44 -17.5h157z" />
    <glyph glyph-name="Eogonek" unicode="&#x118;" horiz-adv-x="620" 
d="M564 12q6 0 6 -6t-6 -6h-209q-12 0 -17 -5q-17 -16 -33.5 -42.5t-16.5 -48.5q0 -44 21 -70.5t55 -26.5q45 0 72 29q2 2 4 -1q0 -5 -3 -7q-28 -30 -74 -30q-57 0 -91.5 26.5t-34.5 70.5q0 31 83 93q4 2 2 7t-6 5h-161q-25 0 -43 18t-18 43v628q0 25 18 43t43 18h394
q6 0 6 -6t-6 -6h-293q-25 0 -43 -18t-18 -43v-223q0 -25 18 -43t43 -18h273q6 0 6 -6t-6 -6h-273q-25 0 -43 -18t-18 -43v-247q0 -25 18 -43t43 -18h308z" />
    <glyph glyph-name="eogonek" unicode="&#x119;" horiz-adv-x="543" 
d="M498 133q2 7 8 3q5 -4 4 -9q-15 -53 -66 -90q-17 -14 -34.5 -47.5t-17.5 -64.5q0 -53 21 -85.5t55 -32.5q45 0 72 29q2 2 4 -1q0 -5 -3 -7q-28 -30 -74 -30q-57 0 -91.5 32.5t-34.5 85.5q0 33 58 89q2 2 -1 4q-2 2 -4 1q-52 -19 -109 -19q-107 0 -168 67t-61 202
t62.5 202t172.5 67q207 0 232 -219q3 -28 -13.5 -44t-44.5 -16h-248q-28 0 -44.5 -16.5t-14.5 -43.5q9 -94 42 -141t85 -47q78 0 136.5 36t76.5 95zM372 259q28 0 44.5 19t13.5 47q-18 192 -140 192q-56 0 -90.5 -48.5t-43.5 -147.5q-2 -27 15 -44.5t44 -17.5h157z" />
    <glyph glyph-name="Ecaron" unicode="&#x11a;" horiz-adv-x="620" 
d="M315 910q8 -7 9.5 -8t11.5 2q10 5 23.5 18t23.5 24.5t19 22.5l9 11q4 4 8 4t10.5 -2t11.5 -2h12q14 0 19 -11t-4 -21l-79 -96q-5 -7 -21.5 -14.5t-25.5 -7.5h-35q-9 0 -25.5 7.5t-21.5 14.5l-79 96q-8 10 -2.5 21t18.5 11h17q7 0 22 -5.5t20 -10.5zM564 12q6 0 6 -6
t-6 -6h-409q-25 0 -43 18t-18 43v628q0 25 18 43t43 18h394q6 0 6 -6t-6 -6h-293q-25 0 -43 -18t-18 -43v-223q0 -25 18 -43t43 -18h273q6 0 6 -6t-6 -6h-273q-25 0 -43 -18t-18 -43v-247q0 -25 18 -43t43 -18h308z" />
    <glyph glyph-name="ecaron" unicode="&#x11b;" horiz-adv-x="543" 
d="M281 680q8 -7 9.5 -8t11.5 2q10 5 23.5 18t24 24.5t19.5 22.5l9 11q4 4 8 4t10.5 -2t11.5 -2h12q13 0 18 -11t-3 -21l-80 -96q-5 -7 -21.5 -14.5t-25.5 -7.5h-34q-9 0 -25.5 7.5t-21.5 14.5l-80 96q-8 10 -2.5 21t18.5 11h17q7 0 22 -5.5t20 -10.5zM498 133q2 6 9 4
q6 -4 4 -9q-20 -62 -81.5 -99.5t-144.5 -37.5q-107 0 -168 67t-61 202t62.5 202t172.5 67q207 0 232 -219q3 -28 -13.5 -44t-44.5 -16h-248q-28 0 -44.5 -16.5t-14.5 -43.5q9 -94 42 -141t85 -47q78 0 136.5 36t76.5 95zM373 260q28 0 44.5 19t13.5 47q-18 192 -140 192
q-56 0 -90.5 -48.5t-43.5 -147.5q-2 -27 15 -44.5t44 -17.5h157z" />
    <glyph glyph-name="Gcircumflex" unicode="&#x11c;" horiz-adv-x="752" 
d="M455 906q-10 4 -18 -3l-3 -3l-59 -54q-5 -5 -20 -10.5t-22 -5.5h-17q-14 0 -19 11t3 21l80 96q5 7 21.5 14.5t25.5 7.5h34q9 0 25.5 -7.5t21.5 -14.5l80 -96q8 -10 3 -21t-18 -11h-12h-3h-4h-3h-3h-3h-4h-3h-7q-47 60 -76 76zM468 398q-6 0 -6 6q-2 6 5 6h178
q25 0 43 -18t18 -43v-216q0 -10 -8.5 -26.5t-16.5 -22.5q-122 -93 -238 -93q-173 0 -279 105.5t-106 278.5t106 278.5t279 105.5q36 0 73.5 -17.5t64.5 -42.5t49 -50.5t33 -42.5l11 -18l3 -4q4 -6 -1 -8l-1 -1q-5 -5 -11 3q-45 76 -105.5 122.5t-114.5 46.5
q-124 0 -200 -102.5t-76 -269.5t76 -269.5t200 -102.5q104 0 224 90q8 6 16 21.5t8 26.5v196q0 25 -18 43t-43 18h-163z" />
    <glyph glyph-name="Gbreve" unicode="&#x11e;" horiz-adv-x="752" 
d="M301 923q-4 16 4.5 25.5t25.5 9.5h12q6 0 14.5 -7.5t10.5 -14.5q15 -51 76 -51t76 51q2 7 10.5 14.5t14.5 7.5h12q17 0 25 -9.5t4 -25.5q-11 -47 -48.5 -74.5t-93.5 -27.5t-94 27.5t-49 74.5zM468 398q-6 0 -6 6q-2 6 5 6h178q25 0 43 -18t18 -43v-216q0 -10 -8.5 -26.5
t-16.5 -22.5q-122 -93 -238 -93q-173 0 -279 105.5t-106 278.5t106 278.5t279 105.5q36 0 73.5 -17.5t64.5 -42.5t49 -50.5t33 -42.5l11 -18l3 -4q4 -6 -1 -8l-1 -1q-5 -5 -11 3q-45 76 -105.5 122.5t-114.5 46.5q-124 0 -200 -102.5t-76 -269.5t76 -269.5t200 -102.5
q104 0 224 90q8 6 16 21.5t8 26.5v196q0 25 -18 43t-43 18h-163z" />
    <glyph glyph-name="gbreve" unicode="&#x11f;" horiz-adv-x="606" 
d="M153 693q-4 16 4.5 25.5t25.5 9.5h12q6 0 14.5 -7.5t10.5 -14.5q15 -51 76 -51t76 51q2 7 10.5 14.5t14.5 7.5h12q17 0 25 -9.5t4 -25.5q-11 -47 -48.5 -74.5t-93.5 -27.5t-94 27.5t-49 74.5zM78 -97q-2 8 7 8q6 0 8 -6q11 -54 210 -54q142 0 142 149v135q0 4 -6.5 4.5
t-8.5 -2.5q-23 -64 -69 -100.5t-108 -36.5q-197 0 -197 260q0 269 197 269q62 0 108 -37.5t69 -104.5q2 -4 8.5 -3t6.5 5v86q0 19 13.5 32t32.5 13t32 -13t13 -32v-436q0 -200 -231 -200q-216 0 -227 64zM155 260q0 -249 103 -249q84 0 135.5 68.5t51.5 180.5
q0 116 -51.5 187t-135.5 71q-103 0 -103 -258z" />
    <glyph glyph-name="Gdot" unicode="&#x120;" horiz-adv-x="752" 
d="M444 830q-21 0 -35.5 14.5t-14.5 35.5q0 20 14.5 34.5t35.5 14.5h1q20 0 34.5 -14.5t14.5 -34.5q0 -21 -14.5 -35.5t-34.5 -14.5h-1zM468 398q-6 0 -6 6q-2 6 5 6h178q25 0 43 -18t18 -43v-216q0 -10 -8.5 -26.5t-16.5 -22.5q-122 -93 -238 -93q-173 0 -279 105.5
t-106 278.5t106 278.5t279 105.5q36 0 73.5 -17.5t64.5 -42.5t49 -50.5t33 -42.5l11 -18l3 -4q4 -6 -1 -8l-1 -1q-5 -5 -11 3q-45 76 -105.5 122.5t-114.5 46.5q-124 0 -200 -102.5t-76 -269.5t76 -269.5t200 -102.5q104 0 224 90q8 6 16 21.5t8 26.5v196q0 25 -18 43
t-43 18h-163z" />
    <glyph glyph-name="gdot" unicode="&#x121;" horiz-adv-x="606" 
d="M296 600q-21 0 -35.5 14.5t-14.5 35.5q0 20 14.5 34.5t35.5 14.5h1q20 0 34.5 -14.5t14.5 -34.5q0 -21 -14.5 -35.5t-34.5 -14.5h-1zM78 -97q-2 8 7 8q6 0 8 -6q11 -54 210 -54q142 0 142 149v135q0 4 -6.5 4.5t-8.5 -2.5q-23 -64 -69 -100.5t-108 -36.5q-197 0 -197 260
q0 269 197 269q62 0 108 -37.5t69 -104.5q2 -4 8.5 -3t6.5 5v86q0 19 13.5 32t32.5 13t32 -13t13 -32v-436q0 -200 -231 -200q-216 0 -227 64zM155 260q0 -249 103 -249q84 0 135.5 68.5t51.5 180.5q0 116 -51.5 187t-135.5 71q-103 0 -103 -258z" />
    <glyph glyph-name="Hcircumflex" unicode="&#x124;" horiz-adv-x="751" 
d="M391 906q-10 4 -18 -3l-3 -3l-59 -54q-5 -5 -20 -10.5t-22 -5.5h-17q-14 0 -19 11t3 21l80 96q5 7 21.5 14.5t25.5 7.5h34q9 0 25.5 -7.5t21.5 -14.5l80 -96q8 -10 3 -21t-18 -11h-12h-3h-4h-3h-3h-3h-4h-3h-7q-47 60 -76 76zM666 50q0 -20 -15 -35t-35 -15q-21 0 -36 15
t-15 36v277q0 25 -18 43t-43 18h-248q-25 0 -43 -18t-18 -43v-277q0 -21 -15 -36t-35 -15q-21 0 -36 15t-15 36v649q0 20 15 35t36 15q20 0 35 -15t15 -35v-238q0 -25 18 -43t43 -18h248q25 0 43 18t18 43v238q0 20 15 35t36 15q20 0 35 -15t15 -35v-650z" />
    <glyph glyph-name="Itilde" unicode="&#x128;" horiz-adv-x="274" 
d="M59 851q-1 -8 -7.5 -14.5t-13.5 -6.5h-13q-16 0 -25 10t-7 25q11 86 63 100q17 5 20 -15v-9l1 -1q-2 28 -3 28q17 0 48 -19.5t48.5 -34.5t24.5 -22q2 -5 2.5 -2.5t3.5 4.5q13 8 16 44q1 8 7.5 14.5t13.5 6.5h14q15 0 24 -10t7 -25q-11 -79 -56 -98q-25 -11 -27 20l-2 11
l-3 35q5 -71 7 -71q-21 0 -63 38t-58 38q-19 0 -22 -46zM189 51q0 -21 -15 -36t-36 -15t-36 15t-15 36v648q0 21 15 36t36 15t36 -15t15 -36v-648z" />
    <glyph glyph-name="itilde" unicode="&#x129;" horiz-adv-x="283" 
d="M88 621q-1 -8 -7.5 -14.5t-13.5 -6.5h-13q-16 0 -25 10t-7 25q11 86 63 100q17 5 20 -15v-9l1 -1q-2 28 -3 28q17 0 48 -19.5t48.5 -34.5t24.5 -22q2 -5 2.5 -2.5t3.5 4.5q13 8 16 44q1 8 7.5 14.5t13.5 6.5h14q15 0 24 -10t7 -25q-11 -79 -56 -98q-25 -11 -27 20l-2 11
l-3 35q5 -71 7 -71q-21 0 -63 38t-58 38q-19 0 -22 -46zM167 0q-19 0 -32.5 13.5t-13.5 32.5v428q0 19 13.5 32.5t32.5 13.5t32.5 -13.5t13.5 -32.5v-428q0 -19 -13.5 -32.5t-32.5 -13.5z" />
    <glyph glyph-name="Imacron" unicode="&#x12a;" horiz-adv-x="274" 
d="M30 830q-14 0 -23 9t-9 23t9 23t23 9h216q14 0 23 -9t9 -23t-9 -23t-23 -9h-216zM189 51q0 -21 -15 -36t-36 -15t-36 15t-15 36v648q0 21 15 36t36 15t36 -15t15 -36v-648z" />
    <glyph glyph-name="imacron" unicode="&#x12b;" horiz-adv-x="283" 
d="M59 600q-13 0 -22.5 9t-9.5 23t9.5 23t22.5 9h216q13 0 22.5 -9t9.5 -23t-9.5 -23t-22.5 -9h-216zM167 0q-19 0 -32.5 13.5t-13.5 32.5v428q0 19 13.5 32.5t32.5 13.5t32.5 -13.5t13.5 -32.5v-428q0 -19 -13.5 -32.5t-32.5 -13.5z" />
    <glyph glyph-name="Ibreve" unicode="&#x12c;" horiz-adv-x="274" 
d="M-5 923q-4 16 4.5 25.5t25.5 9.5h12q6 0 14.5 -7.5t10.5 -14.5q15 -51 76 -51t76 51q2 7 10.5 14.5t14.5 7.5h12q17 0 25 -9.5t4 -25.5q-11 -47 -48.5 -74.5t-93.5 -27.5t-94 27.5t-49 74.5zM189 51q0 -21 -15 -36t-36 -15t-36 15t-15 36v648q0 21 15 36t36 15t36 -15
t15 -36v-648z" />
    <glyph glyph-name="ibreve" unicode="&#x12d;" horiz-adv-x="283" 
d="M24 693q-4 16 4.5 25.5t25.5 9.5h12q6 0 14.5 -7.5t10.5 -14.5q15 -51 76 -51t76 51q2 7 10.5 14.5t14.5 7.5h12q17 0 25 -9.5t4 -25.5q-11 -47 -48.5 -74.5t-93.5 -27.5t-94 27.5t-49 74.5zM167 0q-19 0 -32.5 13.5t-13.5 32.5v428q0 19 13.5 32.5t32.5 13.5t32.5 -13.5
t13.5 -32.5v-428q0 -19 -13.5 -32.5t-32.5 -13.5z" />
    <glyph glyph-name="Idot" unicode="&#x130;" horiz-adv-x="274" 
d="M138 830q-21 0 -35.5 14.5t-14.5 35.5q0 20 14.5 34.5t35.5 14.5h1q20 0 34.5 -14.5t14.5 -34.5q0 -21 -14.5 -35.5t-34.5 -14.5h-1zM189 51q0 -21 -15 -36t-36 -15t-36 15t-15 36v648q0 21 15 36t36 15t36 -15t15 -36v-648z" />
    <glyph glyph-name="dotlessi" unicode="&#x131;" horiz-adv-x="283" 
d="M167 0q-19 0 -32.5 13.5t-13.5 32.5v428q0 19 13.5 32.5t32.5 13.5t32.5 -13.5t13.5 -32.5v-428q0 -19 -13.5 -32.5t-32.5 -13.5z" />
    <glyph glyph-name="Jcircumflex" unicode="&#x134;" horiz-adv-x="538" 
d="M414 906q-5 2 -8 2t-6 -2t-7 -6l-59 -54q-5 -5 -20 -10.5t-22 -5.5h-17q-13 0 -18.5 11t2.5 21l79 96q5 7 21.5 14.5t25.5 7.5h35q9 0 25.5 -7.5t21.5 -14.5l79 -96q9 -10 4 -21t-19 -11h-12h-3h-3h-4h-3h-3h-3h-3h-8q-46 60 -75 76zM56 250q0 13 9 23.5t22 12.5l45 8
q10 1 17.5 -5t7.5 -16v-26q0 -125 23.5 -183.5t74.5 -58.5q47 0 72 58t25 157v480q0 20 15 35t36 15q20 0 35 -15t15 -35v-480q0 -105 -51 -167t-147 -62q-103 0 -151 54.5t-48 172.5v32z" />
    <glyph glyph-name="Lacute" unicode="&#x139;" horiz-adv-x="544" 
d="M138 830q-16 0 -24.5 12t-2.5 27l27 71q6 16 23.5 28t33.5 12h18q21 0 30 -16.5t-2 -34.5l-43 -70q-6 -10 -23 -19.5t-29 -9.5h-8zM508 12q6 0 6 -6t-6 -6h-360q-25 0 -43 18t-18 43v638q0 21 15 36t36 15t36 -15t15 -36v-626q0 -25 18 -43t43 -18h258z" />
    <glyph glyph-name="lacute" unicode="&#x13a;" horiz-adv-x="243" 
d="M104 790q-16 0 -24.5 12t-2.5 27l27 71q6 16 23.5 28t33.5 12h18q21 0 30 -16.5t-2 -34.5l-43 -70q-6 -10 -23 -19.5t-29 -9.5h-8zM173 46q0 -19 -13.5 -32.5t-32.5 -13.5t-32.5 13.5t-13.5 32.5v658q0 19 13.5 32.5t32.5 13.5t32.5 -13.5t13.5 -32.5v-658z" />
    <glyph glyph-name="Lcaron" unicode="&#x13d;" horiz-adv-x="544" 
d="M301 710q0 20 15 34.5t36 14.5q20 0 31 -14.5t6 -33.5l-16 -69q-3 -13 -15.5 -23t-25.5 -10q-14 0 -24 10t-9 23zM508 12q6 0 6 -6t-6 -6h-360q-25 0 -43 18t-18 43v638q0 21 15 36t36 15t36 -15t15 -36v-626q0 -25 18 -43t43 -18h258z" />
    <glyph glyph-name="lcaron" unicode="&#x13e;" horiz-adv-x="243" 
d="M222 710q0 20 15 34.5t36 14.5q20 0 31 -14.5t6 -33.5l-16 -69q-3 -13 -15.5 -23t-25.5 -10q-14 0 -24 9.5t-9 23.5zM173 46q0 -19 -13.5 -32.5t-32.5 -13.5t-32.5 13.5t-13.5 32.5v658q0 19 13.5 32.5t32.5 13.5t32.5 -13.5t13.5 -32.5v-658z" />
    <glyph glyph-name="Lslash" unicode="&#x141;" horiz-adv-x="544" 
d="M508 12q6 0 6 -6t-6 -6h-360q-25 0 -43 18t-18 43v240q0 17 -12 26t-28 5l-35 -11q-5 0 -5 4q0 6 5 6l35 11q16 5 28 21t12 32v304q0 21 15 36t36 15t36 -15t15 -36v-234q0 -33 23.5 -50.5t54.5 -8.5l80 23q5 0 5 -4q0 -6 -5 -6l-114 -33q-17 -5 -30.5 -23t-13.5 -36
v-254q0 -25 18 -43t43 -18h258z" />
    <glyph glyph-name="lslash" unicode="&#x142;" horiz-adv-x="243" 
d="M6 322q-5 -2 -5 3t5 7l36 15q15 5 27 22.5t12 34.5v300q0 19 13.5 32.5t32.5 13.5t32.5 -13.5t13.5 -32.5v-263q0 -16 12.5 -24.5t27.5 -2.5l35 14q5 2 5 -3t-5 -7l-36 -15q-15 -5 -27 -22.5t-12 -34.5v-300q0 -19 -13.5 -32.5t-32.5 -13.5t-32.5 13.5t-13.5 32.5v263
q0 16 -12.5 24.5t-27.5 2.5z" />
    <glyph glyph-name="Nacute" unicode="&#x143;" horiz-adv-x="663" 
d="M247 830q-16 0 -24.5 12t-2.5 27l27 71q6 16 23.5 28t33.5 12h18q20 0 29 -16.5t-1 -34.5l-44 -70q-6 -10 -23 -19.5t-29 -9.5h-7zM130 8q0 -8 -7 -8q-8 0 -8 8v686q0 23 16.5 39.5t40.5 16.5h16q15 0 32.5 -11t23.5 -25l202 -442q13 -28 41.5 -34t52 11.5t23.5 48.5v445
q0 7 8 7q7 0 7 -7v-682q0 -25 -17.5 -43t-42.5 -18h-21q-15 0 -32.5 11t-23.5 25l-194 424q-13 28 -41.5 34t-52 -11.5t-23.5 -48.5v-426z" />
    <glyph glyph-name="nacute" unicode="&#x144;" horiz-adv-x="544" 
d="M278 600q-16 0 -24.5 12t-2.5 27l27 71q6 16 23.5 28t33.5 12h18q20 0 29 -16.5t-1 -34.5l-44 -70q-6 -10 -23 -19.5t-29 -9.5h-7zM479 46q0 -19 -13.5 -32.5t-32.5 -14.5q-19 0 -32.5 13.5t-13.5 32.5v269q0 95 -15.5 146t-41.5 51q-74 0 -119 -50t-45 -132v-284
q0 -19 -13 -32.5t-32 -13.5t-32.5 13.5t-13.5 32.5v429q0 19 13.5 32t32.5 13t32 -13t13 -32v-48q0 -4 6 -4.5t8 2.5q20 48 61 74.5t95 26.5q66 0 104.5 -54t38.5 -156v-269z" />
    <glyph glyph-name="Ncaron" unicode="&#x147;" horiz-adv-x="663" 
d="M337 910q8 -7 9.5 -8t11.5 2q10 5 23.5 18t23.5 24.5t19 22.5l9 11q4 4 8 4t10.5 -2t11.5 -2h12q14 0 19 -11t-4 -21l-79 -96q-5 -7 -21.5 -14.5t-25.5 -7.5h-35q-9 0 -25.5 7.5t-21.5 14.5l-79 96q-8 10 -2.5 21t18.5 11h17q7 0 22 -5.5t20 -10.5zM130 8q0 -8 -7 -8
q-8 0 -8 8v686q0 23 16.5 39.5t40.5 16.5h16q15 0 32.5 -11t23.5 -25l202 -442q13 -28 41.5 -34t52 11.5t23.5 48.5v445q0 7 8 7q7 0 7 -7v-682q0 -25 -17.5 -43t-42.5 -18h-21q-15 0 -32.5 11t-23.5 25l-194 424q-13 28 -41.5 34t-52 -11.5t-23.5 -48.5v-426z" />
    <glyph glyph-name="ncaron" unicode="&#x148;" horiz-adv-x="544" 
d="M268 680q8 -7 9.5 -8t11.5 2q10 5 23.5 18t23.5 24.5t19 22.5l9 11q4 4 8 4t10.5 -2t11.5 -2h12q14 0 19 -11t-4 -21l-79 -96q-5 -7 -21.5 -14.5t-25.5 -7.5h-35q-9 0 -25.5 7.5t-21.5 14.5l-79 96q-8 10 -3 21t19 11h17q7 0 22 -5.5t20 -10.5zM479 46q0 -19 -13.5 -32.5
t-32.5 -14.5q-19 0 -32.5 13.5t-13.5 32.5v269q0 95 -15.5 146t-41.5 51q-74 0 -119 -50t-45 -132v-284q0 -19 -13 -32.5t-32 -13.5t-32.5 13.5t-13.5 32.5v429q0 19 13.5 32t32.5 13t32 -13t13 -32v-48q0 -4 6 -4.5t8 2.5q20 48 61 74.5t95 26.5q66 0 104.5 -54t38.5 -156
v-269z" />
    <glyph glyph-name="Omacron" unicode="&#x14c;" horiz-adv-x="814" 
d="M304 830q-14 0 -23 9t-9 23t9 23t23 9h216q14 0 23 -9t9 -23t-9 -23t-23 -9h-216zM173 375q0 -167 66 -269.5t173 -102.5t172.5 102.5t65.5 269.5q0 159 -68 265.5t-170 106.5t-170.5 -106.5t-68.5 -265.5zM64 375q0 164 99.5 274t248.5 110q148 0 247.5 -110t99.5 -274
q0 -173 -95.5 -278.5t-251.5 -105.5q-157 0 -252.5 105.5t-95.5 278.5z" />
    <glyph glyph-name="omacron" unicode="&#x14d;" horiz-adv-x="590" 
d="M190 600q-14 0 -23 9t-9 23t9 23t23 9h216q14 0 23 -9t9 -23t-9 -23t-23 -9h-216zM155 260q0 -121 35.5 -190t107.5 -69q67 0 105 64.5t38 194.5q0 121 -35.5 190t-107.5 69q-67 0 -105 -64.5t-38 -194.5zM56 260q0 135 64.5 202t177.5 67q121 0 181.5 -72t60.5 -197
q0 -135 -64.5 -202t-177.5 -67q-121 0 -181.5 72t-60.5 197z" />
    <glyph glyph-name="Obreve" unicode="&#x14e;" horiz-adv-x="814" 
d="M269 923q-4 16 4.5 25.5t25.5 9.5h12q6 0 14.5 -7.5t10.5 -14.5q15 -51 76 -51t76 51q2 7 10.5 14.5t14.5 7.5h12q17 0 25 -9.5t4 -25.5q-11 -47 -48.5 -74.5t-93.5 -27.5t-94 27.5t-49 74.5zM173 375q0 -167 66 -269.5t173 -102.5t172.5 102.5t65.5 269.5
q0 159 -68 265.5t-170 106.5t-170.5 -106.5t-68.5 -265.5zM64 375q0 164 99.5 274t248.5 110q148 0 247.5 -110t99.5 -274q0 -173 -95.5 -278.5t-251.5 -105.5q-157 0 -252.5 105.5t-95.5 278.5z" />
    <glyph glyph-name="obreve" unicode="&#x14f;" horiz-adv-x="590" 
d="M155 693q-4 16 4.5 25.5t25.5 9.5h12q6 0 14.5 -7.5t10.5 -14.5q15 -51 76 -51t76 51q2 7 10.5 14.5t14.5 7.5h12q17 0 25 -9.5t4 -25.5q-11 -47 -48.5 -74.5t-93.5 -27.5t-94 27.5t-49 74.5zM155 260q0 -121 35.5 -190t107.5 -69q67 0 105 64.5t38 194.5
q0 121 -35.5 190t-107.5 69q-67 0 -105 -64.5t-38 -194.5zM56 260q0 135 64.5 202t177.5 67q121 0 181.5 -72t60.5 -197q0 -135 -64.5 -202t-177.5 -67q-121 0 -181.5 72t-60.5 197z" />
    <glyph glyph-name="Racute" unicode="&#x154;" horiz-adv-x="624" 
d="M342 830q-16 0 -24.5 12t-2.5 27l27 71q6 16 23.5 28t33.5 12h18q20 0 29 -16.5t-1 -34.5l-44 -70q-6 -10 -23 -19.5t-29 -9.5h-7zM532 0q-14 0 -31 10.5t-23 22.5l-137 255q-10 20 0 36t32 16h21q14 0 31 -10.5t23 -22.5l142 -265q8 -14 22 -42q2 -3 -1 -4q-1 0 -7 2
q-8 2 -12 2h-60zM195 51q0 -21 -15 -36t-35 -15q-21 0 -36 15t-15 36v638q0 25 18 43t43 18h198q236 0 236 -225q0 -182 -236 -182h-97q-25 0 -43 -18t-18 -43v-231zM195 416q0 -25 18 -43t43 -18h97q135 0 135 170q0 213 -136 213h-96q-25 0 -43 -18t-18 -43v-261z" />
    <glyph glyph-name="racute" unicode="&#x155;" horiz-adv-x="370" 
d="M213 600q-16 0 -24.5 12t-2.5 27l27 71q6 16 23.5 28t33.5 12h18q21 0 30 -16.5t-2 -34.5l-43 -70q-6 -10 -23 -19.5t-29 -9.5h-8zM350 511q0 -6 -5 -6h-6q-172 0 -172 -265v-194q0 -19 -13 -32.5t-32 -13.5q-20 0 -33 13t-13 33v429q0 19 13.5 32t32.5 13t32 -13t13 -32
v-90q0 -3 5 -3.5t6 2.5q38 136 162 136h5q5 0 5 -5v-4z" />
    <glyph glyph-name="Rcaron" unicode="&#x158;" horiz-adv-x="624" 
d="M332 910q8 -7 9.5 -8t11.5 2q10 5 23.5 18t23.5 24.5t19 22.5l9 11q4 4 8 4t10.5 -2t11.5 -2h12q14 0 19 -11t-4 -21l-79 -96q-5 -7 -21.5 -14.5t-25.5 -7.5h-35q-9 0 -25.5 7.5t-21.5 14.5l-79 96q-8 10 -3 21t19 11h17q7 0 22 -5.5t20 -10.5zM532 0q-14 0 -31 10.5
t-23 22.5l-137 255q-10 20 0 36t32 16h21q14 0 31 -10.5t23 -22.5l142 -265q8 -14 22 -42q2 -3 -1 -4q-1 0 -7 2q-8 2 -12 2h-60zM195 51q0 -21 -15 -36t-35 -15q-21 0 -36 15t-15 36v638q0 25 18 43t43 18h198q236 0 236 -225q0 -182 -236 -182h-97q-25 0 -43 -18t-18 -43
v-231zM195 416q0 -25 18 -43t43 -18h97q135 0 135 170q0 213 -136 213h-96q-25 0 -43 -18t-18 -43v-261z" />
    <glyph glyph-name="rcaron" unicode="&#x159;" horiz-adv-x="370" 
d="M203 680q8 -7 9.5 -8t11.5 2q10 5 23.5 18t24 24.5t19.5 22.5l9 11q4 4 8 4t10.5 -2t11.5 -2h12q13 0 18 -11t-3 -21l-80 -96q-5 -7 -21.5 -14.5t-25.5 -7.5h-34q-9 0 -25.5 7.5t-21.5 14.5l-80 96q-8 10 -2.5 21t18.5 11h17q7 0 22 -5.5t20 -10.5zM350 511q0 -6 -5 -6
h-6q-172 0 -172 -265v-194q0 -19 -13 -32.5t-32 -13.5q-20 0 -33 13t-13 33v429q0 19 13.5 32t32.5 13t32 -13t13 -32v-90q0 -3 5 -3.5t6 2.5q38 136 162 136h5q5 0 5 -5v-4z" />
    <glyph glyph-name="Sacute" unicode="&#x15a;" horiz-adv-x="598" 
d="M290 830q-16 0 -24.5 12t-2.5 27l27 71q6 16 23.5 28t33.5 12h18q21 0 30 -16.5t-2 -34.5l-43 -70q-6 -10 -23 -19.5t-29 -9.5h-8zM512 617q7 -7 2 -11q-6 -6 -12 2q-62 66 -125 101.5t-114 35.5t-82.5 -51.5t-31.5 -136.5q0 -91 165 -120q249 -44 249 -227
q0 -101 -59.5 -160t-171.5 -59q-82 0 -153 46t-114 132q-4 8 0 12l3 2l3 2l3 2q41 -89 109.5 -136t148.5 -47q63 0 96.5 54.5t33.5 147.5q0 99 -176 129q-242 42 -242 211q0 96 60.5 154.5t158.5 58.5q55 0 120 -36.5t129 -105.5z" />
    <glyph glyph-name="sacute" unicode="&#x15b;" horiz-adv-x="519" 
d="M262 600q-16 0 -24.5 12t-2.5 27l27 71q6 16 23.5 28t33.5 12h18q21 0 30 -16.5t-2 -34.5l-43 -70q-6 -10 -23 -19.5t-29 -9.5h-8zM55 127l-1 1q0 2 -3 6t-3 5l3 2l6 2l3 1q24 -62 83.5 -100t132.5 -38q54 0 87 35t33 93q0 33 -35.5 55.5t-102.5 29.5q-95 10 -145.5 52.5
t-50.5 106.5q0 66 54.5 106.5t143.5 40.5q57 0 109.5 -37t83.5 -99l3 -6q3 -5 -2 -7q-7 -4 -9 3q-29 61 -79 98t-104 37q-50 0 -80.5 -35t-30.5 -93q0 -33 33.5 -55.5t96.5 -29.5q101 -10 154.5 -52.5t53.5 -106.5q0 -66 -58 -106t-153 -40q-74 0 -134.5 36t-88.5 95z" />
    <glyph glyph-name="Scircumflex" unicode="&#x15c;" horiz-adv-x="598" 
d="M301 906q-5 2 -8 2t-6 -2t-7 -6l-59 -54q-5 -5 -20 -10.5t-22 -5.5h-17q-14 0 -19 11t3 21l80 96q5 7 21.5 14.5t25.5 7.5h34q9 0 25.5 -7.5t21.5 -14.5l80 -96q8 -10 3 -21t-18 -11h-12h-3h-4h-3h-3h-3h-4h-3h-7q-47 60 -76 76zM512 617q7 -7 2 -11q-6 -6 -12 2
q-62 66 -125 101.5t-114 35.5t-82.5 -51.5t-31.5 -136.5q0 -91 165 -120q249 -44 249 -227q0 -101 -59.5 -160t-171.5 -59q-82 0 -153 46t-114 132q-4 8 0 12l3 2l3 2l3 2q41 -89 109.5 -136t148.5 -47q63 0 96.5 54.5t33.5 147.5q0 99 -176 129q-242 42 -242 211
q0 96 60.5 154.5t158.5 58.5q55 0 120 -36.5t129 -105.5z" />
    <glyph glyph-name="Scedilla" unicode="&#x15e;" horiz-adv-x="598" 
d="M290 -106l-1 -1zM292 -103l-1 -1q11 18 37 18q40 0 64.5 -16.5t24.5 -42.5q0 -43 -24.5 -69.5t-65.5 -26.5q-25 0 -38 18t-8 47q1 0 2 2t2 3t2 0t1 -2q-1 -11 9.5 -17.5t27.5 -6.5q18 0 29 14.5t11 37.5t-10.5 37.5t-27.5 14.5q-23 0 -35 -10zM289 -108h1l-4 3l21 47
q7 17 -1.5 33.5t-25.5 19.5q-66 13 -122 57t-92 116q-4 8 0 12l3 2l3 2l3 2q41 -89 109.5 -136t148.5 -47q63 0 96.5 54.5t33.5 147.5q0 99 -176 129q-242 42 -242 211q0 96 60.5 154.5t158.5 58.5q55 0 120 -36.5t129 -105.5q7 -7 2 -11q-6 -6 -12 2q-62 66 -125 101.5
t-114 35.5t-82.5 -51.5t-31.5 -136.5q0 -91 165 -120q249 -44 249 -227q0 -91 -48.5 -148t-140.5 -68q-13 -2 -34 -15.5t-26 -24.5z" />
    <glyph glyph-name="scedilla" unicode="&#x15f;" horiz-adv-x="519" 
d="M236 -106l-1 -1zM238 -103v1q10 16 36 16q40 0 64.5 -16.5t24.5 -42.5q0 -43 -24.5 -69.5t-65.5 -26.5q-25 0 -38 18t-8 47q1 0 2 2t2 3t2 0t1 -2q-1 -11 9.5 -17.5t27.5 -6.5q18 0 29 14.5t11 37.5t-10.5 37.5t-27.5 14.5q-23 0 -35 -10zM235 -104q0 -1 -1.5 -1.5
t-2.5 0.5q-2 1 -2 5l22 52q7 15 -3.5 31t-27.5 19q-57 12 -101.5 45t-66.5 81q0 2 -2.5 6t-2.5 5l3 2l6 2l3 1q24 -62 83.5 -100t132.5 -38q54 0 87 35t33 93q0 33 -35.5 55.5t-102.5 29.5q-95 10 -145.5 52.5t-50.5 106.5q0 66 54.5 106.5t143.5 40.5q57 0 109.5 -37
t83.5 -99l3 -6q3 -5 -2 -7q-7 -4 -9 3q-29 61 -79 98t-104 37q-50 0 -80.5 -35t-30.5 -93q0 -33 33.5 -55.5t96.5 -29.5q101 -10 154.5 -52.5t53.5 -106.5q0 -59 -47 -97.5t-127 -46.5q-14 -2 -31 -14.5t-22 -25.5z" />
    <glyph glyph-name="Scaron" unicode="&#x160;" horiz-adv-x="598" 
d="M280 910q8 -7 9.5 -8t11.5 2q10 5 23.5 18t24 24.5t19.5 22.5l9 11q4 4 8 4t10.5 -2t11.5 -2h12q13 0 18 -11t-3 -21l-80 -96q-5 -7 -21.5 -14.5t-25.5 -7.5h-34q-9 0 -25.5 7.5t-21.5 14.5l-80 96q-8 10 -3 21t19 11h17q7 0 22 -5.5t20 -10.5zM512 617q7 -7 2 -11
q-6 -6 -12 2q-62 66 -125 101.5t-114 35.5t-82.5 -51.5t-31.5 -136.5q0 -91 165 -120q249 -44 249 -227q0 -101 -59.5 -160t-171.5 -59q-82 0 -153 46t-114 132q-4 8 0 12l3 2l3 2l3 2q41 -89 109.5 -136t148.5 -47q63 0 96.5 54.5t33.5 147.5q0 99 -176 129
q-242 42 -242 211q0 96 60.5 154.5t158.5 58.5q55 0 120 -36.5t129 -105.5z" />
    <glyph glyph-name="scaron" unicode="&#x161;" horiz-adv-x="519" 
d="M252 680q8 -7 9.5 -8t11.5 2q10 5 23.5 18t24 24.5t19.5 22.5l9 11q4 4 8 4t10.5 -2t11.5 -2h12q13 0 18 -11t-3 -21l-80 -96q-5 -7 -21.5 -14.5t-25.5 -7.5h-34q-9 0 -25.5 7.5t-21.5 14.5l-80 96q-8 10 -3 21t19 11h17q7 0 22 -5.5t20 -10.5zM55 127l-1 1q0 2 -3 6
t-3 5l3 2l6 2l3 1q24 -62 83.5 -100t132.5 -38q54 0 87 35t33 93q0 33 -35.5 55.5t-102.5 29.5q-95 10 -145.5 52.5t-50.5 106.5q0 66 54.5 106.5t143.5 40.5q57 0 109.5 -37t83.5 -99l3 -6q3 -5 -2 -7q-7 -4 -9 3q-29 61 -79 98t-104 37q-50 0 -80.5 -35t-30.5 -93
q0 -33 33.5 -55.5t96.5 -29.5q101 -10 154.5 -52.5t53.5 -106.5q0 -66 -58 -106t-153 -40q-74 0 -134.5 36t-88.5 95z" />
    <glyph glyph-name="Tcaron" unicode="&#x164;" horiz-adv-x="595" 
d="M288 910q8 -7 9.5 -8t11.5 2q10 5 23.5 18t24 24.5t19.5 22.5l9 11q4 4 8 4t10.5 -2t11.5 -2h12q13 0 18 -11t-3 -21l-80 -96q-5 -7 -21.5 -14.5t-25.5 -7.5h-34q-9 0 -25.5 7.5t-21.5 14.5l-80 96q-8 10 -3 21t19 11h17q7 0 22 -5.5t20 -10.5zM579 750q6 0 6 -6t-6 -6
h-170q-25 0 -43 -18t-18 -43v-626q0 -21 -15 -36t-35 -15q-21 0 -36 15t-15 36v626q0 25 -18 43t-43 18h-170q-6 0 -6 6t6 6h563z" />
    <glyph glyph-name="tcaron" unicode="&#x165;" horiz-adv-x="345" 
d="M242 710q0 20 15 34.5t36 14.5q20 0 31 -14.5t6 -33.5l-16 -69q-3 -13 -15.5 -23t-25.5 -10q-14 0 -24 9.5t-9 23.5zM310 520q5 0 5 -5q0 -6 -5 -6h-56q-26 0 -43.5 -17.5t-17.5 -43.5v-306q0 -80 3.5 -105.5t17.5 -25.5h96q5 0 5 -5q0 -6 -5 -6h-101q-73 0 -90 27.5
t-17 114.5v321q0 19 -13.5 32.5t-32.5 13.5h-40q-6 0 -6 6q0 5 6 5h40q19 0 32.5 13.5t13.5 32.5v61q0 9 7.5 25t14.5 21l24 21q14 12 29.5 4.5t15.5 -26.5v-91q0 -25 17.5 -43t43.5 -18h56z" />
    <glyph glyph-name="Utilde" unicode="&#x168;" horiz-adv-x="683" 
d="M266 842q-1 -8 -7.5 -14.5t-13.5 -6.5h-13q-16 0 -25 10t-7 25q11 86 63 100q17 5 20 -15v-9l1 -1q-2 28 -3 28q17 0 48 -19.5t48.5 -34.5t24.5 -22q2 -5 2.5 -2.5t3.5 4.5q13 8 16 44q1 8 7.5 14.5t13.5 6.5h14q15 0 24 -10t7 -25q-11 -79 -56 -98q-25 -11 -27 20l-2 11
l-3 35q5 -71 7 -71q-21 0 -63 38t-58 38q-19 0 -22 -46zM588 743q0 7 8 7q7 0 7 -7v-449q0 -150 -65 -226.5t-193 -76.5t-193 76t-65 224v409q0 20 15 35t36 15q20 0 35 -15t15 -35v-392q0 -303 157 -303q120 0 181.5 73.5t61.5 218.5v446z" />
    <glyph glyph-name="utilde" unicode="&#x169;" horiz-adv-x="538" 
d="M191 621q-1 -8 -7.5 -14.5t-13.5 -6.5h-14q-16 0 -25 9.5t-7 25.5q5 40 22 66.5t42 33.5q17 5 20 -15v-9l1 -1q-2 28 -3 28q17 0 48 -19.5t48.5 -34.5t24.5 -22q2 -5 2.5 -2.5t3.5 4.5q13 8 16 44q1 8 7.5 14.5t13.5 6.5h14q15 0 24 -10t7 -25q-11 -79 -56 -98
q-25 -11 -27 20l-2 11l-3 35q5 -71 7 -71q-22 0 -64 38t-58 38q-18 0 -21 -46zM468 45q0 -19 -13 -32t-32 -13t-32 13t-13 32v26q0 3 -5 3.5t-6 -2.5q-17 -38 -51.5 -59.5t-79.5 -21.5q-93 0 -129 48t-36 151v285q0 19 13.5 32t32.5 13t32 -13t13 -32v-285q0 -97 17 -142
t62 -45q61 0 98.5 40t37.5 105v327q0 19 13.5 32t32.5 13t32 -13t13 -32v-430z" />
    <glyph glyph-name="Umacron" unicode="&#x16a;" horiz-adv-x="683" 
d="M237 821q-13 0 -22.5 9.5t-9.5 22.5t9.5 22.5t22.5 9.5h216q13 0 22.5 -9.5t9.5 -22.5t-9.5 -22.5t-22.5 -9.5h-216zM588 743q0 7 8 7q7 0 7 -7v-449q0 -150 -65 -226.5t-193 -76.5t-193 76t-65 224v409q0 20 15 35t36 15q20 0 35 -15t15 -35v-392q0 -303 157 -303
q120 0 181.5 73.5t61.5 218.5v446z" />
    <glyph glyph-name="umacron" unicode="&#x16b;" horiz-adv-x="538" 
d="M162 600q-14 0 -23 9t-9 23t9 23t23 9h216q14 0 23 -9t9 -23t-9 -23t-23 -9h-216zM468 45q0 -19 -13 -32t-32 -13t-32 13t-13 32v26q0 3 -5 3.5t-6 -2.5q-17 -38 -51.5 -59.5t-79.5 -21.5q-93 0 -129 48t-36 151v285q0 19 13.5 32t32.5 13t32 -13t13 -32v-285
q0 -97 17 -142t62 -45q61 0 98.5 40t37.5 105v327q0 19 13.5 32t32.5 13t32 -13t13 -32v-430z" />
    <glyph glyph-name="Ubreve" unicode="&#x16c;" horiz-adv-x="683" 
d="M202 914q-4 16 4.5 25.5t25.5 9.5h12q6 0 14.5 -7.5t10.5 -14.5q15 -51 76 -51t76 51q2 7 10.5 14.5t14.5 7.5h12q17 0 25 -9.5t4 -25.5q-11 -47 -48.5 -74.5t-93.5 -27.5t-94 27.5t-49 74.5zM588 743q0 7 8 7q7 0 7 -7v-449q0 -150 -65 -226.5t-193 -76.5t-193 76
t-65 224v409q0 20 15 35t36 15q20 0 35 -15t15 -35v-392q0 -303 157 -303q120 0 181.5 73.5t61.5 218.5v446z" />
    <glyph glyph-name="ubreve" unicode="&#x16d;" horiz-adv-x="538" 
d="M127 693q-4 16 4.5 25.5t25.5 9.5h11q6 0 14.5 -7.5t10.5 -14.5q15 -51 77 -51q61 0 76 51q2 7 10.5 14.5t14.5 7.5h12q17 0 25 -9.5t4 -25.5q-11 -47 -48.5 -74.5t-93.5 -27.5t-94 27.5t-49 74.5zM468 45q0 -19 -13 -32t-32 -13t-32 13t-13 32v26q0 3 -5 3.5t-6 -2.5
q-17 -38 -51.5 -59.5t-79.5 -21.5q-93 0 -129 48t-36 151v285q0 19 13.5 32t32.5 13t32 -13t13 -32v-285q0 -97 17 -142t62 -45q61 0 98.5 40t37.5 105v327q0 19 13.5 32t32.5 13t32 -13t13 -32v-430z" />
    <glyph glyph-name="Uring" unicode="&#x16e;" horiz-adv-x="683" 
d="M307 906q0 -43 38 -43t38 43q0 42 -38 42t-38 -42zM261 906q0 40 22 62t62 22t62 -22t22 -62q0 -85 -84 -85t-84 85zM588 743q0 7 8 7q7 0 7 -7v-449q0 -150 -65 -226.5t-193 -76.5t-193 76t-65 224v409q0 20 15 35t36 15q20 0 35 -15t15 -35v-392q0 -303 157 -303
q120 0 181.5 73.5t61.5 218.5v446z" />
    <glyph glyph-name="uring" unicode="&#x16f;" horiz-adv-x="538" 
d="M231 685q0 -43 39 -43q38 0 38 43q0 42 -38 42q-39 0 -39 -42zM186 685q0 40 22 62t62 22q39 0 61 -22t22 -62q0 -85 -83 -85q-84 0 -84 85zM468 45q0 -19 -13 -32t-32 -13t-32 13t-13 32v26q0 3 -5 3.5t-6 -2.5q-17 -38 -51.5 -59.5t-79.5 -21.5q-93 0 -129 48t-36 151
v285q0 19 13.5 32t32.5 13t32 -13t13 -32v-285q0 -97 17 -142t62 -45q61 0 98.5 40t37.5 105v327q0 19 13.5 32t32.5 13t32 -13t13 -32v-430z" />
    <glyph glyph-name="Wcircumflex" unicode="&#x174;" horiz-adv-x="771" 
d="M401 906q-10 4 -18 -3l-3 -3l-59 -54q-5 -5 -20 -10.5t-22 -5.5h-17q-14 0 -19 11t3 21l80 96q5 7 21.5 14.5t25.5 7.5h34q9 0 25.5 -7.5t21.5 -14.5l80 -96q8 -10 3 -21t-18 -11h-12h-3h-4h-3h-3h-3h-4h-3h-7q-47 60 -76 76zM752 702l1 -2q-61 -324 -120 -648
q-4 -20 -21.5 -36t-37.5 -16t-37 14t-21 34l-65 345q-4 23 -22 35.5t-38 12.5t-38 -12.5t-23 -35.5l-65 -345q-4 -20 -21 -34t-37 -14t-37 14t-21 34l-120 654l-4 24q-2 10 4 17t16 7h32q21 0 39 -15t22 -36l54 -322q5 -31 32.5 -43.5t55 -0.5t33.5 43l62 326q4 20 21 34
t37 14t37 -14t21 -34l64 -338q4 -23 22 -35.5t38.5 -12.5t38 12.5t21.5 35.5l62 338l3 23l3 17q2 8 10 8q7 0 7 -8z" />
    <glyph glyph-name="Ycircumflex" unicode="&#x176;" horiz-adv-x="599" 
d="M317 906q-5 2 -8 2t-6 -2t-7 -6l-59 -54q-5 -5 -20 -10.5t-22 -5.5h-17q-14 0 -19 11t3 21l80 96q5 7 21.5 14.5t25.5 7.5h34q9 0 25.5 -7.5t21.5 -14.5l80 -96q8 -10 3 -21t-18 -11h-12h-3h-4h-3h-3h-3h-4h-3h-7q-47 60 -76 76zM569 743q5 7 12 7l2 -1h6q-5 -10 -14 -25
q-33 -57 -98 -171.5t-98 -171.5q-2 -2 -6.5 -16.5t-4.5 -17.5v-297q0 -21 -15 -36t-36 -15t-36 15t-15 36v263q0 15 -6 27q-41 70 -116 200.5t-96 167.5q-10 16 -1 29t28 13h22q11 0 25 -8t19 -17l14 -25l185 -324q2 -6 10 -6t10 6z" />
    <glyph glyph-name="Ydieresis" unicode="&#x178;" horiz-adv-x="599" 
d="M382 830q-21 0 -35.5 14.5t-14.5 35.5q0 20 14.5 34.5t35.5 14.5h1q20 0 34.5 -14.5t14.5 -34.5q0 -21 -14.5 -35.5t-34.5 -14.5h-1zM230 830q-21 0 -35.5 14.5t-14.5 35.5q0 20 14.5 34.5t35.5 14.5h1q20 0 34.5 -14.5t14.5 -34.5q0 -21 -14.5 -35.5t-34.5 -14.5h-1z
M569 743q5 7 12 7l2 -1h6q-5 -10 -14 -25q-33 -57 -98 -171.5t-98 -171.5q-2 -2 -6.5 -16.5t-4.5 -17.5v-297q0 -21 -15 -36t-36 -15t-36 15t-15 36v263q0 15 -6 27q-41 70 -116 200.5t-96 167.5q-10 16 -1 29t28 13h22q11 0 25 -8t19 -17l14 -25l185 -324q2 -6 10 -6t10 6z
" />
    <glyph glyph-name="Zacute" unicode="&#x179;" horiz-adv-x="655" 
d="M335 830q-16 0 -24.5 12t-2.5 27l27 71q6 16 23.5 28t33.5 12h18q21 0 30 -16.5t-2 -34.5l-43 -70q-6 -10 -23 -19.5t-29 -9.5h-8zM604 12q6 0 6 -6t-6 -6h-553q-6 0 -6 6q0 8 3 11l391 627q20 33 3 63.5t-56 30.5h-320q-6 0 -6 6t6 6h538q6 0 6 -6q0 -8 -3 -11
l-391 -627q-20 -33 -3 -63.5t56 -30.5h335z" />
    <glyph glyph-name="zacute" unicode="&#x17a;" horiz-adv-x="460" 
d="M243 600q-16 0 -24.5 12t-2.5 27l27 71q6 16 23.5 28t33.5 12h18q20 0 29 -16.5t-1 -34.5l-44 -70q-6 -10 -23 -19.5t-29 -9.5h-7zM390 129q0 3 3 3h44q3 0 3 -3t-3 -3h-44q-3 0 -3 3zM51 509q-6 0 -6 6q0 5 6 5h369q4 0 4 -4t-7 -4q-88 -3 -272 -3h-94zM30 4q0 7 2 7
l266 466q6 10 22.5 20t27.5 11l22 1q19 1 27.5 -13t-0.5 -31l-249 -428q-3 -7 -14.5 -14.5t-18.5 -8.5q-2 -1 1 -2q1 -1 2 -1h313q9 0 9 -5q0 -6 -5 -6h-401q-4 0 -4 4z" />
    <glyph glyph-name="Zdot" unicode="&#x17b;" horiz-adv-x="655" 
d="M335 830q-21 0 -35.5 14.5t-14.5 35.5q0 20 14.5 34.5t35.5 14.5h1q20 0 34.5 -14.5t14.5 -34.5q0 -21 -14.5 -35.5t-34.5 -14.5h-1zM604 12q6 0 6 -6t-6 -6h-553q-6 0 -6 6q0 8 3 11l391 627q20 33 3 63.5t-56 30.5h-320q-6 0 -6 6t6 6h538q6 0 6 -6q0 -8 -3 -11
l-391 -627q-20 -33 -3 -63.5t56 -30.5h335z" />
    <glyph glyph-name="zdot" unicode="&#x17c;" horiz-adv-x="460" 
d="M243 600q-21 0 -35.5 14.5t-14.5 35.5q0 20 14.5 34.5t35.5 14.5q20 0 34.5 -14.5t14.5 -34.5q0 -21 -14.5 -35.5t-34.5 -14.5zM390 129q0 3 3 3h44q3 0 3 -3t-3 -3h-44q-3 0 -3 3zM51 509q-6 0 -6 6q0 5 6 5h369q4 0 4 -4t-7 -4q-88 -3 -272 -3h-94zM30 4q0 7 2 7
l266 466q6 10 22.5 20t27.5 11l22 1q19 1 27.5 -13t-0.5 -31l-249 -428q-3 -7 -14.5 -14.5t-18.5 -8.5q-2 -1 1 -2q1 -1 2 -1h313q9 0 9 -5q0 -6 -5 -6h-401q-4 0 -4 4z" />
    <glyph glyph-name="Zcaron" unicode="&#x17d;" horiz-adv-x="655" 
d="M325 910q8 -7 9.5 -8t11.5 2q10 5 23.5 18t24 24.5t19.5 22.5l9 11q4 4 8 4t10.5 -2t11.5 -2h12q13 0 18 -11t-3 -21l-80 -96q-5 -7 -21.5 -14.5t-25.5 -7.5h-34q-9 0 -25.5 7.5t-21.5 14.5l-80 96q-8 10 -2.5 21t18.5 11h17q7 0 22 -5.5t20 -10.5zM604 12q6 0 6 -6
t-6 -6h-553q-6 0 -6 6q0 8 3 11l391 627q20 33 3 63.5t-56 30.5h-320q-6 0 -6 6t6 6h538q6 0 6 -6q0 -8 -3 -11l-391 -627q-20 -33 -3 -63.5t56 -30.5h335z" />
    <glyph glyph-name="zcaron" unicode="&#x17e;" horiz-adv-x="460" 
d="M233 680q8 -7 9.5 -8t11.5 2q10 5 23.5 18t23.5 24.5t19 22.5l9 11q4 4 8 4t10.5 -2t11.5 -2h12q14 0 19 -11t-4 -21l-79 -96q-5 -7 -21.5 -14.5t-25.5 -7.5h-35q-9 0 -25.5 7.5t-21.5 14.5l-79 96q-8 10 -2.5 21t18.5 11h17q7 0 22 -5.5t20 -10.5zM390 129q0 3 3 3h44
q3 0 3 -3t-3 -3h-44q-3 0 -3 3zM51 509q-6 0 -6 6q0 5 6 5h369q4 0 4 -4t-7 -4q-88 -3 -272 -3h-94zM30 4q0 7 2 7l266 466q6 10 22.5 20t27.5 11l22 1q19 1 27.5 -13t-0.5 -31l-249 -428q-3 -7 -14.5 -14.5t-18.5 -8.5q-2 -1 1 -2q1 -1 2 -1h313q9 0 9 -5q0 -6 -5 -6h-401
q-4 0 -4 4z" />
    <glyph glyph-name="oogonek" unicode="&#x1eb;" horiz-adv-x="754" 
d="M165 298v1q0 -133 60 -214.5t158 -81.5q39 0 71 13q5 2 5.5 6t-3.5 8q-30 30 -46 47q-3 3 1 7t8 0q25 -25 55 -42q14 -11 29 2q97 78 97 254q0 127 -62 211.5t-155 84.5t-155.5 -84.5t-62.5 -211.5zM66 299q0 132 90.5 219.5t226.5 87.5q135 0 225.5 -88t90.5 -220
q0 -91 -39 -160t-109 -108q-10 -5 -9 -16t11 -16q40 -18 97 -37q9 -3 -7 -12q-14 -7 -18 -11l-8 -8l-22 -20q-41 31 -97 81q-4 4 -15 7t-16 2q-42 -8 -84 -8q-142 0 -229.5 84.5t-87.5 222.5z" />
    <glyph glyph-name="Adotabove" unicode="&#x226;" horiz-adv-x="748" 
d="M391 830q-21 0 -35.5 14.5t-14.5 35.5q0 20 14.5 34.5t35.5 14.5h1q20 0 34.5 -14.5t14.5 -34.5q0 -21 -14.5 -35.5t-34.5 -14.5h-1zM313 700h1l9 25l5 13q6 12 18 12h56q16 0 33.5 -12t23.5 -27l259 -660q8 -20 -2.5 -35.5t-31.5 -15.5h-42q-12 0 -18 13l-5 12l-6 17
l-66 167q-6 15 -23.5 27t-33.5 12h-295q-16 0 -33.5 -12t-23.5 -27l-66 -167l-6 -17l-7 -18q-5 -7 -11 -7q-3 0 -4.5 2.5t-0.5 4.5zM191 344q-13 -32 4.5 -58t52.5 -26h190q35 0 52.5 26t4.5 58l-95 245q-16 41 -57 41t-57 -41z" />
    <glyph glyph-name="G_sc" unicode="&#x262;" horiz-adv-x="693" 
d="M441 332q-6 0 -6 6q-2 5 5 5h146q25 0 43 -18t18 -43v-149q0 -10 -8.5 -26.5t-16.5 -22.5q-121 -93 -214 -93q-157 0 -252.5 84.5t-95.5 222.5q0 139 95.5 223.5t252.5 84.5q30 0 62.5 -17.5t57.5 -43t45.5 -50.5t31.5 -43l11 -17l3 -4q3 -5 -1 -9h-1q-5 -5 -10 3
q-45 76 -99.5 122.5t-98.5 46.5q-112 0 -180.5 -81.5t-68.5 -214.5t68.5 -214.5t180.5 -81.5q84 0 202 90q8 6 16 22t8 26v131q0 25 -18 43t-43 18h-133z" />
    <glyph glyph-name="I_sc" unicode="&#x26a;" horiz-adv-x="269" 
d="M184 46q0 -19 -13.5 -32.5t-32.5 -13.5t-32.5 13.5t-13.5 32.5v505q0 19 13.5 32.5t32.5 13.5t32.5 -13.5t13.5 -32.5v-505z" />
    <glyph glyph-name="N_sc" unicode="&#x274;" horiz-adv-x="581" 
d="M129 7q0 -7 -6 -7q-7 0 -7 7v542q0 19 14 33.5t34 14.5h9q14 0 31.5 -11.5t24.5 -24.5l136 -293q13 -28 41.5 -34t52 11t23.5 48v297q0 7 7 7t7 -7v-539q0 -21 -15 -36t-36 -15h-12q-14 0 -31.5 11t-24.5 25l-131 281q-13 28 -41.5 34t-52 -11t-23.5 -48v-285z" />
    <glyph glyph-name="R_sc" unicode="&#x280;" horiz-adv-x="564" 
d="M478 0q-11 0 -28 9t-23 19l-132 204q-11 15 -3 29.5t27 14.5h19q11 0 28 -9t23 -19l137 -210q20 -30 24 -38q2 -3 -1 -3q-2 0 -6 1q-7 2 -10 2h-55zM188 47q0 -19 -13.5 -32.5t-32.5 -13.5t-32.5 13.5t-13.5 32.5v490q0 25 18 43t43 18h145q227 0 227 -179
q0 -140 -227 -140h-57q-23 0 -40 -17t-17 -40v-175zM188 347q0 -23 17 -40t40 -17h57q135 0 135 129q0 168 -136 168h-56q-24 0 -40.5 -16.5t-16.5 -39.5v-184z" />
    <glyph glyph-name="Y_sc" unicode="&#x28f;" horiz-adv-x="539" 
d="M514 597h8l7 -1q-41 -48 -42 -49l-138 -161q-4 -5 -9.5 -19.5t-5.5 -20.5v-300q0 -19 -13.5 -32.5t-32.5 -13.5t-32.5 13.5t-13.5 32.5v262q0 6 -5 20t-9 19l-167 206l-17 19l-10 13q-3 4 -1 8t7 4h56q9 0 25.5 -8t21.5 -15l155 -190q4 -8 16 -8q9 0 17 8l143 167
q24 30 40 46z" />
    <glyph glyph-name="B_sc" unicode="&#x299;" horiz-adv-x="632" 
d="M444 342q-3 -1 -2 -7t4 -7q70 -14 110.5 -55t40.5 -100q0 -94 -56.5 -133.5t-188.5 -39.5h-195q-25 0 -43 18t-18 43v475q0 25 18 43t43 18h158q132 0 188.5 -36.5t56.5 -121.5q0 -33 -30.5 -58.5t-85.5 -38.5zM188 398q0 -26 18 -43.5t43 -17.5l81 -1q61 0 98 26.5
t37 70.5q0 82 -34.5 117.5t-114.5 35.5h-67q-25 0 -43 -18t-18 -43v-127zM188 72q0 -25 18 -43t43 -18h99q81 0 115.5 39.5t34.5 132.5q0 65 -34.5 104.5t-90.5 39.5h-124q-25 0 -43 -18t-18 -43v-194z" />
    <glyph glyph-name="H_sc" unicode="&#x29c;" horiz-adv-x="668" 
d="M583 46q0 -19 -13 -32.5t-32 -13.5q-20 0 -33 13t-13 33v190q0 25 -18 43t-43 18h-182q-25 0 -43 -18t-18 -43v-190q0 -19 -13.5 -32.5t-32.5 -13.5t-32.5 13.5t-13.5 32.5v505q0 19 13.5 32.5t32.5 13.5t32.5 -13.5t13.5 -32.5v-181q0 -25 18 -43t43 -18h182q25 0 43 18
t18 43v182q0 19 13.5 32t32.5 13t32 -13t13 -32v-506z" />
    <glyph glyph-name="L_sc" unicode="&#x29f;" horiz-adv-x="479" 
d="M444 11q5 0 5 -5q0 -6 -5 -6h-291q-25 0 -43 18t-18 43v490q0 19 13.5 32.5t32.5 13.5t32.5 -13.5t13.5 -32.5v-479q0 -25 18 -43t43 -18h199z" />
    <glyph glyph-name="circumflex" unicode="&#x2c6;" horiz-adv-x="340" 
d="M181 676q-5 2 -9 1.5t-4.5 -1t-7.5 -6.5l-59 -54q-5 -5 -20 -10.5t-22 -5.5h-17q-14 0 -19 11t3 21l80 96q5 7 21.5 14.5t25.5 7.5h34q9 0 25.5 -7.5t21.5 -14.5l80 -96q8 -10 3 -21t-18 -11h-12h-3h-4h-3h-3h-3h-4h-3h-7q-47 60 -76 76z" />
    <glyph glyph-name="caron" unicode="&#x2c7;" horiz-adv-x="340" 
d="M160 680q8 -7 9.5 -8t11.5 2q10 5 23.5 18t24 24.5t19.5 22.5l9 11q4 4 8 4t10.5 -2t11.5 -2h12q13 0 18 -11t-3 -21l-80 -96q-5 -7 -21.5 -14.5t-25.5 -7.5h-34q-9 0 -25.5 7.5t-21.5 14.5l-80 96q-8 10 -3 21t19 11h17q7 0 22 -5.5t20 -10.5z" />
    <glyph glyph-name="firsttonechinese" unicode="&#x2c9;" horiz-adv-x="340" 
d="M62 600q-14 0 -23 9t-9 23t9 23t23 9h216q14 0 23 -9t9 -23t-9 -23t-23 -9h-216z" />
    <glyph glyph-name="breve" unicode="&#x2d8;" horiz-adv-x="340" 
d="M27 693q-4 16 4.5 25.5t25.5 9.5h12q6 0 14.5 -7.5t10.5 -14.5q15 -51 76 -51t76 51q2 7 10.5 14.5t14.5 7.5h12q17 0 25 -9.5t4 -25.5q-11 -47 -48.5 -74.5t-93.5 -27.5t-94 27.5t-49 74.5z" />
    <glyph glyph-name="dotaccent" unicode="&#x2d9;" horiz-adv-x="340" 
d="M170 600q-21 0 -35.5 14.5t-14.5 35.5q0 20 14.5 34.5t35.5 14.5h1q20 0 34.5 -14.5t14.5 -34.5q0 -21 -14.5 -35.5t-34.5 -14.5h-1z" />
    <glyph glyph-name="ring" unicode="&#x2da;" horiz-adv-x="340" 
d="M132 685q0 -43 38 -43t38 43q0 42 -38 42t-38 -42zM86 685q0 40 22 62t62 22t62 -22t22 -62q0 -85 -84 -85t-84 85z" />
    <glyph glyph-name="A_sc" unicode="&#x1d00;" horiz-adv-x="685" 
d="M43 0q-4 0 -2 2q3 8 21 48q42 93 226 505q6 14 25 28t34 14h18q15 0 32.5 -11.5t23.5 -24.5l236 -522q2 -5 10 -22l8 -17q2 -4 -2 -3q-2 0 -5 1l-10 2h-38q-15 0 -32.5 11t-23.5 25l-56 125q-6 14 -23.5 25t-32.5 11h-269q-15 0 -32.5 -11t-23.5 -25l-69 -154
q-2 -7 -10 -7h-5zM185 293q-14 -32 3.5 -59t53.5 -27h149q36 0 53.5 27t2.5 60l-75 167q-17 39 -56 39t-56 -39z" />
    <glyph glyph-name="C_sc" unicode="&#x1d04;" horiz-adv-x="643" 
d="M608 171q5 7 9 4q2 -1 2.5 -5.5t-1.5 -6.5q-37 -78 -100.5 -125t-132.5 -47q-143 0 -234 89.5t-91 217.5t91 218t234 90q37 0 74 -17.5t64.5 -43t49.5 -50.5t33 -43l11 -17l3 -4q4 -6 -1 -8l-1 -1q-5 -5 -11 3q-46 76 -106.5 122.5t-114.5 46.5q-100 0 -163 -86.5
t-63 -209.5t63 -209.5t163 -86.5q64 0 125 46t97 123z" />
    <glyph glyph-name="D_sc" unicode="&#x1d05;" horiz-adv-x="705" 
d="M320 0h-163q-25 0 -43 18t-18 43v475q0 25 18 43t43 18h133q178 0 269 -75.5t91 -223.5q0 -152 -81 -225t-249 -73zM188 72q0 -25 18 -43t43 -18h70q118 0 175 70.5t57 216.5q0 288 -260 288h-51q-22 0 -37 -15t-15 -36v-463z" />
    <glyph glyph-name="E_sc" unicode="&#x1d07;" horiz-adv-x="553" 
d="M498 11q5 0 5 -5q0 -6 -5 -6h-341q-25 0 -43 18t-18 43v475q0 25 18 43t43 18h325q6 0 6 -6t-6 -6h-19h-25q-35 0 -108.5 0.5t-106.5 0.5q-15 0 -25 -11t-10 -26v-175q0 -25 18 -43t43 -18h214q5 0 5 -5t-5 -5h-214q-25 0 -43 -18t-18 -43v-170q0 -25 18 -43t43 -18h249z
" />
    <glyph glyph-name="J_sc" unicode="&#x1d0a;" horiz-adv-x="469" 
d="M58 250q0 13 9 23.5t22 12.5l35 7q11 2 18.5 -5t7.5 -17v-26q0 -241 71 -241q34 0 52.5 46t18.5 125v376q0 19 13.5 32.5t32.5 13.5t32.5 -13.5t13.5 -32.5v-376q0 -85 -42 -134.5t-121 -49.5q-84 0 -123.5 54.5t-39.5 172.5v32z" />
    <glyph glyph-name="K_sc" unicode="&#x1d0b;" horiz-adv-x="584" 
d="M496 592l12 6h1q2 0 3 -2t0 -3l-6 -7l-158 -173q-13 -14 -14.5 -37t9.5 -39l196 -286q22 -32 28 -40l4 -5q3 -5 -3 -5h-67q-10 0 -26.5 8.5t-22.5 16.5l-177 242q-11 14 -27.5 15t-28.5 -12l-15 -15q-5 -5 -10.5 -20t-5.5 -22v-167q0 -19 -13.5 -32.5t-32.5 -13.5
t-32.5 13.5t-13.5 32.5v505q0 19 13.5 32.5t32.5 13.5t32.5 -13.5t13.5 -32.5v-139q0 -44 38.5 -59t68.5 17l166 183q2 2 35 38z" />
    <glyph glyph-name="M_sc" unicode="&#x1d0d;" horiz-adv-x="752" 
d="M129 7q0 -7 -6 -7q-7 0 -7 7v544q0 19 14 32.5t33 13.5h1q18 0 35.5 -13t22.5 -30l109 -348q9 -28 33.5 -39t49.5 0t34 39l109 348q6 17 23.5 30t35.5 13h3q19 0 33.5 -14.5t14.5 -33.5v-505q0 -18 -13 -31t-31 -13t-31 13t-13 31v248q0 23 -19 35t-40.5 6t-28.5 -28
l-84 -266q-5 -15 -21 -27t-32 -12t-32 12t-21 27l-84 265q-7 22 -28.5 28t-40.5 -6t-19 -35v-284z" />
    <glyph glyph-name="O_sc" unicode="&#x1d0f;" horiz-adv-x="754" 
d="M165 298q0 -133 60 -214.5t158 -81.5t157.5 81.5t59.5 214.5q0 127 -62 211.5t-155 84.5t-155.5 -84.5t-62.5 -211.5zM66 298q0 132 90.5 220t226.5 88q135 0 225.5 -88t90.5 -220q0 -138 -87 -222.5t-229 -84.5t-229.5 84.5t-87.5 222.5z" />
    <glyph glyph-name="P_sc" unicode="&#x1d18;" horiz-adv-x="564" 
d="M188 46q0 -19 -13.5 -32.5t-32.5 -13.5t-32.5 13.5t-13.5 32.5v490q0 25 18 43t43 18h145q227 0 227 -179q0 -156 -227 -156h-57q-23 0 -40 -17t-17 -40v-159zM188 331q0 -24 17 -41t41 -17h57q134 0 134 145q0 168 -136 168h-56q-24 0 -40.5 -16.5t-16.5 -39.5v-199z
" />
    <glyph glyph-name="T_sc" unicode="&#x1d1b;" horiz-adv-x="535" 
d="M519 597q6 0 6 -6t-6 -6h-145q-25 0 -43 -18t-18 -43v-478q0 -19 -13 -32.5t-32 -13.5q-20 0 -33 13t-13 33v478q0 25 -18 43t-43 18h-145q-6 0 -6 6t6 6h503z" />
    <glyph glyph-name="U_sc" unicode="&#x1d1c;" horiz-adv-x="615" 
d="M522 591q0 6 7 6q6 0 6 -6v-357q0 -120 -56.5 -181.5t-166.5 -61.5t-166.5 60.5t-56.5 179.5v320q0 19 13.5 32.5t32.5 13.5t32.5 -13.5t13.5 -32.5v-304q0 -243 131 -243q210 0 210 233v354z" />
    <glyph glyph-name="V_sc" unicode="&#x1d20;" horiz-adv-x="513" 
d="M486 590q2 7 10 7h7q-11 -34 -14 -41l-171 -516q-5 -16 -22 -28t-33 -12q-17 0 -34 12t-22 28l-172 514l-7 22q-3 8 2 14.5t14 6.5h71q6 0 6 -5q7 -20 13 -39l107 -349q14 -44 58.5 -44.5t58.5 43.5z" />
    <glyph glyph-name="W_sc" unicode="&#x1d21;" horiz-adv-x="703" 
d="M684 554l-110 -510q-4 -18 -19.5 -31t-33.5 -13q-19 0 -34.5 13t-19.5 31l-52 241q-5 23 -23 35.5t-37.5 12.5t-37 -12.5t-22.5 -35.5l-53 -242q-4 -17 -19.5 -30t-33.5 -13t-33.5 13t-19.5 30l-108 511l-3 17l-2 13q-1 4 2 8t8 4h61q10 0 19 -7.5t11 -17.5l5 -25
q23 -127 82 -427q2 -14 17 -16t18 12l94 438q4 17 19.5 30t33.5 13t33.5 -13t19.5 -30l53 -242q6 -30 33 -42t53.5 0t33.5 42l56 278q2 7 10 7q6 0 6 -7l-4 -18z" />
    <glyph glyph-name="Z_sc" unicode="&#x1d22;" horiz-adv-x="595" 
d="M545 11q5 0 5 -5q0 -6 -5 -6h-494q-6 0 -6 6t3 9l336 473q23 33 6.5 65t-56.5 32h-268q-6 0 -6 6t6 6h478q6 0 6 -6q0 -5 -3 -11l-336 -472q-23 -33 -6.5 -65t56.5 -32h284z" />
    <glyph glyph-name="Wgrave" unicode="&#x1e80;" horiz-adv-x="771" 
d="M382 830q-12 0 -29 9.5t-23 19.5l-43 70q-11 18 -2 34.5t30 16.5h18q16 0 33.5 -12t23.5 -28l27 -71q6 -15 -2.5 -27t-24.5 -12h-8zM752 702l1 -2q-61 -324 -120 -648q-4 -20 -21.5 -36t-37.5 -16t-37 14t-21 34l-65 345q-4 23 -22 35.5t-38 12.5t-38 -12.5t-23 -35.5
l-65 -345q-4 -20 -21 -34t-37 -14t-37 14t-21 34l-120 654l-4 24q-2 10 4 17t16 7h32q21 0 39 -15t22 -36l54 -322q5 -31 32.5 -43.5t55 -0.5t33.5 43l62 326q4 20 21 34t37 14t37 -14t21 -34l64 -338q4 -23 22 -35.5t38.5 -12.5t38 12.5t21.5 35.5l62 338l3 23l3 17
q2 8 10 8q7 0 7 -8z" />
    <glyph glyph-name="Wacute" unicode="&#x1e82;" horiz-adv-x="771" 
d="M390 830q-16 0 -24.5 12t-2.5 27l27 71q6 16 23.5 28t33.5 12h18q21 0 30 -16.5t-2 -34.5l-43 -70q-6 -10 -23 -19.5t-29 -9.5h-8zM752 702l1 -2q-61 -324 -120 -648q-4 -20 -21.5 -36t-37.5 -16t-37 14t-21 34l-65 345q-4 23 -22 35.5t-38 12.5t-38 -12.5t-23 -35.5
l-65 -345q-4 -20 -21 -34t-37 -14t-37 14t-21 34l-120 654l-4 24q-2 10 4 17t16 7h32q21 0 39 -15t22 -36l54 -322q5 -31 32.5 -43.5t55 -0.5t33.5 43l62 326q4 20 21 34t37 14t37 -14t21 -34l64 -338q4 -23 22 -35.5t38.5 -12.5t38 12.5t21.5 35.5l62 338l3 23l3 17
q2 8 10 8q7 0 7 -8z" />
    <glyph glyph-name="Wdieresis" unicode="&#x1e84;" horiz-adv-x="771" 
d="M466 830q-21 0 -35.5 14.5t-14.5 35.5q0 20 14.5 34.5t35.5 14.5h1q20 0 34.5 -14.5t14.5 -34.5q0 -21 -14.5 -35.5t-34.5 -14.5h-1zM314 830q-21 0 -35.5 14.5t-14.5 35.5q0 20 14.5 34.5t35.5 14.5h1q20 0 34.5 -14.5t14.5 -34.5q0 -21 -14.5 -35.5t-34.5 -14.5h-1z
M752 702l1 -2q-61 -324 -120 -648q-4 -20 -21.5 -36t-37.5 -16t-37 14t-21 34l-65 345q-4 23 -22 35.5t-38 12.5t-38 -12.5t-23 -35.5l-65 -345q-4 -20 -21 -34t-37 -14t-37 14t-21 34l-120 654l-4 24q-2 10 4 17t16 7h32q21 0 39 -15t22 -36l54 -322q5 -31 32.5 -43.5
t55 -0.5t33.5 43l62 326q4 20 21 34t37 14t37 -14t21 -34l64 -338q4 -23 22 -35.5t38.5 -12.5t38 12.5t21.5 35.5l62 338l3 23l3 17q2 8 10 8q7 0 7 -8z" />
    <glyph glyph-name="Etilde" unicode="&#x1ebc;" horiz-adv-x="620" 
d="M246 851q-1 -8 -7.5 -14.5t-13.5 -6.5h-14q-16 0 -25 9.5t-7 25.5q5 40 22 66.5t42 33.5q17 5 20 -15v-9l1 -1q-2 28 -3 28q17 0 48 -19.5t48.5 -34.5t24.5 -22q2 -5 2.5 -2.5t3.5 4.5q13 8 16 44q1 8 7.5 14.5t13.5 6.5h14q15 0 24 -10t7 -25q-11 -79 -56 -98
q-25 -11 -27 20l-2 11l-3 35q5 -71 7 -71q-21 0 -64 38t-58 38q-18 0 -21 -46zM564 12q6 0 6 -6t-6 -6h-409q-25 0 -43 18t-18 43v628q0 25 18 43t43 18h394q6 0 6 -6t-6 -6h-293q-25 0 -43 -18t-18 -43v-223q0 -25 18 -43t43 -18h273q6 0 6 -6t-6 -6h-273q-25 0 -43 -18
t-18 -43v-247q0 -25 18 -43t43 -18h308z" />
    <glyph glyph-name="Ygrave" unicode="&#x1ef2;" horiz-adv-x="599" 
d="M298 830q-12 0 -29 9.5t-23 19.5l-43 70q-11 18 -2 34.5t30 16.5h18q16 0 33.5 -12t23.5 -28l27 -71q6 -15 -2.5 -27t-24.5 -12h-8zM569 743q5 7 12 7l2 -1h6q-5 -10 -14 -25q-33 -57 -98 -171.5t-98 -171.5q-2 -2 -6.5 -16.5t-4.5 -17.5v-297q0 -21 -15 -36t-36 -15
t-36 15t-15 36v263q0 15 -6 27q-41 70 -116 200.5t-96 167.5q-10 16 -1 29t28 13h22q11 0 25 -8t19 -17l14 -25l185 -324q2 -6 10 -6t10 6z" />
    <glyph glyph-name="endash" unicode="&#x2013;" horiz-adv-x="410" 
d="M43 225q-16 0 -27 11t-11 27t11 27t27 11h324q16 0 27 -11t11 -27t-11 -27t-27 -11h-324z" />
    <glyph glyph-name="emdash" unicode="&#x2014;" horiz-adv-x="700" 
d="M88 225q-16 0 -27 11t-11 27t11 27t27 11h524q16 0 27 -11t11 -27t-11 -27t-27 -11h-524z" />
    <glyph glyph-name="quoteleft" unicode="&#x2018;" horiz-adv-x="199" 
d="M124 757q12 2 18.5 -4t6.5 -18v-10q0 -4 -4.5 -9t-8.5 -7q-20 -7 -25 -40q-2 -18 17 -18h2q8 0 13.5 -5.5t5.5 -13.5v-30q0 -21 -14.5 -35.5t-34.5 -14.5q-21 0 -35.5 14.5t-14.5 35.5v49q0 93 74 106z" />
    <glyph glyph-name="quoteright" unicode="&#x2019;" horiz-adv-x="199" 
d="M100 710q0 20 14.5 34.5t35.5 14.5q20 0 34.5 -14.5t14.5 -34.5v-50q0 -51 -17 -76.5t-57 -30.5q-25 -2 -25 23v10q0 11 13 16q21 5 25 38q2 20 -18 20q-8 0 -14 6t-6 14v30z" />
    <glyph glyph-name="quotedblleft" unicode="&#x201c;" horiz-adv-x="397" 
d="M323 757q12 2 18.5 -4t6.5 -18v-10q0 -4 -4.5 -9t-8.5 -7q-20 -7 -25 -40q-2 -18 17 -18h2q7 0 13 -5.5t6 -13.5v-30q0 -21 -14.5 -35.5t-34.5 -14.5q-21 0 -35.5 14.5t-14.5 35.5v49q0 93 74 106zM174 757q12 2 18.5 -4t6.5 -18v-10q0 -4 -4.5 -9t-8.5 -7
q-20 -7 -25 -40q-2 -18 17 -18h2q8 0 13.5 -5.5t5.5 -13.5v-30q0 -21 -14.5 -35.5t-34.5 -14.5q-21 0 -35.5 14.5t-14.5 35.5v49q0 93 74 106z" />
    <glyph glyph-name="quotedblright" unicode="&#x201d;" horiz-adv-x="397" 
d="M249 710q0 20 14.5 34.5t35.5 14.5q20 0 34.5 -14.5t14.5 -34.5v-50q0 -51 -17 -76.5t-57 -30.5q-25 -2 -25 23v10q0 11 13 16q21 5 25 38q2 20 -18 20q-8 0 -14 6t-6 14v30zM100 710q0 20 14.5 34.5t35.5 14.5q20 0 34.5 -14.5t14.5 -34.5v-50q0 -51 -17 -76.5
t-57 -30.5q-25 -2 -25 23v10q0 11 13 16q21 5 25 38q2 20 -18 20q-8 0 -14 6t-6 14v30z" />
    <glyph glyph-name="dagger" unicode="&#x2020;" horiz-adv-x="551" 
d="M452 580q16 0 27.5 -11.5t11.5 -27.5t-11.5 -28t-27.5 -12h-70q-25 0 -43 -18t-18 -43v-445q0 -19 -13 -32t-32 -13t-32.5 13t-13.5 32v445q0 25 -18 43t-43 18h-69q-16 0 -28 11.5t-12 28.5q0 16 12 27.5t28 11.5h69q25 0 43 18t18 43v64q0 19 13.5 32t32.5 13t32 -13
t13 -32v-64q0 -25 18 -43t43 -18h70z" />
    <glyph glyph-name="daggerdbl" unicode="&#x2021;" horiz-adv-x="551" 
d="M100 120q-16 0 -28 12t-12 28t12 27.5t28 11.5h69q25 0 43 18t18 43v180q0 25 -18 43t-43 18h-69q-16 0 -28 11.5t-12 28.5q0 16 12 27.5t28 11.5h69q25 0 43 18t18 43v64q0 19 13.5 32t32.5 13t32 -13t13 -32v-64q0 -25 18 -43t43 -18h70q16 0 27.5 -11.5t11.5 -27.5
t-11.5 -28t-27.5 -12h-70q-25 0 -43 -18t-18 -43v-180q0 -25 18 -43t43 -18h70q16 0 27.5 -11.5t11.5 -27.5t-11.5 -28t-27.5 -12h-70q-25 0 -43 -18t-18 -43v-64q0 -19 -13 -32t-32 -13q-20 0 -33 13t-13 33v63q0 25 -18 43t-43 18h-69z" />
    <glyph glyph-name="bullet" unicode="&#x2022;" horiz-adv-x="199" 
d="M100 210q-21 0 -35.5 14.5t-14.5 35.5v1q0 20 14.5 34.5t35.5 14.5q20 0 34.5 -14.5t14.5 -34.5v-1q0 -21 -14.5 -35.5t-34.5 -14.5z" />
    <glyph glyph-name="ellipsis" unicode="&#x2026;" horiz-adv-x="547" 
d="M449 0q-21 0 -35.5 14.5t-14.5 35.5q0 20 14.5 34.5t35.5 14.5q20 0 34.5 -14.5t14.5 -34.5q0 -21 -14.5 -35.5t-34.5 -14.5zM274 0q-21 0 -35.5 14.5t-14.5 35.5q0 20 14.5 34.5t35.5 14.5h1q20 0 34.5 -14.5t14.5 -34.5q0 -21 -14.5 -35.5t-34.5 -14.5h-1zM100 0
q-21 0 -35.5 14.5t-14.5 35.5q0 20 14.5 34.5t35.5 14.5q20 0 34.5 -14.5t14.5 -34.5q0 -21 -14.5 -35.5t-34.5 -14.5z" />
    <glyph glyph-name="perthousand" unicode="&#x2030;" horiz-adv-x="764" 
d="M855 -2q35 0 53.5 38.5t18.5 104.5t-18.5 104.5t-53.5 38.5q-34 0 -52.5 -38.5t-18.5 -104.5t18.5 -104.5t52.5 -38.5zM855 -9q-59 0 -91 40.5t-32 109.5t32 109.5t91 40.5t91 -40.5t32 -109.5t-32 -109.5t-91 -40.5zM584 -2q34 0 52.5 38.5t18.5 104.5t-18.5 104.5
t-52.5 38.5q-35 0 -53.5 -38.5t-18.5 -104.5t18.5 -104.5t53.5 -38.5zM584 -9q-59 0 -91 40.5t-32 109.5t32 109.5t91 40.5t91 -40.5t32 -109.5t-32 -109.5t-91 -40.5zM180 466q35 0 53.5 38.5t18.5 104.5t-18.5 104.5t-53.5 38.5q-34 0 -52.5 -38.5t-18.5 -104.5
t18.5 -104.5t52.5 -38.5zM180 459q-59 0 -91 40.5t-32 109.5t32 109.5t91 40.5t91 -40.5t32 -109.5t-32 -109.5t-91 -40.5zM176 0q-6 0 -8.5 4.5t0.5 9.5l396 722q8 14 24 14q6 0 8.5 -4.5t-0.5 -9.5l-396 -722q-8 -14 -24 -14z" />
    <glyph glyph-name="guilsinglleft" unicode="&#x2039;" horiz-adv-x="265" 
d="M177 443q6 9 23 18t28 9h7q14 0 19.5 -11t-1.5 -22l-95 -143q-9 -13 -9 -34t9 -34l95 -143q7 -11 1.5 -22t-19.5 -11h-7q-11 0 -28 9t-23 18l-99 149q-9 13 -9 34t9 34z" />
    <glyph glyph-name="guilsinglright" unicode="&#x203a;" horiz-adv-x="265" 
d="M87 437q-7 11 -1.5 22t19.5 11h7q11 0 28 -9t23 -18l99 -149q9 -13 9 -34t-9 -34l-99 -149q-6 -9 -23 -18t-28 -9h-7q-14 0 -19.5 11t1.5 22l95 143q9 13 9 34t-9 34z" />
    <glyph glyph-name="fraction" unicode="&#x2044;" horiz-adv-x="564" 
d="M76 0q-6 0 -8.5 4.5t0.5 9.5l396 722q8 14 24 14q6 0 8.5 -4.5t-0.5 -9.5l-396 -722q-8 -14 -24 -14z" />
    <glyph glyph-name="Euro" unicode="&#x20ac;" horiz-adv-x="701" 
d="M28 294q-10 0 -17 7.5t-5 18.5q1 10 9.5 17.5t19.5 7.5h15q10 0 10 9q-2 21 0 42q0 9 -10 9h-15q-10 0 -17 7t-6 18l1 1q1 10 9.5 17.5t19.5 7.5q9 0 18.5 8t12.5 17q30 122 123 200t223 78q70 0 140.5 -47t116.5 -125q6 -8 0 -12q-5 -5 -11 3q-46 76 -113.5 122.5
t-132.5 46.5q-80 0 -141 -60.5t-89 -159.5q-9 -31 7 -51t49 -20h205q10 0 17 -7.5t6 -17.5t-10 -18t-20 -8h-264q-10 0 -10 -9q-1 -21 0 -42q0 -9 10 -9h264q10 0 17 -7.5t6 -17.5t-10 -18t-20 -8h-191q-33 0 -49 -20t-7 -51q28 -99 89 -159.5t141 -60.5q75 0 143 46.5
t104 122.5q5 7 10 4q5 -5 1 -13q-37 -78 -107.5 -125t-150.5 -47q-126 0 -218 74t-125 191q-3 12 -16.5 25t-24.5 13h-7z" />
    <glyph glyph-name="minus" unicode="&#x2212;" horiz-adv-x="615" 
d="M78 235q-11 0 -19.5 8.5t-8.5 19.5t8.5 19.5t19.5 8.5h459q11 0 19.5 -8.5t8.5 -19.5t-8.5 -19.5t-19.5 -8.5h-459z" />
    <glyph glyph-name="divisionslash" unicode="&#x2215;" horiz-adv-x="444" 
d="M16 0q-6 0 -8.5 4.5t0.5 9.5l396 722q8 14 24 14q6 0 8.5 -4.5t-0.5 -9.5l-396 -722q-8 -14 -24 -14z" />
    <glyph glyph-name="bulletoperator" unicode="&#x2219;" horiz-adv-x="199" 
d="M100 210q-21 0 -35.5 14.5t-14.5 35.5v1q0 20 14.5 34.5t35.5 14.5q20 0 34.5 -14.5t14.5 -34.5v-1q0 -21 -14.5 -35.5t-34.5 -14.5z" />
    <glyph glyph-name="F_sc" unicode="&#xa730;" horiz-adv-x="518" 
d="M453 313q5 0 5 -5t-5 -5h-204q-25 0 -43 -18t-18 -43v-196q0 -19 -13.5 -32.5t-32.5 -13.5t-32.5 13.5t-13.5 32.5v490q0 25 18 43t43 18h325q6 0 6 -6t-6 -6h-19h-25q-35 0 -108.5 0.5t-106.5 0.5q-15 0 -25 -11t-10 -26v-175q0 -25 18 -43t43 -18h204z" />
    <glyph glyph-name="S_sc" unicode="&#xa731;" horiz-adv-x="528" 
d="M441 464q8 -6 3 -11q-4 -5 -11 2q-127 138 -202 138q-41 0 -65.5 -40.5t-24.5 -107.5q0 -72 137 -92q215 -32 215 -186q0 -81 -51.5 -128.5t-147.5 -47.5q-65 0 -125.5 46t-103.5 132q-1 2 -0.5 7t2.5 6q2 2 5.5 0t4.5 -5q41 -84 98.5 -129t118.5 -45q52 0 79.5 43
t27.5 118q0 76 -148 97q-207 30 -207 174q0 77 51 124t134 47q80 0 210 -142z" />
    <glyph glyph-name="X_sc" unicode="&#xf078;" horiz-adv-x="572" 
d="M69 6q-1 -2 -12 -7q-7 0 -3 6l13 15l190 227q11 14 12.5 35.5t-7.5 36.5l-142 227l-4 6l-13 22q-5 8 -1 14.5t12 6.5h66h6q7 -10 16 -25q22 -36 63.5 -101.5t51.5 -82.5q9 -14 25 -16.5t27 10.5l138 165q-1 0 2.5 4t11 12.5t10.5 12.5l13 15q6 6 13 6q2 0 3.5 -2.5
t-0.5 -3.5l-13 -15l-170 -204q-11 -14 -13 -35.5t7 -36.5l156 -250l4 -6l14 -21q4 -8 0 -15t-12 -7h-66h-6q-7 10 -16 25q-21 34 -63.5 102t-63.5 102q-11 16 -28.5 18t-29.5 -12l-154 -184q1 0 -2.5 -4t-11 -12.5t-10.5 -12.5z" />
  </font>
</defs>
</svg>
