<svg aria-hidden="true" style="position:absolute;width:0;height:0" xmlns="http://www.w3.org/2000/svg" overflow="hidden"><defs><symbol id="icon-helm" viewBox="0 0 32 32"><path fill="var(--color1, #ffd600)" d="M31.219 14.737c-.3 0-1.441.421-2.041.662-.06-.241-.3-.421-.6-.421s-.601.18-.601.421l-1.141-.18a10.886 10.886 0 00-2.642-6.376l.66-.962c.18.12.54.12.72-.12.24-.241.3-.541.12-.722.601-.241 1.741-.722 1.921-.962.24-.301.06-.902-.36-1.383-.48-.421-1.081-.601-1.381-.361-.24.18-.721 1.323-.961 1.925-.18-.12-.54-.06-.72.12-.24.241-.3.541-.12.722l-.961.662a11.009 11.009 0 00-6.364-2.647l-.18-1.143c.24-.06.42-.301.42-.602s-.18-.541-.42-.602c.24-.602.66-1.744.66-2.045-.06-.421-.6-.722-1.261-.722s-1.201.301-1.261.722c0 .301.42 1.444.66 2.045-.24.06-.42.301-.42.602s.18.602.42.602l-.18 1.143a10.84 10.84 0 00-6.364 2.647L7.861 7.1c.12-.18.12-.541-.12-.722-.24-.241-.54-.301-.72-.12-.24-.601-.72-1.684-.961-1.925-.3-.241-.901-.06-1.321.421-.48.421-.66 1.023-.42 1.383.18.241 1.321.722 1.921.962-.12.18-.06.541.12.722.24.241.54.301.72.12l.66.962a11.048 11.048 0 00-2.642 6.376l-1.141.18c-.06-.241-.3-.421-.6-.421s-.54.18-.6.421c-.6-.241-1.741-.662-2.041-.662-.42.06-.72.601-.72 1.263s.3 1.203.72 1.263c.3 0 1.441-.421 2.041-.662.06.241.3.421.6.421s.6-.18.6-.421l1.141.18a10.886 10.886 0 002.642 6.376l-.6.902c-.18-.12-.54-.12-.72.12-.24.241-.3.541-.12.722-.6.241-1.681.722-1.921.963-.24.301-.06.902.36 1.383.48.481 1.081.662 1.381.361.24-.18.72-1.323.961-1.925.18.12.54.06.72-.12.24-.241.3-.541.12-.722l.961-.662a11.009 11.009 0 006.364 2.647l.18 1.143c-.24.06-.42.301-.42.602s.18.541.42.601c-.24.602-.66 1.744-.66 2.045.06.421.6.722 1.261.722s1.201-.301 1.261-.722c0-.301-.42-1.444-.66-2.045.24-.06.42-.301.42-.601s-.18-.602-.42-.602l.18-1.143a10.84 10.84 0 006.364-2.647l.961.662c-.12.18-.12.541.12.722.24.241.54.301.72.12.24.601.72 1.744.961 1.925.3.241.9.06 1.381-.361.48-.481.66-1.083.36-1.383-.18-.241-1.321-.722-1.921-.963.12-.18.06-.541-.12-.722-.24-.241-.54-.301-.72-.12l-.66-.962a11.048 11.048 0 002.642-6.376l1.141-.18c.06.241.3.421.6.421s.54-.18.6-.421c.601.241 1.741.662 2.041.662.42-.06.72-.602.72-1.263-.12-.601-.42-1.203-.781-1.263zM6.604 16.421c-.24 0-.42-.18-.42-.421s.18-.421.42-.421.42.18.42.421-.18.421-.42.421zm15.67-7.338c.18-.18.42-.18.6 0s.18.421 0 .601-.42.18-.6 0a.547.547 0 010-.601zM15.97 6.256c.24 0 .42.18.42.421s-.18.421-.42.421-.42-.18-.42-.421.18-.421.42-.421zM9.066 9.083c.18-.18.42-.18.6 0s.18.421 0 .601-.42.18-.6 0a.547.547 0 010-.601zm1.08 1.744l.48.481c.12.12.24.12.36.06l.66.662c-.18.421 0 1.083.54 1.624.6.601 1.441.782 1.801.421a2.642 2.642 0 00-.78 1.865v-.18h-2.341c-.06 0-.12-.06-.12-.18s.06-.18.12-.18h2.462v-.06c0-.18-.18-.361-.36-.361h-2.341c-.12 0-.42.361-.6.662h-.72c-.06-.12-.18-.241-.3-.241h-.78c.12-1.684.78-3.308 1.921-4.571zm-.48 12.09c-.18.18-.42.18-.6 0s-.18-.421 0-.602c.18-.18.42-.18.6 0s.18.421 0 .602zm.48-1.744c-1.141-1.263-1.861-2.947-1.981-4.752h.78c.12 0 .3-.12.3-.241h.66c.18.301.48.722.6.722h2.341c.18 0 .36-.12.36-.301v-.12h-2.341c-.06 0-.12-.06-.12-.18s.06-.18.12-.18h2.462v-.18c0 .722.3 1.383.78 1.865-.36-.361-1.201-.18-1.801.421-.54.541-.72 1.203-.54 1.624l-.66.662c-.12-.06-.3-.06-.36.06l-.6.602zm5.824 4.632c-.24 0-.42-.18-.42-.421s.18-.421.42-.421.42.18.42.421-.18.421-.42.421zm6.904-2.888c-.18.18-.42.18-.6 0s-.18-.421 0-.602c.18-.18.42-.18.6 0s.18.421 0 .602zm-1.08-1.744l-.48-.481c-.12-.12-.24-.12-.36-.06l-.66-.662c.18-.421 0-1.083-.54-1.624-.6-.602-1.441-.782-1.801-.421s-.18 1.203.42 1.805c.54.541 1.201.722 1.621.541l.66.662c-.06.12-.06.301.06.361l.48.481a7.696 7.696 0 01-4.683 1.985v-.782c0-.12-.12-.301-.24-.301v-.722c.24-.18.66-.481.66-.602v-2.346c0-.18-.18-.361-.36-.361h-.06v2.466c0 .06-.06.12-.18.12s-.18-.06-.18-.12v-2.406h-.36v2.406c0 .06-.06.12-.18.12s-.18-.06-.18-.12v-2.406h-.12c-.18 0-.3.18-.3.361v2.346c0 .12.42.421.72.601v.662c-.12.06-.24.18-.24.301v.782c-1.801-.12-3.482-.842-4.743-1.985l.48-.481c.12-.12.12-.241.06-.361l.66-.662c.42.18 1.081 0 1.621-.541.6-.602.78-1.444.42-1.805a2.632 2.632 0 004.503-1.865 2.63 2.63 0 00-4.503-1.865c.36-.361.18-1.203-.42-1.805-.54-.541-1.201-.722-1.621-.541l-.66-.662c.06-.12.06-.301-.06-.361l-.48-.481c1.261-1.143 2.942-1.865 4.743-1.985v.782c0 .12.12.301.24.301v.662c-.3.18-.72.481-.72.601v2.346c0 .18.12.361.3.361h.12v-2.526c0-.06.06-.12.18-.12s.18.06.18.12v2.466h.36v-2.466c0-.06.06-.12.18-.12s.18.06.18.12v2.466h.06c.18 0 .36-.18.36-.361v-2.346c0-.12-.36-.421-.66-.601v-.722c.12-.06.24-.18.24-.301v-.782a8 8 0 014.683 1.925l-.48.481c-.12.12-.12.241-.06.361l-.66.662c-.42-.18-1.081 0-1.621.541-.6.601-.78 1.444-.42 1.804s1.201.18 1.801-.421c.54-.541.72-1.203.54-1.624l.66-.662c.12.06.3.06.36-.06l.48-.481a7.724 7.724 0 011.981 4.692h-.781c-.12 0-.3.12-.3.241h-.72c-.18-.241-.48-.662-.6-.662h-2.342c-.18 0-.36.18-.36.361v.06h2.401c.06 0 .12.06.12.18s-.06.18-.12.18h-2.401v.301h2.401c.06 0 .12.06.12.18s-.06.18-.12.18h-2.401v.12c0 .18.18.301.36.301h2.342c.12 0 .42-.421.6-.722h.66c.06.12.18.241.3.241h.78a7.36 7.36 0 01-1.921 4.752zM14.289 16c0-.902.72-1.684 1.681-1.684A1.68 1.68 0 0117.651 16a1.68 1.68 0 01-1.681 1.684A1.68 1.68 0 0114.289 16zm11.047.421c-.24 0-.42-.18-.42-.421s.18-.421.42-.421.42.18.42.421-.18.421-.42.421z"/></symbol><symbol id="icon-map-marker" viewBox="0 0 24 32"><path d="M10.767 31.354C1.686 18.189 0 16.838 0 12 0 5.373 5.373 0 12 0s12 5.373 12 12c0 4.838-1.686 6.189-10.767 19.354a1.5 1.5 0 01-2.466 0zM12 17a5 5 0 10-.001-10.001A5 5 0 0012 17z"/></symbol><symbol id="icon-envelope" viewBox="0 0 32 32"><path d="M31.394 11.925c.244-.194.606-.012.606.294V25c0 1.656-1.344 3-3 3H3c-1.656 0-3-1.344-3-3V12.225c0-.313.356-.488.606-.294 1.4 1.088 3.256 2.469 9.631 7.1 1.319.962 3.544 2.988 5.763 2.975 2.231.019 4.5-2.05 5.769-2.975 6.375-4.631 8.225-6.019 9.625-7.106zM16 20c1.45.025 3.538-1.825 4.587-2.587 8.294-6.019 8.925-6.544 10.837-8.044.363-.281.575-.719.575-1.181V7c0-1.656-1.344-3-3-3h-26c-1.656 0-3 1.344-3 3v1.188c0 .463.212.894.575 1.181 1.912 1.494 2.544 2.025 10.838 8.044 1.05.762 3.138 2.613 4.588 2.587z"/></symbol><symbol id="icon-phone" viewBox="0 0 32 32"><path d="M30.837 1.538l-6.5-1.5a1.51 1.51 0 00-1.719.869l-3 7a1.498 1.498 0 00.431 1.75l3.788 3.1a23.162 23.162 0 01-11.075 11.075l-3.1-3.788a1.497 1.497 0 00-1.75-.431l-7 3a1.517 1.517 0 00-.875 1.725l1.5 6.5a1.5 1.5 0 001.462 1.163c16.006 0 29-12.969 29-29 0-.7-.481-1.306-1.163-1.462z"/></symbol><symbol id="icon-angle-down" viewBox="0 0 20 32"><path d="M8.938 22.019l-8.5-8.5a1.493 1.493 0 010-2.119l1.413-1.412a1.493 1.493 0 012.119 0l6.025 6.025 6.025-6.025a1.493 1.493 0 012.119 0l1.413 1.412a1.495 1.495 0 010 2.119l-8.5 8.5a1.488 1.488 0 01-2.113 0z"/></symbol><symbol id="icon-twitter" viewBox="0 0 32 32"><path d="M28.711 9.482c.02.284.02.569.02.853 0 8.67-6.599 18.66-18.66 18.66A18.53 18.53 0 010 26.051c.528.061 1.036.081 1.584.081 3.066 0 5.888-1.035 8.142-2.802a6.57 6.57 0 01-6.132-4.548c.406.061.812.102 1.239.102.589 0 1.178-.081 1.726-.223A6.56 6.56 0 011.3 12.224v-.081a6.6 6.6 0 002.964.832A6.556 6.556 0 011.34 7.513c0-1.218.325-2.335.893-3.31a18.639 18.639 0 0013.523 6.863 7.437 7.437 0 01-.162-1.502 6.555 6.555 0 016.558-6.558c1.888 0 3.594.792 4.792 2.071a12.88 12.88 0 004.162-1.584 6.539 6.539 0 01-2.883 3.614A13.168 13.168 0 0032 6.092a14.103 14.103 0 01-3.289 3.391z"/></symbol><symbol id="icon-instagram" viewBox="0 0 28 32"><path d="M14.006 8.813c-3.975 0-7.181 3.206-7.181 7.181s3.206 7.181 7.181 7.181 7.181-3.206 7.181-7.181-3.206-7.181-7.181-7.181zm0 11.85c-2.569 0-4.669-2.094-4.669-4.669s2.094-4.669 4.669-4.669 4.669 2.094 4.669 4.669-2.1 4.669-4.669 4.669zm9.15-12.144c0 .931-.75 1.675-1.675 1.675a1.675 1.675 0 111.675-1.675zm4.757 1.7c-.106-2.244-.619-4.231-2.262-5.869-1.637-1.638-3.625-2.15-5.869-2.263-2.313-.131-9.244-.131-11.556 0-2.237.106-4.225.619-5.869 2.256S.207 7.968.094 10.212c-.131 2.313-.131 9.244 0 11.556.106 2.244.619 4.231 2.263 5.869s3.625 2.15 5.869 2.262c2.313.131 9.244.131 11.556 0 2.244-.106 4.231-.619 5.869-2.262 1.637-1.637 2.15-3.625 2.262-5.869.131-2.313.131-9.238 0-11.55zM24.925 24.25a4.728 4.728 0 01-2.663 2.663c-1.844.731-6.219.563-8.256.563s-6.419.163-8.256-.563a4.728 4.728 0 01-2.663-2.663c-.731-1.844-.563-6.219-.563-8.256s-.163-6.419.563-8.256A4.72 4.72 0 015.75 5.076c1.844-.731 6.219-.563 8.256-.563s6.419-.162 8.256.563a4.727 4.727 0 012.663 2.662c.731 1.844.563 6.219.563 8.256s.169 6.419-.563 8.256z"/></symbol><symbol id="icon-facebook" viewBox="0 0 20 32"><path d="M17.446 18l.889-5.791h-5.557V8.451c0-1.584.776-3.129 3.265-3.129h2.526V.391S16.276 0 14.085 0C9.509 0 6.518 2.774 6.518 7.795v4.414H1.431V18h5.087v14h6.261V18z"/></symbol><symbol id="burger" viewBox="0 0 28 32"><path d="M1 8.25h26a1 1 0 001-1v-2.5a1 1 0 00-1-1H1a1 1 0 00-1 1v2.5a1 1 0 001 1zm0 10h26a1 1 0 001-1v-2.5a1 1 0 00-1-1H1a1 1 0 00-1 1v2.5a1 1 0 001 1zm0 10h26a1 1 0 001-1v-2.5a1 1 0 00-1-1H1a1 1 0 00-1 1v2.5a1 1 0 001 1z"/></symbol><symbol id="icon-cross" viewBox="0 0 22 32"><path d="M15.17 16l6.254-6.254a1.967 1.967 0 000-2.78l-1.39-1.39a1.965 1.965 0 00-2.78 0L11 11.83 4.746 5.576a1.965 1.965 0 00-2.78 0l-1.39 1.39a1.967 1.967 0 000 2.78L6.83 16 .576 22.254a1.967 1.967 0 000 2.78l1.39 1.39a1.967 1.967 0 002.78 0L11 20.17l6.254 6.254a1.967 1.967 0 002.78 0l1.39-1.39a1.967 1.967 0 000-2.78L15.17 16z"/></symbol></defs></svg>